<svg width="681" height="668" fill="none" xmlns="http://www.w3.org/2000/svg"><path d="M616.854 83.617C486.124-51.14 285.513 10.339 234.738 40.24 152.119 88.822 119.755 154.812 128.034 207.5c9.09 57.661 1.737 118.793-60.79 183.684-55.64 57.778-23.391 157.659-23.391 157.659l183.242 30.537c110.177-59.628 177.511 10.584 296.372-40.311 171.084-73.277 201.769-343.715 93.387-455.452z" fill="#373B40"/><path d="M563.879 437.684c-.058-.694-5.616-67.205 31.437-104.971l.869.867c-36.649 37.362-31.148 103.352-31.09 103.988l-1.216.116z" fill="#FFB0B4"/><path d="M560.81 435.544l-1.215-.058c.057-.752 3.994-74.434 2.431-92.074l1.216-.115c1.563 17.755-2.432 91.495-2.432 92.247zm-7.874 0c0-.578-1.852-58.703-22.348-90.512l.984-.636c20.728 32.098 22.522 90.512 22.58 91.09l-1.216.058z" fill="#FFB0B4"/><path d="M556.757 435.544l-1.215-.116c0-.347 2.142-34.18-29.991-44.186l.348-1.156c33.116 10.352 30.916 45.111 30.858 45.458z" fill="#FFB0B4"/><path d="M548.999 434.676l-1.1-.52c.174-.347.348-1.735.637-3.354 1.563-10.411 6.427-42.162 33.754-47.715l.231 1.157c-26.516 5.379-31.264 36.494-32.827 46.731-.347 2.198-.521 3.239-.695 3.701zm44.349-90.28l10.943 2.544a78.596 78.596 0 0023.621-15.499l-17.195-5.668 20.322 2.487c4.921-5.263 8.858-10.758 11.926-15.905l-7.642-6.825 10.132 2.372c5.442-10.526 7.237-18.681 7.237-18.681-3.59-.116-6.948-.058-10.19.116l-1.274 4.973-1.331-4.742c-20.611 1.735-33.985 9.369-42.728 18.796l1.216 12.608-5.674-7.056c-12.679 17.987-11.695 39.213-11.695 39.213a89.804 89.804 0 0017.948-4.107l-5.616-4.626zm-20.437-2.372l5.037-3.065a58.73 58.73 0 00.521-22.382l-14.938 6.015 14.301-9.312c-1.795-8.212-5.037-15.326-8.222-20.878l-7.179 3.007 5.732-5.378c-4.4-6.998-8.395-10.989-8.395-10.989-6.89 7.576-11.116 15.442-13.432 23.25l10.422 5.61-11.348-1.967c-2.953 13.013-.811 25.679 2.837 36.205l10.363 4.396h-8.684c5.5 13.591 12.853 22.671 12.853 22.671 7.526-9.427 12.042-18.565 14.358-27.24h-4.226v.057zm-36.417-.173l4.458-12.03c-3.416-13.533-10.479-22.44-17.427-28.166l-6.195 7.288 3.069-9.659c-7.816-5.552-14.706-7.229-14.706-7.229-2.953 15.095-2.258 27.298.405 37.014h12.39l-11 4.396c3.821 10.584 10.132 17.929 16.211 22.96h6.774l-3.937 2.198c7.816 5.61 14.59 7.461 14.59 7.461 2.257-12.203 2.257-22.44.868-31l-5.5 6.767z" fill="#FFB0B4"/><path d="M613.786 371.983l-3.995 3.412 1.1-4.106a61.627 61.627 0 00-7.758-1.272l-3.764 4.511 1.853-4.627c-7.295-.463-12.969.81-17.427 2.834l-4.516 8.791.985-6.883c-8.974 5.842-11.232 14.806-11.232 14.806 1.737.405 3.416.752 5.037 1.041v-2.544l3.3 3.065c6.6.867 12.274.752 17.137 0l-7.411-7.866 10.48 7.287c4.458-1.041 8.163-2.544 11.174-4.337l-2.432-4.569 4.979 2.892c6.832-4.859 9.263-10.353 9.263-10.353a89.04 89.04 0 00-6.773-2.082zM510.73 391.589l-3.358 5.552c3.532 1.504 7.7 2.429 12.679 2.314l2.316-3.759-.637 3.643c4.342-.347 9.264-1.504 14.764-3.759 0 0-1.853-4.338-6.137-8.675l-.406 4.684-.984-6.015a29.752 29.752 0 00-6.947-4.684l-.811 5.205-1.274-6.073c-4.052-1.561-8.916-2.371-14.705-1.793l-.811 6.941s-2.142-3.644-3.705-6.247c-2.779.636-5.79 1.504-8.974 2.834 0 0 3.763 9.023 13.2 14.17l5.79-4.338z" fill="#FFB0B4"/><path d="M517.388 308.827c.405-3.817.463-7.692.347-11.278-6.658-4.106-12.042-5.436-12.042-5.436-2.953 15.095-2.258 27.298.405 37.014h3.995c4.4-5.378 6.426-12.781 7.237-20.184l-.058.058.116-.174z" fill="#EC8A92"/><path d="M592.132 117.624H413.638v80.449h178.494v-80.449z" fill="#DDE4EF"/><path d="M398.932 498.295H218.121a4.421 4.421 0 01-4.458-4.453V147.814a4.422 4.422 0 014.458-4.454h180.811a4.422 4.422 0 014.458 4.454v345.97c0 2.487-2.026 4.511-4.458 4.511z" fill="#CFD4DD"/><path d="M387.99 442.137H229.064c-1.969 0-3.59-1.619-3.59-3.586V169.039c0-1.966 1.621-3.586 3.59-3.586H387.99c1.968 0 3.589 1.62 3.589 3.586v269.512c-.058 2.025-1.621 3.586-3.589 3.586z" fill="#E2E8EF"/><path d="M121.608 369.901s-40.18 22.614-73.355 61.768c-32.827 38.75-53.265 71.195-47.185 90.223 5.905 18.449 51.238 15.037 81.691-20.879l-5.963-15.673-14.59 5.09s4.69-9.312 16.037-17.698l43.365-102.831z" fill="#FFB0B4"/><path d="M115.992 373.313c-7.7 4.974-3.821 2.082-17.08 11.625-5.673 4.28-42.843 80.68-47.185 108.962.058 0 3.01-.868 3.01-.868l11-3.933-3.589 1.273s2.664-5.263 8.8-11.452l27.096-53.15 15.053-35.685 2.895-16.772z" fill="#EC8A92"/><path d="M158.314 368.629s-24.895-.984-32.19 0c-7.237.983-19.106 10.352-27.443 25.042-8.28 14.69-22.059 39.097-41.338 92.363-19.28 53.266-15.227 61.248-10.48 69.807 4.748 8.56 34.912 33.776 94.661 38.403 59.749 4.627 98.887-17.351 100.451-32.214 1.215-11.278-3.474-71.6-9.38-124.462-5.905-52.803-15.458-60.9-23.042-63.85-7.469-3.007-51.239-5.089-51.239-5.089z" fill="#FFB0B4"/><path d="M144.824 368.224s-9.379 11.104-6.716 19.143c2.606 8.039 32.422 2.603 45.391-17.177 0 .058-26.516-1.966-38.675-1.966z" fill="#E98870"/><path d="M73.207 465.792s7.642 47.945-15.17 107.573c0 0 37.344 36.263 88.93 21.052 0 0 32.306-27.529 19.742-121.685 0 0-36.88-2.313-93.502-6.94z" fill="#EBF1FC"/><path d="M144.824 368.224s6.832-19.549 8.337-43.145l25.88 1.33s1.274 34.817 4.458 43.781c0 .058-38.385 9.196-38.675-1.966z" fill="#E98870"/><path d="M179.389 305.473h-26.748v39.212h26.748v-39.212z" fill="#E98870"/><path d="M150.498 306.745s-4.979 39.617 6.195 40.311c9.785.636 18.527-1.966 21.017-21.515 0 0-11.927-18.391-27.212-18.796z" fill="#E98870"/><path d="M51.9 493.321s-11.405 1.562-11.405-3.238c0 0 5.674 4.048 13.085-1.909l-1.68 5.147zm190.133 67.841c-12.911-.752-73.182-28.57-73.182-28.57l-.347 3.527c18.237 24.754 42.959 37.536 57.954 43.088 9.495-5.61 14.88-11.857 15.459-17.177.058-.29.116-.579.116-.868zM201.1 390.953s-7.932 21.341 3.416 46.962c0 .058-17.948-23.944-3.416-46.962zm25.822 104.855s7.295 22.267-13.027 23.713l13.027-23.713z" fill="#EC8A92"/><path d="M53.927 484.183s-1.274 6.304-6.89 7.114c0 0 5.674-.173 6.543-1.561.868-1.446.347-5.553.347-5.553zm45.043-99.187s-5.963 7.808-11.868 14.343c-5.906 6.478-1.1 13.591-1.1 13.591s12.853-21.341 12.968-27.934z" fill="#EC8A92"/><path d="M151.598 320.799s-2.431-3.644-6.137-1.793c-3.358 1.677-2.721 9.774 6.716 8.502 0 0 .29-4.164-.579-6.709z" fill="#E98870"/><path d="M149.63 314.495s2.374 4.8 9.958 5.494c7.584.636 14.474-3.643 15.748-6.824 0 0 1.1 3.817 3.647 3.932l.348 11.857s1.91-18.161.521-24.812c-1.39-6.709-8.858-7.75-15.053-7.576-7.758.231-14.938 3.701-16.501 7.403-1.563 3.701-.926 9.369 1.158 13.418l.174-2.892z" fill="#36162C"/><path d="M178.115 318.428s1.795-3.991 5.732-2.834c3.589 1.041 4.4 9.138-5.095 9.543-.058 0-1.042-4.049-.637-6.709z" fill="#E98870"/><path d="M151.309 341.33s2.084 4.916 6.195 6.073c5.616 1.562 14.358-1.041 18.527-8.907 0 0-.985 19.607-13.722 19.607-12.853 0-11.174-15.442-11.174-15.442l.174-1.331z" fill="#CC7261"/><path d="M46.98 518.248c-2.2 8.097-3.3 14.17-3.764 18.97 19.106-7.46 29.759-24.811 29.759-24.811l.347-3.181-26.343 9.022z" fill="#EC8A92"/><path d="M72.975 512.349s4.284-5.61 5.905-8.328c0 0 4.98.983 7.353-1.909 5.095-6.188 8.395-13.36 8.395-13.36L76.912 501.36l1.158 1.562-4.748 6.246-.347 3.181z" fill="#36162C"/><path d="M94.976 487.711c0-.52-.348-1.041-.985-.809-1.62.636-4.805 3.47-6.252 4.337l1.678-2.14c1.274-2.429 2.374-4.973 3.416-7.518.116-.289.058-.521-.115-.694-.29-.521-1.1-.752-1.506-.116-.926 1.619-3.647 5.379-5.037 6.709.174-.694 1.853-3.644 2.027-4.338.695-2.371 1.273-4.8 1.794-7.171.058-.116.058-.174.116-.289.29-.81-.694-1.273-1.273-.868-.116.058-.174.174-.29.289 0 .058-.058.058-.116.116v.058c0 .058-.058.058-.058.058 0 .057 0 .115-.058.115-.868 2.429-1.91 4.685-3.357 6.883-.406.636-1.853 2.891-2.316 3.528.579-1.909 2.373-7.577 2.663-9.601 0-.058-.058-.116-.058-.174.058-.462-.174-.751-.637-.867-.347-.116-.752 0-.926.405-.058.058-.116.058-.116.115-1.621 4.107-4.747 9.601-8.163 12.319-.985-1.446-.753-2.718-.985-4.048 0-.058-.057-.058-.057-.116-.058-.173-.116-.289-.29-.405h-.058c-.405-.289-.463-.231-.695.405-.81 2.082-1.563 4.222-2.373 6.304-.058.116 0 .174 0 .232-.116.231-.174.462 0 .809 1.852 3.47 3.59 6.941 5.847 10.121.174.29.463.347.753.347.116.174.347.29.637.29 8.337 0 10.653-9.023 16.384-13.245.464-.289.521-.694.406-1.041z" fill="#E98870"/><path d="M71.006 489.504s-10.19 3.586-19.916 3.817l-9.727 36.263s24.49-7.461 36.707-26.662l-7.064-13.418z" fill="#FFB0B4"/><path d="M168.504 536.062s-4.863-6.42-6.542-8.907c0 0-6.021-1.793-10.074-4.164-4.053-2.314-5.848-11.22-4.632-11.509l15.922 13.649-.927 1.099 6.6 6.246-.347 3.586z" fill="#36162C"/><path d="M172.209 511.366c-.231-2.024-.81-3.991-1.505-5.899 0-.058-.058-.058-.116-.116a.45.45 0 00-.231-.231c-.116-.058-.174-.058-.29-.058h-.115a1.306 1.306 0 00-.29.173c-.058.058-.116.058-.174.116-.058.058-.058.174-.115.289 0 .058-.058.116-.058.232a35.068 35.068 0 010 4.916c-5.153-4.338-10.538-9.254-11.001-16.368 0-.405-.347-.578-.694-.578h-.116c-.348 0-.637.173-.637.636-.058 3.933 0 7.461.753 11.047-2.895-3.702-6.89-6.594-9.553-10.526-.058-.058-.058-.058-.116-.058-.058-.058-.116-.174-.174-.232-.579-.751-1.679.174-1.158.984 1.853 2.544 2.432 6.13 3.821 8.964a58.952 58.952 0 002.027 3.817c-2.721-2.024-5.5-4.048-7.121-7.056-.232-.462-.637-.462-.985-.289-.347.174-.579.521-.347.983 1.679 3.702 3.589 7.23 6.079 10.353a13.386 13.386 0 01-2.258-1.793c-.579-.578-1.389 0-1.274.636 0 .116-.058.174 0 .289 2.721 7.056 10.248 9.37 15.98 13.534.173.115.405.173.579.115a.737.737 0 00.868-.231c2.084-2.487 4.516-4.742 6.774-7.056.058-.058 0-.115.058-.115.174-.116.347-.232.405-.521.29-2.256 1.216-3.644.984-5.957z" fill="#E98870"/><path d="M218.295 380.774s29.354 40.947 51.065 90.917c21.711 50.027 6.831 79.581-15.111 87.1-22.001 7.461-56.333 3.007-91.94-32.504l10.132-12.203s36.591 13.534 51.181.926c14.589-12.609-13.317-61.132-21.885-84.151-9.38-24.869.637-60.091 16.558-50.085z" fill="#FFB0B4"/><path d="M580.321 134.049h-46.143v1.446h46.143v-1.446zm0 7.634h-46.143v1.446h46.143v-1.446zm0 17.004h-46.143v1.446h46.143v-1.446zm0 7.634h-46.143v1.446h46.143v-1.446zm0 17.524h-46.143v1.446h46.143v-1.446z" fill="#B768B0"/><path d="M331.54 350.873h-46.143v1.446h46.143v-1.446zm37.459 12.782H248.054v1.446h120.945v-1.446zm0 12.839H248.054v1.446h120.945v-1.446zm0 12.84H248.054v1.446h120.945v-1.446z" fill="#36162C"/><path d="M580.321 191.479h-46.143v1.446h46.143v-1.446z" fill="#B768B0"/><path d="M324.134 472.723c1.233-8.6-4.748-16.57-13.357-17.801-8.609-1.231-16.588 4.743-17.82 13.343-1.233 8.601 4.748 16.571 13.357 17.802 8.61 1.231 16.588-4.743 17.82-13.344z" fill="#DDE4EF"/><path d="M308.498 333.176c18.577 0 33.637-15.045 33.637-33.603s-15.06-33.602-33.637-33.602c-18.578 0-33.638 15.044-33.638 33.602 0 18.558 15.06 33.603 33.638 33.603z" fill="#B768B0"/><path d="M373.979 155.506a2.47 2.47 0 01-2.49 2.487 2.47 2.47 0 01-2.49-2.487 2.47 2.47 0 012.49-2.487 2.47 2.47 0 012.49 2.487z" fill="#36162C"/><path d="M372.472 155.505a.975.975 0 01-.984.983.974.974 0 01-.983-.983c0-.52.463-.982.983-.982.521 0 .984.404.984.982z" fill="#E2E8EF"/><path d="M328.704 157.53H288.35a.669.669 0 01-.695-.694v-2.66c0-.405.29-.694.695-.694h40.354c.405 0 .694.289.694.694v2.602c0 .405-.289.752-.694.752zm-141.962-27.24l-12.043-3.413c-.347-.115-.579-.462-.463-.867l.695-2.371a.694.694 0 01.868-.463l12.043 3.412c.347.116.579.463.463.868l-.695 2.371c-.116.347-.463.578-.868.463zm-5.095 25.852l-12.506-.231a.704.704 0 01-.695-.694l.058-2.487c0-.405.347-.694.695-.694l12.506.231c.405 0 .694.347.694.694l-.058 2.487a.668.668 0 01-.694.694zm6.716 26.084l-11.869 3.99a.675.675 0 01-.869-.462l-.81-2.314a.672.672 0 01.463-.867l11.869-3.991a.674.674 0 01.868.463l.811 2.313c.116.347-.116.694-.463.868z" fill="#DDE4EF"/><path d="M430.196 353.013h-15.458v145.224h15.458V353.013zm-72.255 140.424h-30.395V523.8h30.395v-30.363z" fill="#EEF3FF"/><path d="M371.431 463.074h-30.396v30.363h30.396v-30.363z" fill="#EEF3FF"/><path d="M388.337 493.437h-30.396V523.8h30.396v-30.363zm68.26-99.13h-15.459v103.93h15.459v-103.93z" fill="#EEF3FF"/><path d="M425.448 173.84s4.574-22.151 8.974-22.556c4.401-.405 7.237 23.481 10.306 25.158 3.068 1.677 4.458-45.169 9.379-46.268 4.979-1.099 7.469 42.22 10.364 43.319 2.894 1.098 4.805-34.644 9.784-36.09 4.979-1.503 7.643 42.567 10.885 43.724 3.242 1.099 6.542-29.438 11.232-30.711v42.509h-70.576l-.348-19.085zm103.461-50.317H507.43v19.548h21.479v-19.548zm0 24.696H507.43v19.548h21.479v-19.548zm0 25.158H507.43v19.548h21.479v-19.548z" fill="#B768B0"/><path d="M577.079 495.808c13.664-18.507 11.637-54.018 11.637-54.018l-31.437-2.776-31.438 2.776s-2.026 35.511 11.637 54.018h39.601z" fill="#CFD4DD"/><path d="M593.348 433.115h-72.081v9.08h72.081v-9.08z" fill="#EEF3FF"/><path d="M525.841 442.195l-.116 3.933s28.138 9.427 62.876 7.461c0 0 .405-6.767.058-11.394h-62.818z" fill="#36162C"/><path d="M458.449 173.377H279.955v143.894h178.494V173.377z" fill="#EEF3FF"/><path d="M332.988 187.662h-41.107v38.75h41.107v-38.75zm0 48.293h-41.107v1.446h41.107v-1.446zm0 13.649h-41.107v1.446h41.107v-1.446zm0 13.591h-41.107v1.446h41.107v-1.446zm0 13.649h-41.107v1.446h41.107v-1.446zm111.798 12.319H291.881v1.446h152.905v-1.446zm0 12.377H291.881v1.446h152.905v-1.446zm0-113.878h-96.108v90.628h96.108v-90.628z" fill="#B768B0"/><path d="M312.435 207.037l3.01-14.632a17.083 17.083 0 00-3.01-.289c-8.28 0-14.938 6.708-14.938 14.921 0 8.27 6.716 14.921 14.938 14.921 8.279 0 14.937-6.708 14.937-14.921 0-.463 0-.983-.058-1.446l-14.879 1.446z" fill="#fff"/><path d="M496.777 209.119s-.521 1.215.058 2.487c.579 1.272 1.1 2.718.289 4.28-.81 1.561-1.563-5.668-1.563-5.668l1.216-1.099zm.405 13.591s-.347 1.215.579 2.487c.695.926 1.911.752 2.721 2.198.753 1.446-.637 2.66-.579 3.412.058.752.753 2.487-1.158 3.239l-3.126-1.041-1.1-.983.347-8.965 2.316-.347z" fill="#36162C"/><path d="M437.723 233.757c-.927.347-1.564 1.041-2.085 1.851-.579-1.909-.926-4.107-.695-6.073v-.058c-.057-.173-.347-.173-.405.058-.463 1.272-.984 2.892-1.274 4.222-.463-1.735-.868-3.759-.926-5.495 0-.057 0-.057-.058-.115-.058-.231-.347-.289-.463 0-.521 1.908-.463 3.817-.347 5.726-.463-1.157-1.042-2.372-1.274-3.644-.058-.289-.521-.174-.463.116-.058 1.85.173 3.643.521 5.378a10.793 10.793 0 01-.695-1.735v-.058c0-.057-.058-.057-.058-.115h-.116c-.057 0-.057 0-.115.058 0 0-.058 0-.058.057-.058 0-.058.058-.058.116v.058c-.174 2.834.752 5.436 2.605 7.576 0 .058.058.174.174.116 1.331-.116 2.663-.231 3.995-.289.116.058.231.058.347-.058 1.332-2.198.463-4.974 1.737-7.229.058-.058.058-.116 0-.174-.058-.231-.174-.347-.289-.289z" fill="#E98870"/><path d="M479.582 488.521h-1.39l-.289-182.644-30.396-10.41s-14.706 110.639 12.506 193.401h-1.332c.811 3.817 3.242 9.659 3.242 9.659l1.506.057c.636 1.735 1.331 3.47 2.026 5.148l12.679.405v-4.801l1.911.116c1.042-5.147-.463-10.931-.463-10.931z" fill="#5835BA"/><path d="M512.061 487.017l-1.968.058c-6.021-55.695-8.453-137.648-5.037-144.993 4.4-9.369 3.879-27.819 1.042-35.164-2.316-6.014-1.737-7.402-1.737-7.402l-40.18 3.99s-4.4 9.601-5.79 55.753c-1.563 51.878 20.033 102.947 32.77 128.337l-2.027.058c1.622 4.684 5.501 10.815 5.501 10.815h2.258c2.026 3.643 3.242 5.668 3.242 5.668l11.984-.579c-.231-1.677-.463-3.354-.636-5.089h2.431c.348-5.842-1.853-11.452-1.853-11.452z" fill="#5835BA"/><path d="M478.192 468.51s-23.911-50.49-19.858-104.103c0 0-1.564 41.178 19.858 94.155v9.948zm-14.011-164.946s-2.084 8.617-2.489 11.278c0 0-.058-7.981.289-11.625l2.2.347zm35.143.116s1.158 12.261 8.858 15.847c-.231-5.09-.984-9.659-2.084-12.551-2.316-6.015-1.737-7.403-1.737-7.403l-5.037 4.107z" fill="#36162C"/><path d="M465.628 234.682s-8.452 3.817-18.295 33.776c0 0-7.41-11.625-10.711-27.298l-5.326.173s-4.458 46.558 17.948 49.16c23.969 2.776 16.384-55.811 16.384-55.811z" fill="#FFB0B4"/><path d="M495.169 207.951l-10.044.782 1.153 14.762 10.044-.783-1.153-14.761z" fill="#E98870"/><path d="M489.598 231.675s13.953 1.966 17.948 8.502c2.026 3.296 3.126 7.634 1.679 16.887-1.448 9.254-1.332 24.638-.927 29.67.29 3.528.579 14.112-10.421 17.408-10.943 3.297-36.07-.231-44.059-2.891-11.811-3.933-6.369-19.26-4.516-29.381 2.489-13.707 10.595-30.421 12.39-33.313 3.473-5.494 11.521-8.675 27.906-6.882z" fill="#FFB0B4"/><path d="M495.619 233.005s-5.616 5.147-11.695 5.147c-6.079-.057-1.853-6.998-1.853-6.998s6.716-.173 13.548 1.851z" fill="#E98870"/><path d="M495.619 233.005s-.463-8.56 0-13.823l-8.163-.694s-2.085 8.618-5.385 12.724l3.59 2.776 9.958-.983z" fill="#E98870"/><path d="M495.156 207.905s2.142 6.419 2.894 9.658c.753 3.239.637 7.866-6.252 5.668l3.358-15.326z" fill="#E98870"/><path d="M447.333 268.4s.869 1.562 2.2.694c0 0-1.621-1.388-1.389-3.065l-.811 2.371zm-13.721 4.916s4.168 8.56 6.137 10.295c2.953 2.602 3.647.231 6.137-.405 1.91-.463 1.447-4.974 3.126-9.427l-2.489 16.078c0 .058-9.09-1.446-12.911-16.541zm74.744 19.144l-19.569-18.681s-.116 19.722 12.216 29.091c4.748-2.545 6.716-6.709 7.353-10.41zm-.231-15.558s-3.474-10.931-4.806-13.591c0 0 2.142 14.401 4.748 15.789l.058-2.198z" fill="#EC8A92"/><path d="M463.486 498.642l14.706.752-.058 2.14s-8.8-.405-14.242-1.735l-.406-1.157zm33.407-.115h14.532l.115.983s-7.063 1.214-13.547 1.041l-1.1-2.024z" fill="#36162C"/><path d="M491.392 267.764c-.058-.058-.115-.058-.173-.058-.463-.52-.927-1.099-1.216-1.735-.116-.289-.521-.231-.521.058v.983c-.348-.116-.637-.173-.984-.289-1.795-.463-3.532-1.157-5.211-2.024-.232-.116-.521.115-.347.347a14.311 14.311 0 002.779 2.834c-.637.231-.927.752-.753 1.503-.637.463-.753 1.215-.174 1.909.348 1.677 2.779 2.082 4.227 2.429.058.058.115.116.231.058 1.448-.405 2.953-.521 4.285-1.157.115 0 .289-.058.289-.231-.058-1.909-.811-3.586-2.432-4.627z" fill="#E98870"/><path d="M497.935 234.046s12.332 2.14 18.237 14.112c3.242 6.593 15.574 36.61 6.948 49.391-7.99 11.799-30.454-4.974-34.275-23.77l5.327-1.735s7.642 10.931 15.805 12.377c0 0-.868-7.75-5.152-15.5-.058 0-18.18-37.015-6.89-34.875z" fill="#FFB0B4"/><path d="M482.071 231.154s1.679-6.535 0-13.36c-1.679-6.824-2.026-11.567 1.969-13.996 3.995-2.429 8.395-2.313 10.421-.752 1.447 1.157 3.705 4.974 1.563 7.635l-.231-.637s-.521-.983-2.2.116c-2.2 1.446-5.153.925-5.79-.231 0 0 .289.983-.405 1.561l-1.911 2.719.637 8.386c.058.115-2.084 6.709-4.053 8.559z" fill="#36162C"/><path d="M487.456 211.548s-.927-1.677-2.606-1.041c-1.563.579-1.563 4.164 2.606 3.991 0 .058.289-1.793 0-2.95z" fill="#E98870"/><path d="M486.24 214.44s1.158 1.041.984 3.354c-.232 2.314-1.042 2.372.347 5.553 1.39 3.123 1.564 9.485-5.5 7.865-7.063-1.677 2.316-14.632 2.316-14.632l1.158-2.256.695.116z" fill="#36162C"/><path d="M481.608 215.654s.173 2.083-.927 2.661c-1.157.578-2.026 1.446-1.621 3.181.406 1.735-.289 2.429-.984 2.66-.695.232-2.431.579-2.779 2.661-.347 2.024 1.563 3.181.753 4.684 0 0 3.879-.347 6.079-.289 2.2.058 2.142-8.502 2.142-8.502s.116-4.511 0-4.742c-.174-.289-2.663-2.314-2.663-2.314zm.811-9.774s-1.216.289-1.564 1.331c-.347.925-.231 2.024.348 2.66.637.636 1.216-3.991 1.216-3.991z" fill="#36162C"/><path d="M482.071 231.154s-.463-.058-.637.694c-.173.752-.347 2.082-2.605 2.082s-3.474-1.503-2.895-2.544c.579-1.041 4.574-1.157 4.632-1.157.058 0 1.505-.058 1.505-.058v.983zM468.35 503.79l-14.996 5.783v1.793h24.549l.289-5.321-1.679-2.024-8.163-.231zm33.464.289l-1.332 1.619v4.106l17.543 4.512 3.242-.347-8.8-8.965-2.258-1.33-8.395.405zM487.05 314.263s-1.563 10.7 10.248 13.013c0 0-5.5 1.446-9.321-2.891-3.127-3.702-.927-10.122-.927-10.122z" fill="#36162C"/><path d="M495.387 223.809s-2.2.174-3.589-.52c0 0-.116 5.205 3.589 4.974.058 0 0-3.702 0-4.454z" fill="#CC7261"/><path d="M222.29 263.311c0-5.379-4.4-9.774-9.785-9.774h-37.053c-5.385 0-9.785 4.395-9.785 9.774 0 5.378 4.4 9.774 9.785 9.774h29.758v10.063l12.332-11.509c2.895-1.735 4.748-4.8 4.748-8.328z" fill="#B768B0"/><path d="M179.215 263.195c0 .81-.637 1.446-1.448 1.446-.81 0-1.447-.636-1.447-1.446 0-.81.637-1.446 1.447-1.446.811 0 1.448.636 1.448 1.446zm16.211 0c0 .81-.637 1.446-1.447 1.446a1.433 1.433 0 01-1.448-1.446c0-.81.637-1.446 1.448-1.446.81 0 1.447.636 1.447 1.446zm14.59 0c0 .81-.637 1.446-1.448 1.446-.81 0-1.447-.636-1.447-1.446 0-.81.637-1.446 1.447-1.446.811 0 1.448.636 1.448 1.446z" fill="#36162C"/><path d="M531.688 212.936c0-4.569 3.706-8.27 8.28-8.27h31.264c4.573 0 8.279 3.701 8.279 8.27 0 4.569-3.706 8.271-8.279 8.271h-25.127v8.501l-10.422-9.716c-2.374-1.446-3.995-4.106-3.995-7.056z" fill="#B768B0"/><path d="M568.105 212.821c0 .636.521 1.214 1.216 1.214s1.216-.52 1.216-1.214c0-.637-.521-1.215-1.216-1.215s-1.216.521-1.216 1.215zm-13.663 0c0 .636.521 1.214 1.216 1.214.636 0 1.215-.52 1.215-1.214 0-.637-.521-1.215-1.215-1.215-.695 0-1.216.521-1.216 1.215zm-12.332 0c0 .636.521 1.214 1.216 1.214.636 0 1.215-.52 1.215-1.214 0-.637-.521-1.215-1.215-1.215-.695 0-1.216.521-1.216 1.215z" fill="#36162C"/><path d="M156.404 576.373c-8.801-7.172-17.138-15.037-28.543-17.524-18.759-3.991-37.98 3.065-56.912-.289-1.332 13.359-1.737 26.604-6.543 39.443-4.226 11.105-11.29 20.763-19.163 29.496 12.505-1.041 25.532-3.181 38.095-2.082 9.553.81 18.469 4.396 27.212 8.155 20.032 8.559 39.253 18.97 55.696 33.486-5.269-24.695 5.732-47.714 16.211-69.46-8.684-7.056-17.369-14.111-26.053-21.225z" fill="#EEF3FF"/><path d="M267.391 149.086s3.648 1.677 7.006 2.14c0 0 4.11 10.989 0 18.449 0 0-5.153 0-7.006.81v-21.399z" fill="#B768B0"/><path d="M267.391 170.543c.637-.289 1.679-.463 2.779-.578 5.732-7.172 1.621-19.26 1.621-19.26-2.374-.694-4.342-1.561-4.342-1.561v21.399h-.058z" fill="#36162C"/><path d="M225.127 122.829s33.985 22.382 43.943 25.563c0 0 6.369 12.839-.579 23.308 0 0-34.217 10.931-46.143 20.878l2.779-69.749z" fill="#B768B0"/><path d="M215.516 194.834c11.095 0 20.09-17.168 20.09-38.345s-8.995-38.345-20.09-38.345-20.09 17.168-20.09 38.345 8.995 38.345 20.09 38.345z" fill="#EEF3FF"/><path d="M215.516 190.149c8.665 0 15.69-15.07 15.69-33.66 0-18.59-7.025-33.66-15.69-33.66s-15.69 15.07-15.69 33.66c0 18.59 7.025 33.66 15.69 33.66zm19.569-56.563s17.195 12.724 29.759 15.963v.347s-16.732-3.817-29.238-13.36c0 0-1.563-2.256-.521-2.95zm7.584 47.83v7.981h2.837v-9.196l-2.837 1.215z" fill="#36162C"/><path d="M242.669 189.397l12.332-6.477h1.274l-10.769 6.477h-2.837z" fill="#36162C"/><path d="M255.001 182.92v-6.478l1.274-.462v6.94s-1.274.52-1.274 0z" fill="#36162C"/><path d="M220.032 166.494c2.895-8.906.868-16.367-.926-20.473-.579-.231-1.158-.405-1.795-.405-3.821 0-6.89 4.858-6.89 10.873s3.069 10.873 6.89 10.873c.984 0 1.91-.289 2.721-.868z" fill="#EEF3FF"/><path d="M355.452 112.303v-.405c0-7.519-6.137-13.65-13.664-13.65-1.679 0-3.242.29-4.747.868a10.09 10.09 0 00-9.09-5.667h-.232c-3.358-4.916-9.031-8.155-15.4-8.155-7.411 0-13.779 4.338-16.848 10.584-1.332-.405-2.721-.579-4.169-.579-8.337 0-15.11 6.767-15.11 15.095 0 .637.057 1.273.115 1.909-3.416.289-6.137 3.065-6.137 6.593a6.655 6.655 0 006.658 6.651h66.581v-.115c2.432-.29 9.727.115 11.985.115 3.647 0 6.658-2.949 6.658-6.651a6.594 6.594 0 00-6.6-6.593zm143.756-22.845a9.98 9.98 0 00-3.936.81 12.662 12.662 0 00-11.174-6.651 12.656 12.656 0 00-11.869 8.212 8.629 8.629 0 00-3.648-.81 8.94 8.94 0 00-8.974 8.965 8.94 8.94 0 008.974 8.964h30.685c5.385 0 9.785-4.395 9.785-9.774-.058-5.32-4.458-9.716-9.843-9.716z" fill="#E2E8EF"/><path d="M587.558 241.449v.752h2.837l-14.937 9.427v-7.403l-23.332 17.119v-9.832l-20.38 15.211.521.636 19.048-14.227v9.774l23.39-17.119v7.287l16.617-10.468v3.412h.81v-4.569h-4.574z" fill="#fff"/><path d="M58.038 573.365l12.91-14.748-2.373 22.903s-7.874-5.321-10.537-8.155z" fill="#CCD2DD"/></svg>