<svg width="641" height="448" fill="none" xmlns="http://www.w3.org/2000/svg"><path d="M460.958 291.552s19.42 130.118 27.069 156.449h33.403l9.56-142.73-70.032-13.719z" fill="#32225C"/><path d="M561.107 296.78l52.046 151.159h-33.761s-79.414-95.051-101.583-147.037l83.298-4.122z" fill="#32225C"/><path d="M566.664 283.739c2.749-27.5-9.799-138.362-9.799-138.362s-.658-17.349-15.895-17.349h-42.964s-11.592 0-18.046 14.642c-6.334 14.52-23.663 129.626-23.663 138.547 0 1.107.12 2.276.359 3.384 0 0-.419 7.874 21.213 16.241 17.986 6.952 60.591 8.244 83.238-4.122 1.853-1.415 3.585-3.322 4.601-5.906.777-1.907 1.195-4.306.956-7.075z" fill="#5835BA"/><path d="M540.97 128.089s72.064 11.566 86.286-84.038l11.054.43s3.705 109.14-83.776 128.765l-13.564-45.157zm-42.964-.002s-86.107 7.875-139.587-29.776l-6.753 9.843s59.397 53.832 122.139 60.169l24.201-40.236z" fill="#5835BA"/><path d="M500.097 131.225s5.319-21.655 6.215-37.097l21.273 3.384s2.45 17.041 3.406 30.453c0 0-23.006 7.875-30.894 3.26z" fill="#E4B69E"/><path d="M523.139 70.401l-20.924 3.586 4.386 27.126 20.924-3.586-4.386-27.126z" fill="#E4B69E"/><path d="M502.248 74.073s-4.422 20.487-.657 30.33c3.227 8.613 17.03 3.753 19.54-5.475 2.509-9.229-.299-28.854-18.883-24.855z" fill="#E4B69E"/><path d="M504.698 108.032s5.797 2.768 11.414-2.031c0 0-2.689 11.259-12.728 9.598l1.314-7.567z" fill="#C19987"/><path d="M526.031 379.219s-25.575-34.206-34.837-51.74c0 0 8.963 46.08 33.463 72.411l1.374-20.671z" fill="#1E0E46"/><path d="M559.673 172.015s-4.243 1.045-6.693 1.292c0 0 3.108 24.916 9.86 31.929l-3.167-33.221z" fill="#402198"/><path d="M473.865 167.338c.239.062.896-4.675 1.852-9.535.478-2.461 1.076-4.984 1.674-6.952.597-2.031 1.075-3.507 1.314-4.061.359-1.046 2.151-5.721 4.84-9.474a33.201 33.201 0 014.004-4.737c1.195-1.169 2.031-1.846 1.972-1.907-.06-.062-1.016.492-2.271 1.538-1.255 1.107-2.868 2.768-4.183 4.675-2.808 3.815-4.601 8.552-4.959 9.598-.239.553-.777 2.091-1.315 4.122-.598 2.03-1.135 4.552-1.613 7.013-1.016 4.983-1.494 9.72-1.315 9.72zm61.129 140.393c-.06 0 .179 1.107.777 2.769.657 1.599 1.613 3.752 2.988 5.783 1.314 1.968 2.868 3.937 4.362 5.352.657.738 1.374 1.292 1.912 1.784.538.492.956.8 1.135.984.837.739 4.661 3.569 8.844 5.107 2.032.861 4.183 1.292 5.737 1.599 1.553.185 2.629.246 2.629.185 0-.123-1.016-.308-2.51-.677-1.494-.369-3.585-.861-5.557-1.722-4.064-1.539-7.828-4.369-8.665-5.045-.239-.185-.597-.492-1.135-.923-.538-.492-1.195-.984-1.852-1.723-1.435-1.353-2.928-3.26-4.303-5.168-1.374-1.968-2.39-3.998-3.107-5.536-.717-1.785-1.135-2.83-1.255-2.769zm-52.823 5.659c.358-.123-1.673-5.598-1.912-6.275-.239-.676-2.092-5.783-2.391-5.66-.478.185 1.494 5.291 1.733 5.968.239.615 2.151 6.152 2.57 5.967z" fill="#36162C"/><path d="M500.097 131.225s-8.843 19.995 1.793 21.595c10.756 1.599 28.324-5.722 29.101-24.855l-30.894 3.26z" fill="#E4B69E"/><path d="M525.852 86.87s0-18.456-2.689-19.195c-2.689-.738-23.424-3.875-25.695-5.229-2.27-1.353-6.573 11.443 4.243 14.704 0 0 4.84 1.23 9.859-2.953-.059 0 8.127 5.106 14.282 12.673z" fill="#36162C"/><path d="M523.402 77.272s3.107-2.215 5.019.615c1.614 2.338-.418 7.69-6.633 6.644 0 .062-1.075-3.69 1.614-7.26z" fill="#E4B69E"/><path d="M499.44 76.226s-.657 3.26 1.613 4.983c0 0 .538-3.26.658-4.06.06-.8-2.271-.923-2.271-.923z" fill="#36162C"/><path d="M340.014 86.992v-.062c.06-.123.359 0 .717.185.896.308 2.45.984 4.004 1.846a75.8 75.8 0 015.198 3.199c.538.369 2.749 1.784 4.661 3.383 1.972 1.538 3.586 3.138 3.347 3.446l-5.319 7.751c-.239.369-1.135.985-2.629.862-.777-.062-1.553-.308-2.151-.554-.598-.308-1.016-.615-1.135-.738-.18-.123-.538-.431-.956-.985-.419-.492-.777-1.23-.897-2.03-.179-.738-.119-1.538.12-2.092.119-.246.239-.43.358-.553a2.155 2.155 0 01-.358-.554c-.299-.677-.18-1.538-.12-1.661 0-.185.12-.923.598-1.477.179-.246.358-.369.597-.43-.059-.062-.179-.185-.239-.308-.418-.615-.418-1.415-.418-1.6 0-.184-.06-.922.299-1.538.06-.184.179-.307.299-.43-.419-.37-.717-.677-.897-.8a146.31 146.31 0 01-2.868-2.46c-.896-.8-1.793-1.6-2.032-2.093-.119-.123-.179-.246-.179-.307-.06 0-.06 0 0 0zm288.138-55.185c0-.738.12-3.937.418-7.013.299-3.076.897-5.906 1.195-5.845l.06.062.06-.062c.538-.061 1.195 6.214 1.315 7.014 0 .246.119.861.179 1.66.119-.06.299-.184.538-.184.717-.184 1.434.123 1.553.246.18.062.897.554 1.136 1.292.059.123.059.246.119.37.179-.062.359-.185.598-.185.717-.123 1.434.307 1.553.492.06.061.299.246.478.492.18.308.359.677.359 1.107 0 .185 0 .37-.06.554h.179c.658.123 1.494.738 1.913 1.6.418.861.478 1.845.478 2.584 0 .738-.06 1.292-.12 1.538-.06.43-.299 2.4-1.076 4.06-.717 1.723-1.732 2.953-2.151 2.953l-8.007-.307c-.239 0-.538-2.83-.657-5.722-.179-2.953-.06-5.968-.06-6.706z" fill="#E4B69E"/><path d="M504.16 157.128c-1.493-.123-3.406-.369-5.377-1.292-1.972-.861-4.004-2.645-4.96-5.045-1.016-2.399-1.135-5.229-.598-7.813.478-2.584 1.435-4.983 2.391-7.198a132.526 132.526 0 012.748-5.783c.359-.738.777-1.353 1.076-1.969h.418c-.358.677-.717 1.354-1.135 2.215a89.484 89.484 0 00-2.629 5.783c-.897 2.153-1.793 4.553-2.271 7.075-.478 2.461-.359 5.168.597 7.383.897 2.276 2.749 3.876 4.602 4.675 1.852.862 3.704 1.169 5.138 1.231 1.435.123 2.51 0 3.108 0 1.135-.062 4.183-.369 7.887-1.846 3.645-1.415 7.828-4.122 10.816-7.752a30.324 30.324 0 003.765-5.721c.956-1.969 1.673-3.876 2.091-5.537.896-3.322.956-5.599 1.135-5.599.06 0 .06.554 0 1.6a23.071 23.071 0 01-.657 4.122 28.487 28.487 0 01-2.032 5.66 27.248 27.248 0 01-3.764 5.906c-3.107 3.753-7.35 6.583-11.115 7.998-3.764 1.476-6.931 1.784-8.066 1.845-.538.062-1.614.185-3.168.062z" fill="#E1E3E9"/><path d="M338.46 293.703l-41.29 154.235h45.234l80.251-143.961-84.195-10.274z" fill="#B768B0"/><path d="M345.153 299.671s78.219 119.413 107.081 148.267h35.793s-43.382-117.076-47.804-152.697l-95.07 4.43z" fill="#B768B0"/><path d="M382.739 127.534s-63.938 18.026-80.968 19.195c0 0-2.39-13.72-7.111-79.794h-9.441s-15.835 77.948-2.868 101.449c12.13 21.963 75.888 7.69 75.888 7.69l24.5-48.54z" fill="#FFB0B4"/><path d="M392.001 91.482c9.801 0 17.747-7.85 17.747-17.534 0-9.683-7.946-17.533-17.747-17.533-9.802 0-17.747 7.85-17.747 17.533 0 9.684 7.945 17.534 17.747 17.534z" fill="#36162C"/><path d="M400.725 57.646c0 3.63 2.988 6.583 6.633 6.583 3.705 0 6.633-2.953 6.633-6.583 0-3.63-2.988-6.583-6.633-6.583s-6.633 2.953-6.633 6.583z" fill="#36162C"/><path d="M444.645 280.599c-.658-43.311-8.426-132.21-8.426-132.21s-.896-12.981-13.385-17.165c-3.645-1.23-16.791-3.691-16.791-3.691h-23.304s-23.066 3.199-28.384 18.887c-4.481 13.104-15.357 101.634-18.643 135.04-.538 7.075 1.195 13.227 9.501 18.21 11.054 6.03 45.891 13.966 86.943 1.785 12.489-4.861 12.489-19.011 12.489-20.856z" fill="#FFB0B4"/><path d="M434.128 141.253s24.619 68.35 89.931 124.95l-7.888 10.766s-55.512-26.023-76.008-60.537c-19.062-32.053-10.218-77.271-6.035-75.179z" fill="#FFB0B4"/><path d="M378.914 131.902s1.674-21.717 2.51-37.22l18.345-1.231s3.944 21.532 9.919 34.759c0 0-20.257 11.074-30.774 3.692z" fill="#E4B69E"/><path d="M400.008 71.55h-21.213v27.5h21.213v-27.5z" fill="#E4B69E"/><path d="M378.795 71.61s-7.589 19.442-5.497 29.839c1.852 9.044 16.193 6.583 20.137-2.153 3.944-8.675 4.302-28.485-14.64-27.685z" fill="#E4B69E"/><path d="M380.647 107.11s6.275.43 10.697-4.676c0 0 .119 16.303-11.414 15.134l.717-10.458z" fill="#8F7168"/><path d="M388.953 364.023l-12.548-17.657s-2.689 22.579 5.198 30.761l7.35-13.104z" fill="#803679"/><path d="M441.597 218.707s-11.592-15.072-13.982-21.225c0 0 2.688 24.363 14.998 36.852l-1.016-15.627z" fill="#36162C"/><path d="M425.703 194.102c-.18.123 1.254 3.138 2.927 6.276 1.674 3.137 3.646 6.336 4.064 7.074.418.677 2.271 3.692 4.183 6.46 1.912 2.769 3.824 5.168 3.943 5.107.18-.123-1.553-2.707-3.406-5.476-1.852-2.768-3.704-5.721-4.123-6.46-.418-.676-2.39-3.937-4.123-7.013-1.673-3.138-3.286-6.091-3.465-5.968zm-75.053-31.5c.239.062.777-4.306 1.673-8.797.479-2.277 1.076-4.553 1.674-6.337.597-1.784 1.195-3.138 1.434-3.63.239-.492.836-1.722 1.792-3.199.956-1.476 2.331-3.199 3.884-4.614 1.554-1.415 3.287-2.522 4.661-3.138 1.375-.615 2.331-.923 2.271-.984 0-.123-1.016 0-2.45.554-1.434.553-3.286 1.599-4.9 3.014-1.613 1.415-3.047 3.199-4.063 4.737-1.016 1.538-1.614 2.83-1.853 3.323-.239.492-.836 1.845-1.493 3.691-.658 1.846-1.255 4.183-1.674 6.46-.776 4.491-1.135 8.859-.956 8.92zm91.246 170.723c.12-.184-2.988-1.845-5.975-3.998-1.494-1.046-2.928-2.277-4.064-3.323a28.006 28.006 0 01-2.151-2.337c-.299-.308-.956-1.231-1.733-2.461a20.581 20.581 0 01-2.091-4.491c-.538-1.661-.837-3.323-.896-4.553-.12-1.23-.06-2.092-.18-2.092-.119 0-.298.8-.298 2.092s.239 3.015.776 4.737c.538 1.723 1.315 3.384 2.151 4.676.777 1.292 1.494 2.215 1.793 2.522.239.369 1.076 1.292 2.211 2.4a31.038 31.038 0 004.183 3.383c3.047 2.153 6.214 3.63 6.274 3.445zm-71.825-20.488c-.179-.062-.837 2.891-.897 6.029-.119 3.138.299 6.46.419 7.198.06.738.538 3.814 1.494 6.644.896 2.83 2.151 5.291 2.27 5.168.239-.123-.836-2.584-1.613-5.414-.837-2.768-1.315-5.783-1.434-6.521-.12-.677-.478-3.937-.418-7.075 0-3.076.418-5.968.179-6.029zm8.724-241.225s-.896 3.26 2.091 3.26c2.988 0 8.605.862 10.458 4.799 1.912 3.937 3.107 10.212 8.664 9.843l.538-19.071c.059.061-21.631-.37-21.751 1.169z" fill="#36162C"/><path d="M396.064 77.948s3.107-2.215 5.019.615c1.614 2.338-.418 7.69-6.632 6.645 0 .061-1.076-3.692 1.613-7.26z" fill="#E4B69E"/><path d="M402.936 87.729s-2.868 7.69-1.554 13.412c0 0-4.661-4.676-3.346-11.75l4.9-1.662z" fill="#36162C"/><path d="M284.322 54.447c.12-.677.897-3.507 1.972-5.968.299-.738.598-1.415.897-2.03v-.062c.777-1.661 1.374-2.338 1.733-2.584.059-.123.179-.184.239-.184.597.123-.538 5.229-.598 5.844-.06.246-.179 1.292-.418 2.338.06-.062.119-.123.239-.123.299-.185.597-.185.717-.185.179-.061 1.195-.061 1.793.554a.957.957 0 01.358.492l.06-.061c.538-.554 1.374-.677 1.494-.615.179 0 .956 0 1.494.43.059 0 .059.062.119.062.239-1.23.478-2.338.478-2.646.06-.307.239-1.722.418-3.076.18-1.292.359-2.584.718-2.584h.059c.299 0 1.076 2.584 1.255 5.353.239 2.83-.06 5.906-.179 6.521-.06.37-.179 1.477-.418 2.83.537-.43 1.135-.738 1.314-.8.179-.061.896-.43 1.614-.492.717-.123 1.434 0 1.434.308 0 .061 0 .123-.06.184-.12.37-.777 1.108-1.494 1.907-.837.985-1.733 2.03-1.972 2.277-.179.246-1.135 1.415-1.972 2.522-.836 1.107-1.494 2.092-1.912 2.092h-7.828a2.336 2.336 0 01-.538-.554c-.179-.184-.478-.677-.776-1.415-.419-.984-.718-2.4-.837-3.876-.239-2.768.478-5.844.597-6.46z" fill="#E4B69E"/><path d="M517.366 275.248l5.498-7.444c.119-.246 2.629.861 5.139 2.461 2.509 1.538 4.9 3.568 5.437 4.06.538.492 3.048 2.707 5.02 5.291 1.972 2.522 3.286 5.229 3.047 5.414v.061c-.179.185-1.493-1.046-2.808-2.338a58.592 58.592 0 00-3.107-2.953c-.359-.307-3.466-2.522-3.287-2.337 1.374 1.292 2.749 2.707 3.048 3.076.298.369 1.732 1.907 2.928 3.568 1.195 1.661 2.091 3.322 1.852 3.507l-.06.061c-.239.185-1.374-.984-2.629-2.153-1.255-1.23-2.749-2.276-3.107-2.522-.299-.246-2.092-1.538-3.586-2.584.06.061.12.123.12.184 1.255 1.477 2.809 3.138 3.048 3.507.298.369 1.673 2.03 2.748 3.814 1.076 1.784 1.972 3.446 1.733 3.569h-.06v.061c-.179.185-1.553-1.169-3.047-2.584-1.434-1.415-3.048-2.768-3.406-3.137a37.707 37.707 0 00-3.287-2.523c.777.923 1.434 1.723 1.614 1.969.239.307 1.434 1.784 2.33 3.261.956 1.476 1.614 3.076 1.315 3.199h-.06v.061c-.12.062-.538-.369-1.255-.984a55.388 55.388 0 00-2.808-2.215 172.293 172.293 0 00-5.02-3.568c-.538-.369-3.167-2.092-5.079-4.368-.956-1.169-1.673-2.461-2.032-3.507-.358-1.107-.358-1.846-.239-1.907z" fill="#C19A8A"/><path d="M210.824 313.575l107.081-1.846s-6.155 116.461-9.681 136.209h-40.991l-.12-89.145-12.787 89.145h-38.602s-5.737-108.216-4.9-134.363z" fill="#2D3D7B"/><path d="M228.751 129.073s-71.587-5.29-75.829-105.632h-10.935s-12.848 118.49 70.331 151.035l16.433-45.403z" fill="#5835BA"/><path d="M205.147 299.548c.12-45.218 9.203-149.989 9.203-149.989s.597-20.425 14.401-20.425h58.141s10.517 0 16.313 17.287c4.84 14.458 16.612 112.031 20.257 148.883.538 7.751-1.315 14.58-10.278 20.056-12.369 6.89-52.106 15.934-98.416.738-8.366-3.445-9.441-12.981-9.621-16.55z" fill="#5835BA"/><path d="M269.324 129.134s-4.661-21.963-6.752-38.635l-22.408.922s-1.016 16.55-1.793 37.652c0 .061 22.767 5.721 30.953.061z" fill="#E4B69E"/><path d="M241.837 65.89l23.005 1.6-1.971 29.776-22.946-1.538 1.912-29.838z" fill="#E4B69E"/><path d="M264.962 67.551s4.661 22.21.478 32.914c-3.585 9.29-18.524 3.937-21.153-6.152-2.629-10.09.538-31.253 20.675-26.762z" fill="#E4B69E"/><path d="M264.305 102.494s-4.96 6.583-14.461-.246c0 0 3.466 13.596 17.628 17.841 0-.061-2.689-14.334-3.167-17.595z" fill="#C19987"/><path d="M269.324 129.133s6.693 13.288 0 17.718c-6.692 4.368-26.053-2.276-30.953-17.718 0 0 21.034-3.015 30.953 0z" fill="#E4B69E"/><path d="M267.173 358.794l3.884-12.428s-.06 22.209-3.884 25.716v-13.288z" fill="#36162C"/><path d="M322.207 282.815l.896 8.736c-36.868.123-73.498-10.028-73.498-10.028s48.043 2.031 72.602 1.292z" fill="#402198"/><path d="M298.843 137.194s51.688 94.189 54.556 111.969c2.868 17.78-6.274 31.376-22.049 33.099-18.285 1.968-81.745-.739-81.745-.739v-11.566s38.9-13.042 73.618-14.888l-3.884.8s-21.333-32.853-26.471-43.373c-5.139-10.52-3.287-86.007 5.975-75.302z" fill="#5835BA"/><path d="M249.605 270.017c0 .061.598-.123 1.613-.492 1.016-.308 2.51-.739 4.303-1.292 3.585-1.046 8.485-2.338 13.504-3.569 5.02-1.23 10.218-2.461 14.461-3.383 4.243-.923 7.529-1.538 8.724-1.784 2.331-.431 12.489-2.4 22.169-3.138 2.39-.246 4.781-.554 6.992-.677 2.21-.123 4.242-.123 5.975 0 3.466.185 5.677.738 5.737.615 0-.061-.538-.246-1.494-.43-1.016-.185-2.391-.492-4.183-.615-1.733-.185-3.825-.247-6.035-.124-2.211.062-4.602.308-7.051.554-9.681.677-19.839 2.646-22.229 3.076-1.195.246-4.482.862-8.725 1.784a411.181 411.181 0 00-14.46 3.446c-5.02 1.292-9.919 2.645-13.445 3.752-1.793.554-3.287 1.046-4.243 1.477-1.075.431-1.613.738-1.613.8zm58.44-84.408c.12 0 .06-1.415-.119-3.507-.18-2.092-.478-4.922-.837-7.813-.717-5.783-1.792-11.874-2.091-13.227a275.873 275.873 0 00-2.57-12.366c-.597-2.645-1.314-5.229-1.852-7.075-.538-1.907-.956-3.076-1.016-3.076-.239.061 1.016 5.045 2.211 10.336 1.195 5.29 2.271 11.012 2.51 12.304.239 1.353 1.314 7.382 2.091 13.165.837 5.845 1.434 11.32 1.673 11.259zm-95.846-8.304c.179.062.597-1.23.717-2.707.179-1.476 0-3.014 0-3.322 0-.307-.18-1.784-.598-3.076-.359-1.292-1.016-2.399-1.135-2.338-.239.123.179 1.292.478 2.523.298 1.292.538 2.645.538 2.953.059.307.119 1.784.059 3.199-.06 1.415-.299 2.707-.059 2.768zm6.035 166.846c0 .123.777.123 1.972-.062 1.135-.184 2.748-.615 4.183-1.353 1.493-.738 2.928-1.661 4.003-2.584.538-.431.956-.861 1.315-1.231.358-.307.597-.615.717-.738.538-.553 2.749-3.137 3.824-6.09.598-1.477.896-2.953 1.076-4.122.119-1.108.119-1.846 0-1.846-.12 0-.299.738-.478 1.784-.299 1.046-.598 2.523-1.255 3.876-1.136 2.83-3.227 5.352-3.765 5.906-.119.123-.358.431-.717.738-.358.308-.777.739-1.314 1.169-1.016.923-2.391 1.784-3.825 2.523-1.434.738-2.928 1.23-4.003 1.538-1.016.184-1.733.369-1.733.492zm57.484-10.644c.179.061.657-.923.956-2.031.358-1.107.538-2.337.597-2.584.06-.246.239-1.415.359-2.46.06-1.108.06-2.092-.119-2.092-.239 0-.359.984-.538 2.03-.12 1.046-.299 2.153-.359 2.399s-.299 1.415-.538 2.523c-.298 1.107-.537 2.153-.358 2.215zm-6.454-175.46c.419-.123-.239-2.523-.298-2.83-.06-.308-.538-2.584-.897-2.461-.478.123.12 2.338.18 2.645.119.308.597 2.707 1.015 2.646zm6.813 69.704c.119 0 .179-1.846.179-4.737 0-2.83-.06-6.706-.239-10.643-.299-7.937-1.016-16.242-1.195-18.088-.18-1.845-.897-9.659-1.972-16.98-.478-3.691-1.076-7.198-1.554-9.843-.478-2.646-.836-4.307-.896-4.307-.12 0 .119 1.723.478 4.368.358 2.646.896 6.153 1.374 9.844.956 7.321 1.733 15.134 1.912 16.918.18 1.846.897 10.151 1.255 18.026.18 3.937.299 7.752.419 10.643.059 2.953.119 4.799.239 4.799zM264.962 67.55s-.179 5.229-3.705 6.275c-3.525 1.046-10.815-.554-15.118-6.276 0 0 .777 11.259-5.198 12.674 0 0-2.749-17.534 0-20.856 4.421-5.29 25.575-1.046 24.021 8.182z" fill="#36162C"/><path d="M244.526 73.087s-3.167-2.645-5.498.308c-1.912 2.46-.059 8.367 6.693 7.69.06 0 1.434-3.937-1.195-7.998zm19.301 0s3.167-2.645 5.497.308c1.912 2.46.06 8.367-6.692 7.69-.06 0-1.435-3.937 1.195-7.998z" fill="#E4B69E"/><path d="M264.962 67.55s.12 3.261.777 4.184c0 0 1.314-3.506-.777-6.029v1.846z" fill="#36162C"/><path d="M141.568 11.997c.239-.431.598-.8 1.016-1.046a1.512 1.512 0 011.255-.062c.119.062.239.123.358.246 0-.123.06-.246.12-.43.179-.37.418-.739.717-.985s.538-.307.657-.369c.12-.061.359-.123.717-.061.359 0 .777.184 1.076.43.119-.369.299-.676.538-.922.239-.246.478-.37.597-.431.18-.123 1.016-.43 1.733-.185.06 0 .12.062.18.062.059-.8.059-1.477.119-1.661 0-.37.06-1.969.119-3.568.06-1.354.18-2.646.419-2.953 0 0 0-.062.06-.062h.119c.06 0 .06.062.12.185.179.246.418.676.717 1.353.418.984.896 2.338 1.195 3.753.717 2.891.717 6.029.717 6.706 0 .676 0 3.63-.658 6.336-.537 2.707-1.673 5.107-1.971 4.922h-8.486c-.298.123-1.015-1.415-1.553-3.199-.299-.861-.478-1.846-.598-2.584-.119-.8-.119-1.415-.119-1.6 0-.245-.06-2.214.836-3.875zm94.353 261.896c0-.123-.119-.738.179-1.292.12-.307.359-.492.538-.615-.119-.184-.239-.369-.239-.615-.06-.369 0-.861.239-1.292.179-.431.658-.861 1.136-1.107 1.015-.493 2.031-.493 2.808-.493.777 0 1.374.062 1.613.062.419 0 2.271.123 4.004.431 1.733.307 3.585.799 3.526 1.23v10.151c0 .308-.12.554-.718.985-.537.43-1.434.922-2.39 1.23-1.912.615-4.063.492-4.541.431-.239 0-.837-.062-1.613-.246-.777-.124-1.733-.37-2.57-.985-.418-.307-.777-.738-.956-1.169-.179-.43-.299-.738-.239-1.107a1.68 1.68 0 01.299-.738c-.239 0-.478-.37-.658-.677-.298-.492-.239-1.046-.239-1.169s0-.677.299-1.107c.12-.123.239-.247.359-.308-.12-.062-.18-.185-.239-.308-.538-.553-.598-1.169-.598-1.292z" fill="#E4B69E"/><path d="M133.92 94.867s21.75 13.719 16.492 32.36l-14.102-2.891s-4.422-12.674-6.454-24.178l4.064-5.291z" fill="#36162C"/><path d="M171.924 311.976l55.392 135.962h-56.707s-67.583-106.124-92.142-135.962h93.457z" fill="#B768B0"/><path d="M63.23 308.656L45.064 447.941H97.35s31.251-101.634 42.306-134.794l-76.426-4.491z" fill="#B768B0"/><path d="M58.33 293.459c3.585-36.851 12.728-134.486 17.687-148.882 4.96-14.458 16.313-17.288 16.313-17.288l15.477-3.506h25.575l17.09 3.506c13.564 2.83 14.401 20.426 14.401 20.426s12.07 104.463 11.771 147.651c-.059 2.031 1.255 13.781-6.393 17.78-36.391 14.765-90.051 5.66-102.719-1.353-7.768-4.492-9.8-10.582-9.202-18.334z" fill="#FFB0B4"/><path d="M86.892 129.874S6.642 175.892.845 202.531c-7.11 32.606 49 80.778 49 80.778l8.425-9.044s-27.428-51.186-36.51-66.197l3.465 6.644s42.606-14.211 51.629-30.022c8.305-14.581 14.34-49.956 10.038-54.816z" fill="#FFB0B4"/><path d="M136.609 125.198s-6.813-21.225-8.784-36.544l-21.154.246s.18 23.686-1.195 35.375c.06-.061 23.603 6.152 31.133.923z" fill="#E3966B"/><path d="M107.109 94.408l21.16-1.545-1.89-27.432-21.16 1.546 1.89 27.431z" fill="#E3966B"/><path d="M126.39 65.522s8.964 18.825 7.53 29.346c-1.196 9.105-15.716 7.751-20.257-.677-4.482-8.367-6.215-28.054 12.727-28.669z" fill="#E3966B"/><path d="M129.916 100.159s-5.498 2.338-10.577-.062c0 0 1.554 11.997 12.967 9.905l-2.39-9.843z" fill="#AD7153"/><path d="M139.656 125.013s-.299 6.706-8.545 9.536c-9.68 3.322-26.232-.739-28.025-9.782l2.51-.554 30.773.123 3.287.677z" fill="#E3966B"/><path d="M162.482 137.994s15.118 48.971 22.528 98.127c0 0-6.215-22.825-8.425-100.403h11.174s23.902 62.383 22.766 107.97c-1.075 43.434-28.981 40.666-34.419 32.299l-13.624-137.993z" fill="#FFB0B4"/><path d="M120.176 370.483s8.067-23.501 10.218-29.961c0 0 3.406 28.3-1.434 43.435l-8.784-13.474z" fill="#7F3679"/><path d="M68.608 193.363s1.673-1.353 8.246-8.736c0 0-4.183 29.653-11.115 34.329l2.868-25.593zm118.374 52.415c.179-.061-.598-3.876-1.375-7.998-.776-4.121-1.493-8.428-1.613-9.412-.179-.923-.777-5.045-1.255-8.921-.538-3.876-.896-7.506-1.075-7.506-.239 0 0 3.692.418 7.568.418 3.875 1.076 7.997 1.255 8.92.119.985.836 5.353 1.673 9.413.777 4.183 1.733 7.998 1.972 7.936zm-22.169-98.064c-.06 0 0 .923.179 2.522.179 1.661.359 3.938.657 6.768.538 5.66 1.196 13.165 1.913 20.978 1.374 15.565 2.808 32.053 3.107 35.683.299 3.63 1.613 19.072 2.808 33.652.598 7.26 1.255 14.335 1.673 19.626.24 2.584.419 4.737.598 6.275.06.738.12 1.292.179 1.722.06.431.06.616.12.616s.06-.862-.06-2.4c-.06-1.538-.239-3.691-.418-6.336-.359-5.23-.897-12.305-1.494-19.626-1.135-14.58-2.45-30.084-2.809-33.714-.298-3.629-1.673-20.117-3.167-35.682-.717-7.813-1.493-15.38-2.151-20.979-.358-2.83-.597-5.106-.836-6.706-.12-1.538-.239-2.399-.299-2.399z" fill="#36162C"/><path d="M69.982 191.887c.12.185 1.733-1.107 3.286-2.707 1.554-1.599 2.869-3.506 3.167-3.875.3-.431 1.554-2.215 2.51-4.061.956-1.845 1.614-3.691 1.494-3.753-.239-.123-1.076 1.661-2.091 3.384-1.016 1.784-2.211 3.568-2.51 3.937a49.854 49.854 0 01-3.107 3.876c-1.434 1.6-2.928 3.015-2.75 3.199zm-52.106 11.812c-.18.123 1.195 1.784 2.569 3.63a172.945 172.945 0 013.047 4.245 58.12 58.12 0 012.57 4.183c1.076 1.846 2.032 3.63 2.21 3.568.24-.123-.597-1.968-1.612-3.876-1.016-1.907-2.271-3.814-2.57-4.306-.299-.431-1.673-2.461-3.107-4.307-1.434-1.722-2.988-3.26-3.107-3.137zm49.477 143.406c0 .123.956-.062 2.27-.492a24.397 24.397 0 004.84-2.215 31.185 31.185 0 004.602-3.322 20.129 20.129 0 001.553-1.477l.897-.922c.657-.677 3.286-3.63 4.96-7.075.896-1.662 1.493-3.384 1.852-4.676.358-1.292.478-2.153.418-2.215-.12-.061-.418.8-.837 2.03-.478 1.231-1.135 2.892-2.031 4.491-1.673 3.261-4.243 6.214-4.84 6.891-.12.184-.419.492-.837.861s-.896.923-1.554 1.415c-1.195 1.107-2.808 2.276-4.481 3.261-1.673 1.046-3.347 1.784-4.661 2.338-1.315.615-2.151.984-2.151 1.107zm60.113-205.85c-1.076 0-1.314 1.969-.239 2.215 1.016.246 1.673-1.661.717-2.092m-.06 6.951c-.896-.062-1.553 1.107-1.135 1.907.418.799 1.673.861 2.151.061.478-.738-.179-1.968-1.016-1.968zm.478 7.321c-.776-.307-1.673.493-1.494 1.292.12.8 1.255 1.231 1.853.677.597-.492.418-1.722-.359-1.969zm-1.972-90.128s-2.569 4.245-9.62 4.921c0 0-3.346 11.259-10.637 9.475 0 0-3.704-20.61-.537-22.148 3.107-1.538 24.439-2.276 20.794 7.752z" fill="#36162C"/><path d="M104.341 62.445s-1.315 23.624-10.816 44.049c-7.947 17.042-7.648 27.439.24 33.591 7.887 6.152 26.411 4.183 23.662-13.473-2.748-17.657-8.963-29.284-7.648-46.203 1.255-16.918-5.438-17.964-5.438-17.964z" fill="#36162C"/><path d="M109.659 73.09s-3.227-1.97-4.96.983c-1.434 2.461.957 7.69 7.052 6.153 0 0 .776-3.753-2.092-7.137z" fill="#E3966B"/><path d="M50.562 282.384l6.752-7.26h.06c.12-.061.418.431.836 1.169.418.739 1.016 1.723 1.733 2.646 1.434 1.907 3.346 3.506 3.765 3.876.418.369 2.569 1.968 4.78 3.137 2.21 1.231 4.422 1.969 4.362 2.276l-.06.062v.061c0 .247-1.434.493-2.988.431-1.553-.061-3.167-.369-3.525-.492a25.52 25.52 0 01-3.047-.861c1.314.984 2.688 1.845 3.047 2.03.358.184 2.091 1.107 3.824 1.661 1.733.615 3.406.984 3.347 1.292l-.06.061s.06 0 .06.062c.06.246-1.673.8-3.645.861-1.972.123-4.004-.307-4.482-.43-.478-.123-2.689-.616-4.422-1.846a8.733 8.733 0 01-.777-.554c.06.062.06.123.12.123 1.075 1.292 2.51 2.4 2.808 2.646.359.246 1.912 1.353 3.526 2.153 1.613.861 3.167 1.538 3.107 1.846h-.06v.061c-.06.246-1.733.062-3.525-.184a34.827 34.827 0 01-4.123-.862 15.522 15.522 0 01-1.614-.553 21.265 21.265 0 01-2.51-1.415c-.179-.123-.358-.308-.537-.431.717 1.353 1.733 2.584 2.032 2.83.239.308 1.434 1.538 2.808 2.461 1.314.984 2.749 1.599 2.689 1.907h-.06v.061c0 .124-.717.124-1.733-.123a15.251 15.251 0 01-3.704-1.476c-1.255-.738-2.51-1.723-3.347-2.646-.896-.922-1.494-1.722-1.673-2.03-.239-.307-.837-1.169-1.494-2.338-.657-1.168-1.314-2.707-1.793-4.245-.836-2.891-.776-5.967-.477-5.967z" fill="#FFBCB2"/><path d="M57.852 274.635h2.27l-.418 4.183s-2.21-2.83-2.749-3.26l.897-.923z" fill="#FFBCB2"/><path d="M175.748 124.028c.06-.676.478-3.445 1.076-5.967.358-1.538.717-3.015 1.075-3.876.12-.554.299-.923.478-.923h.12c.059 0 .059.062.059.123.18.369.239 1.354.239 2.338.06 1.292.18 2.584.18 2.892 0 .307.239 1.538.418 2.707 0 .123.06.184.06.307.239-.369.597-.677.956-.8.418-.184.777-.246.896-.184.12 0 .478 0 .897.123.418.123.836.43 1.135.861.06.062.119.123.119.246.239-.369.598-.677.956-.8.359-.184.717-.184.837-.184s.418 0 .837.123c.358.123.776.431 1.015.8.06.061.06.123.12.184 0-.184.06-.369.06-.553.179-1.354.358-2.707.358-2.953 0-.308.12-1.538.239-2.83.12-1.108.239-2.154.538-2.338h.12c.059 0 .119.061.179.246.179.246.418.677.657 1.23.359.985.777 2.338.956 3.753.418 2.892.12 5.906.06 6.583-.06.677-.418 3.507-1.135 6.029-.718 2.584-1.674 4.614-2.032 4.614h-9.86c-.119.062-.537-.492-.896-1.415-.418-.923-.717-2.338-.837-3.753-.418-2.953 0-5.906.12-6.583z" fill="#E3966B"/></svg>