<svg width="72" height="74" fill="none" xmlns="http://www.w3.org/2000/svg"><g filter="url(#filter0_d)"><path d="M34 56v-6a1 1 0 012 0v6a1 1 0 01-2 0zm0-36v-6a1 1 0 012 0v6a1 1 0 01-2 0zm-11.51 3.49c-.59 0-.46 0-5.08-4.66a1.004 1.004 0 111.42-1.42l4.37 4.37a1 1 0 01-.71 1.71zm29.39 29.39c-.59 0-.46-.05-5.08-4.66a1.004 1.004 0 011.42-1.42l4.37 4.37a1 1 0 01-.71 1.71zm-33.76 0a1 1 0 01-.71-1.71l4.37-4.37a1.004 1.004 0 011.42 1.42c-4.59 4.59-4.49 4.66-5.08 4.66zm29.39-29.39a1 1 0 01-.71-1.71l4.37-4.37a1.003 1.003 0 111.42 1.42c-4.59 4.59-4.49 4.66-5.08 4.66z" fill="#939496"/><path d="M35 47.33c13.895 0 25.16-5.52 25.16-12.33 0-6.81-11.264-12.33-25.16-12.33-13.895 0-25.16 5.52-25.16 12.33 0 6.81 11.265 12.33 25.16 12.33z" fill="#F0F7FC"/><path d="M35 47c6.627 0 12-5.373 12-12s-5.373-12-12-12-12 5.373-12 12 5.373 12 12 12z" fill="url(#paint0_linear)"/><path d="M38.61 28.58A5.42 5.42 0 0134.09 31H33v6h1.09a5.42 5.42 0 014.52 2.42A1.31 1.31 0 0041 38.7v-9.4a1.31 1.31 0 00-2.39-.72zM33 37h-2a3 3 0 010-6h2v6z" fill="#E2E8EF"/><path d="M33 42c-.89 0-.81-.33-2.93-5.63a1 1 0 011.326-1.29 1.001 1.001 0 01.534.55l2 5A1.001 1.001 0 0133 42z" fill="#E2E8EF"/><path d="M16 57a3 3 0 100-6 3 3 0 000 6zm38 0a3 3 0 100-6 3 3 0 000 6zM16 19a3 3 0 100-6 3 3 0 000 6zm38 0a3 3 0 100-6 3 3 0 000 6zM35 62a3 3 0 100-6 3 3 0 000 6zm0-48a3 3 0 100-6 3 3 0 000 6z" fill="#5835BA"/></g><defs><linearGradient id="paint0_linear" x1="23" y1="35" x2="47" y2="35" gradientUnits="userSpaceOnUse"><stop stop-color="#5835BA"/><stop offset="1" stop-color="#75196B"/></linearGradient><filter id="filter0_d" x="-6" y="-5" width="84" height="84" filterUnits="userSpaceOnUse" color-interpolation-filters="sRGB"><feFlood flood-opacity="0" result="BackgroundImageFix"/><feColorMatrix in="SourceAlpha" values="0 0 0 0 0 0 0 0 0 0 0 0 0 0 0 0 0 0 127 0"/><feOffset dx="1" dy="2"/><feGaussianBlur stdDeviation="5"/><feColorMatrix values="0 0 0 0 0.560784 0 0 0 0 0.431373 0 0 0 0 0.713726 0 0 0 0.2 0"/><feBlend in2="BackgroundImageFix" result="effect1_dropShadow"/><feBlend in="SourceGraphic" in2="effect1_dropShadow" result="shape"/></filter></defs></svg>