<svg width="37" height="56" fill="none" xmlns="http://www.w3.org/2000/svg"><g filter="url(#filter0_d)"><path d="M16.961 8c-3.6 0-5.376 1.104-7.632 3.072-.384.288-.432.624-.144 1.008l.816 1.2c.288.336.624.48 1.056.144 1.968-1.68 3.456-2.448 5.808-2.448 3.792 0 5.52 2.352 5.52 4.992 0 2.784-2.16 4.272-4.32 5.952-2.016 1.584-4.464 3.936-4.464 8.736v.048l.048 3.456c0 .48.24.72.72.72h1.68c.48 0 .72-.24.72-.72l.048-3.456v-.048c0-3.792 1.152-5.04 3.408-6.72 2.544-1.872 5.664-4.368 5.664-7.92C25.89 9.776 20.993 8 16.961 8zm-1.728 31.104c-1.344 0-2.4.768-2.4 2.208 0 1.632 1.056 2.208 2.4 2.208 1.296 0 2.352-.576 2.352-2.208 0-1.44-1.056-2.208-2.352-2.208z" fill="#5835BA"/></g><defs><filter id="filter0_d" x="0" y="0" width="36.889" height="55.52" filterUnits="userSpaceOnUse" color-interpolation-filters="sRGB"><feFlood flood-opacity="0" result="BackgroundImageFix"/><feColorMatrix in="SourceAlpha" values="0 0 0 0 0 0 0 0 0 0 0 0 0 0 0 0 0 0 127 0"/><feOffset dx="1" dy="2"/><feGaussianBlur stdDeviation="5"/><feColorMatrix values="0 0 0 0 0.560784 0 0 0 0 0.431373 0 0 0 0 0.713726 0 0 0 0.2 0"/><feBlend in2="BackgroundImageFix" result="effect1_dropShadow"/><feBlend in="SourceGraphic" in2="effect1_dropShadow" result="shape"/></filter></defs></svg>