<svg width="76" height="77" fill="none" xmlns="http://www.w3.org/2000/svg"><g filter="url(#filter0_d)"><path d="M37 48c6.075 0 11-4.925 11-11s-4.925-11-11-11-11 4.925-11 11 4.925 11 11 11z" fill="url(#paint0_linear)"/><path d="M35.85 64a1 1 0 112 0 1 1 0 01-2 0zm-3.14.68a1 1 0 111.14-.83 1 1 0 01-1.14.82v.01zm-4-.93a1 1 0 01.59-1.91 1 1 0 11-.62 1.9l.03.01zm-3.86-1.53a1.002 1.002 0 11.88-1.8 1.002 1.002 0 01-.88 1.8z" fill="#5835BA"/><path d="M36.29 9.29a1.004 1.004 0 111.42 1.42 1.004 1.004 0 01-1.42-1.42z" fill="#4795EA"/><path d="M44.68 12.15A1 1 0 0144 10.9a1.001 1.001 0 011.91.6 1 1 0 01-1.23.65zm-3.79-.86a1 1 0 01-.84-1.14 1.011 1.011 0 012 .3c.1 0-.22.85-1 .85h-.14l-.02-.01zm7.85 2.4a1 1 0 11-.023-2.002 1 1 0 01.023 2.002zm12.2 35.82a1 1 0 11.844-1.812 1 1 0 01-.844 1.812zm1.6-3.67a1 1 0 01.58-1.91 1.001 1.001 0 01.67 1.25 1 1 0 01-1.25.66zm1-3.86a1 1 0 111.14-.85c-.06.5-.39.87-1.12.87l-.02-.02zM63 37a1 1 0 112 0 1 1 0 01-2 0zm-53 .85a1 1 0 111-1c.1 0-.12 1-1 1zm.17-4a1 1 0 11.01 0h-.01zm.76-3.92a1 1 0 11.758-.067 1 1 0 01-.768.067h.01zm1.33-3.77a1 1 0 111.102-.145 1.002 1.002 0 01-1.112.145h.01z" fill="#5835BA"/><path d="M37 39a4 4 0 01-4-4v-2a4 4 0 118 0v2a4 4 0 01-4 4z" fill="#E2E8EF"/><path d="M44.48 46.39a12 12 0 01-15 0l.3-1.51c1.58-7.84 12.81-7.78 14.36 0l.34 1.51z" fill="#E2E8EF"/><path d="M37 24c-12.27 0-17.68 15.52-8.1 23.17a13 13 0 0016.2 0C54.69 39.52 49.26 24 37 24zm6.85 21.61a11 11 0 01-13.71 0C22 39.1 26.64 26 37 26s15 13.12 6.85 19.61z" fill="#E2E8EF"/><path d="M37 55a18 18 0 110-36.001A18 18 0 0137 55zm0-34c-15 0-21.8 19.06-10 28.52a16 16 0 0019.94 0C58.8 40.06 52 21 37 21z" fill="#F0F7FC"/><path d="M37 65a1 1 0 010-2 25.76 25.76 0 0014.66-4.54 1 1 0 011.14 1.64A27.71 27.71 0 0137 65zM21.77 15.72a1 1 0 01-.57-1.82A27.71 27.71 0 0137 9a1 1 0 110 2c-9.52 0-14.26 4.72-15.23 4.72zM63 37a25.76 25.76 0 00-4.54-14.66 1 1 0 011.64-1.14A27.71 27.71 0 0165 37a1 1 0 11-2 0zM13.9 52.8A27.71 27.71 0 019 37a1 1 0 112 0 25.76 25.76 0 004.54 14.66 1 1 0 01-1.64 1.14z" fill="#5835BA"/><path d="M36 25v-7a1 1 0 012 0v7a1 1 0 01-2 0z" fill="#231F20"/><path d="M36 25v-7a1 1 0 012 0v7a1 1 0 01-2 0zm0 31v-7a1 1 0 012 0v7a1 1 0 01-2 0z" fill="#F0F7FC"/><path d="M18 37h7" stroke="#231F20" stroke-width="2" stroke-linecap="round" stroke-linejoin="round"/><path d="M25 38h-7a1 1 0 010-2h7a1 1 0 010 2zm31 0h-7a1 1 0 010-2h7a1 1 0 010 2z" fill="#F0F7FC"/><path d="M56 23a5 5 0 100-10 5 5 0 000 10zm0 38a5 5 0 100-10 5 5 0 000 10zm-38 0a5 5 0 100-10 5 5 0 000 10zm0-38a5 5 0 100-10 5 5 0 000 10z" fill="#5835BA"/></g><defs><linearGradient id="paint0_linear" x1="26" y1="37" x2="48" y2="37" gradientUnits="userSpaceOnUse"><stop stop-color="#5835BA"/><stop offset="1" stop-color="#75196B"/></linearGradient><filter id="filter0_d" x="-4" y="-3" width="84" height="84" filterUnits="userSpaceOnUse" color-interpolation-filters="sRGB"><feFlood flood-opacity="0" result="BackgroundImageFix"/><feColorMatrix in="SourceAlpha" values="0 0 0 0 0 0 0 0 0 0 0 0 0 0 0 0 0 0 127 0"/><feOffset dx="1" dy="2"/><feGaussianBlur stdDeviation="5"/><feColorMatrix values="0 0 0 0 0.560784 0 0 0 0 0.431373 0 0 0 0 0.713726 0 0 0 0.2 0"/><feBlend in2="BackgroundImageFix" result="effect1_dropShadow"/><feBlend in="SourceGraphic" in2="effect1_dropShadow" result="shape"/></filter></defs></svg>