<svg width="70" height="70" fill="none" xmlns="http://www.w3.org/2000/svg"><g filter="url(#filter0_d)"><path d="M40 43l-4 4h14v5a6 6 0 01-6 6H24a6 6 0 01-6-6V35h7a4 4 0 004-4v-8l4-4H18v-5a6 6 0 016-6h20a6 6 0 016 6v18h-6a4 4 0 00-4 4v7z" fill="url(#paint0_linear)"/><path d="M40 43l-4 4h10v5a2 2 0 01-2 2H24a2 2 0 01-2-2V35h3a4 4 0 004-4v-8l4-4H22v-5a2 2 0 012-2h4c.47.91.84 2 2.24 2 9.16 0 8.47.52 9.76-2h4a2 2 0 012 2v18h-2a4 4 0 00-4 4v7z" fill="#F0F7FC"/><path d="M33 19l-4 4v8a4 4 0 01-4 4H13a4 4 0 01-4-4v-8a4 4 0 014-4h20z" fill="url(#paint1_linear)"/><path d="M59 36v7a4 4 0 01-4 4H36l4-4v-7a4 4 0 014-4h11a4 4 0 014 4z" fill="#5835BA"/><path d="M22.13 29.17l-3.25 2.58-3.25-2.58c-4.51-3.59.94-7.39 3.14-4.28.18.21 0 .21.23 0 2.18-3.09 7.66.68 3.13 4.28zM54 38h-9a1 1 0 010-2h9a1 1 0 010 2zm0 5h-9a1 1 0 010-2h9a1 1 0 010 2z" fill="#E2E8EF"/></g><defs><linearGradient id="paint0_linear" x1="18" y1="33" x2="50" y2="33" gradientUnits="userSpaceOnUse"><stop stop-color="#5835BA"/><stop offset="1" stop-color="#75196B"/></linearGradient><linearGradient id="paint1_linear" x1="9" y1="27" x2="33" y2="27" gradientUnits="userSpaceOnUse"><stop stop-color="#FE9661"/><stop offset="1" stop-color="#FFB369"/></linearGradient><filter id="filter0_d" x="-7" y="-7" width="84" height="84" filterUnits="userSpaceOnUse" color-interpolation-filters="sRGB"><feFlood flood-opacity="0" result="BackgroundImageFix"/><feColorMatrix in="SourceAlpha" values="0 0 0 0 0 0 0 0 0 0 0 0 0 0 0 0 0 0 127 0"/><feOffset dx="1" dy="2"/><feGaussianBlur stdDeviation="5"/><feColorMatrix values="0 0 0 0 0.560784 0 0 0 0 0.431373 0 0 0 0 0.713726 0 0 0 0.2 0"/><feBlend in2="BackgroundImageFix" result="effect1_dropShadow"/><feBlend in="SourceGraphic" in2="effect1_dropShadow" result="shape"/></filter></defs></svg>