<svg width="646" height="505" fill="none" xmlns="http://www.w3.org/2000/svg"><path d="M572.44 134.328H273.342v1.723H572.44v-1.723zm22.256 31.877h-343.61v1.723h343.61v-1.723zm19.816 31.877H231.199v1.723h383.313v-1.723zm21.466 31.877H209.732v1.723h426.246v-1.723z" fill="#373B40"/><path d="M285.26 135.19h-1.723v31.877h1.723V135.19zm-28 31.948h-1.723v31.877h1.723v-31.877zm-24.338 31.877h-1.723v31.877h1.723v-31.877zm108.554-63.825h-1.723v31.877h1.723V135.19zm56.215 0h-1.723v31.877h1.723V135.19zm56.216 0h-1.724v31.877h1.724V135.19zm56.215 0h-1.723v31.877h1.723V135.19zm56.215 0h-1.723v31.877h1.723V135.19zm-254.872 31.948h-1.723v31.877h1.723v-31.877zm56.216 0h-1.723v31.877h1.723v-31.877zm56.215 0h-1.723v31.877h1.723v-31.877zm56.216 0h-1.723v31.877h1.723v-31.877zm56.215 0h-1.723v31.877h1.723v-31.877zm56.215 0h-1.723v31.877h1.723v-31.877zM285.26 199.015h-1.723v31.877h1.723v-31.877zm56.216 0h-1.723v31.877h1.723v-31.877zm56.215 0h-1.723v31.877h1.723v-31.877zm56.216 0h-1.724v31.877h1.724v-31.877zm56.215 0h-1.723v31.877h1.723v-31.877zm56.215 0h-1.723v31.877h1.723v-31.877z" fill="#373B40"/><path d="M375.004 160.893H75.906v1.723h299.098v-1.723zm22.185 31.876H53.579v1.723h343.61v-1.723zm19.887 31.877H33.763v1.723h383.313v-1.723zm21.466 31.949H12.296v1.723h426.246v-1.723z" fill="#373B40"/><path d="M87.824 161.754h-1.723v31.877h1.723v-31.877zm-28 31.949h-1.723v31.877h1.723v-31.877zM35.486 225.58h-1.723v31.877h1.723V225.58zm108.554-63.826h-1.723v31.877h1.723v-31.877zm56.215 0h-1.723v31.877h1.723v-31.877zm56.216 0h-1.724v31.877h1.724v-31.877zm56.215 0h-1.723v31.877h1.723v-31.877zm56.215 0h-1.723v31.877h1.723v-31.877zm-254.872 31.949h-1.723v31.877h1.723v-31.877zm56.216 0h-1.723v31.877h1.723v-31.877zm56.215 0h-1.723v31.877h1.723v-31.877zm56.216 0h-1.723v31.877h1.723v-31.877zm56.215 0h-1.723v31.877h1.723v-31.877zm56.216 0h-1.724v31.877h1.724v-31.877zM87.824 225.58h-1.723v31.877h1.723V225.58zm56.216 0h-1.723v31.876h1.723V225.58zm56.215 0h-1.723v31.876h1.723V225.58zm56.216 0h-1.723v31.876h1.723V225.58zm56.215 0h-1.723v31.876h1.723V225.58zm56.215 0h-1.723v31.876h1.723V225.58zm51.908 61.313H121.712v1.723h299.097v-1.723zm22.257 31.877H99.456v1.723h343.61v-1.723zm19.815 31.948H79.568v1.723h383.313v-1.723zm21.467 31.877H58.101v1.723h426.247v-1.723z" fill="#373B40"/><path d="M133.63 287.754h-1.724v31.877h1.724v-31.877zm-27.929 31.949h-1.723v31.877h1.723v-31.877zm-24.338 31.948H79.64v31.877h1.723v-31.877zm108.482-63.897h-1.723v31.877h1.723v-31.877zm56.215 0h-1.723v31.877h1.723v-31.877zm56.216 0h-1.723v31.877h1.723v-31.877zm56.215 0h-1.723v31.877h1.723v-31.877zm56.216 0h-1.723v31.877h1.723v-31.877zm-254.872 31.949h-1.723v31.877h1.723v-31.877zm56.215 0h-1.723v31.877h1.723v-31.877zm56.216 0h-1.724v31.877h1.724v-31.877zm56.215 0h-1.723v31.877h1.723v-31.877zm56.215 0h-1.723v31.877h1.723v-31.877zm56.216 0h-1.723v31.877h1.723v-31.877zM133.63 351.652h-1.724v31.877h1.724v-31.877zm56.215-.001h-1.723v31.877h1.723v-31.877zm56.215 0h-1.723v31.877h1.723v-31.877zm56.216 0h-1.723v31.877h1.723v-31.877zm56.215 0h-1.723v31.877h1.723v-31.877zm56.215 0h-1.723v31.877h1.723v-31.877z" fill="#373B40"/><path d="M142.532 401.19c.431-1.939.646-3.877.646-5.959 0-12.564-8.041-23.262-19.241-27.282 1.867-3.59 2.872-7.611 2.872-11.846 0-9.908-5.528-18.524-13.713-22.903.718-2.154 1.077-4.451 1.077-6.821 0-11.343-8.328-20.676-19.24-22.256a17.03 17.03 0 00.645-4.667c0-9.692-7.825-17.518-17.518-17.518-9.692 0-17.518 7.826-17.518 17.518 0 1.867.288 3.662.79 5.313-9.477 2.657-16.441 11.344-16.441 21.682 0 2.37.359 4.667 1.077 6.821-8.113 4.379-13.713 12.995-13.713 22.902 0 4.308 1.077 8.329 2.872 11.847-11.2 4.02-19.241 14.646-19.241 27.282 0 2.01.215 4.02.646 5.959C6.983 407.795.665 418.78.665 431.272c0 20.031 16.226 36.328 36.329 36.328 1.148 0 2.297-.072 3.374-.144h78.185c1.148.072 2.225.144 3.374.144 20.031 0 36.328-16.226 36.328-36.328.072-12.564-6.174-23.549-15.723-30.082z" fill="#FFB0B4"/><path d="M545.517 129.877H416.573v323.795h128.944V129.877z" fill="#D4D0BE"/><path d="M539.271 136.339h-116.38v311.589h116.38V136.339z" fill="#D4D0BE"/><path d="M539.271 136.339h-116.38v139.928h116.38V136.339z" fill="#B768B0"/><path d="M545.517 114.154H416.573v8.256h128.944v-8.256z" fill="#D4D0BE"/><path d="M536.112 310.297H425.978v1.293h110.134v-1.293zm0-12.348H425.978v1.292h110.134v-1.292z" fill="#6B8387"/><path d="M372.778 486.41s26.277 1.293 35.036 3.734 14 3.374 8.903 6.246c-5.098 2.943-35.898 6.102-42.503 6.318 0 0-2.369 1.148-2.872-2.657-.574-3.877-2.441-14.718 1.436-13.641z" fill="#373B40"/><path d="M266.809 465.518h-24.554V182.646h164.554v282.872h-37.333" fill="#78949B"/><path d="M152.583 37.692a.95.95 0 01-.933.934.95.95 0 01-.933-.934.95.95 0 01.933-.933.95.95 0 01.933.933zM120.06 65.764a.934.934 0 10.001-1.867.934.934 0 00-.001 1.867zm261.334 15.58a.95.95 0 01-.934.933.95.95 0 01-.933-.933.95.95 0 01.933-.934c.575 0 .934.36.934.934zm-39.631-33.385a.933.933 0 100-1.867.933.933 0 000 1.867zM233.855 62.892a.95.95 0 01-.933.934.95.95 0 01-.933-.934.95.95 0 01.933-.933.95.95 0 01.933.933zm340.954-33.241a.933.933 0 100-1.865.933.933 0 000 1.865zM464.532.933a.95.95 0 01-.933.934.95.95 0 01-.934-.934.95.95 0 01.934-.933c.502 0 .933.359.933.933zm93.98 72.441a.95.95 0 01-.934.934.95.95 0 01-.933-.934.95.95 0 01.933-.933.95.95 0 01.934.933zm53.2-9.548a.95.95 0 01-.934.933.95.95 0 01-.933-.933.95.95 0 01.933-.934.95.95 0 01.934.934zm-3.59 65.046a.95.95 0 01-.934.933.95.95 0 01-.933-.933.95.95 0 01.933-.934c.575 0 .934.431.934.934zM400.347 29.651a.95.95 0 01-.933.933.95.95 0 01-.933-.933.95.95 0 01.933-.933.95.95 0 01.933.933zm-202.892.933a.933.933 0 100-1.865.933.933 0 000 1.865zm-14 42.79a.95.95 0 01-.933.934.95.95 0 01-.933-.934.95.95 0 01.933-.933.95.95 0 01.933.933zm-90.892 73.662a.95.95 0 01-.933.933.95.95 0 01-.934-.933.95.95 0 01.934-.933.95.95 0 01.933.933zm47.6-14.646a.934.934 0 10-.001-1.867.934.934 0 00.001 1.867z" fill="#373B40"/><path d="M353.896 168.503l17.518 334.205m-107.549-95.99l102.308-3.087m-106.184-70.718l102.379-3.087m-105.969-65.693l102.308-3.015M252.522 191.19l102.308-3.016m-87.231 282.585l102.307-3.087" stroke="#E9E9E9" stroke-miterlimit="10"/><path d="M242.255 465.518l-44.8-11.559V185.805l44.8-3.159v282.872z" fill="#6B8387"/><path d="M157.824 143.302a12.848 12.848 0 01-3.302-3.517h-.287s-.072-.001-.072.071V140a18.79 18.79 0 001.723 3.877c-1.508-1.077-2.728-2.513-3.59-4.236-.072-.072-.143-.072-.215-.072-.072 0-.144.072-.072.216v.071c.718 1.867 1.58 3.662 2.656 5.313-1.005-.861-2.01-1.723-2.943-2.728h-.216s0 .072-.071.072v.071c.861 2.729 3.015 5.026 5.672 6.103-.79.144-1.58.072-2.442-.287-.215-.072-.358.143-.143.287 1.508 1.077 3.159 1.723 5.026 1.867.071 0 .071 0 .143-.072l3.231-2.8c.072-.072.072-.072.072-.144-.359-1.795-2.8-6.318-5.17-4.236zm-33.025-2.297s.861-.862 2.225-.431 1.58 3.949-2.225 3.877c0 0-.503-2.585 0-3.446z" fill="#E98870"/><path d="M191.281 173.384c-7.539-13.856-23.405-25.056-23.405-25.056l-1.364 1.22a217.767 217.767 0 00-3.016-2.512l-5.241 4.379c.933.79 1.867 1.867 2.872 3.015l-.79.718c7.18 7.898 15.867 26.564 15.867 26.564-14.359-6.389-33.385-10.984-33.385-10.984-.933 4.092 11.775 26.851 16.011 29.723 4.164 2.872 37.477 9.692 40.133 5.385 2.728-4.236-.144-18.524-7.682-32.452z" fill="#FFB0B4"/><path d="M158.83 200.523c2.297 1.579 13.641 4.379 23.692 5.887.215-4.308-13.282-11.128-20.103-20.461-6.748-9.262-19.6-15.077-19.6-15.077-.861 4.02 11.846 26.779 16.011 29.651z" fill="#EC8A92"/><path d="M167.373 246.759l-38.625 8.543-17.59 79.836.646 18.38s-7.682 68.923-2.369 110.42l11.343-.502c.431 3.948.718 6.174.718 6.174l11.99-.359.215-6.461 8.759-.431s-.933-65.405 13.139-116.236c14.143-50.759 15.077-77.754 11.774-99.364z" fill="#5835BA"/><path d="M149.64 274.902c.143-6.102-.287-12.348-1.292-18.882l-31.734-6.676s-12.923 10.41-11.774 32.882c0 0 .287 2.8-.144 8.041 0 0-3.518 24.769-20.605 56.574s-28 79.979-29.651 117.097h10.626c-.072 2.585-.144 5.241-.144 7.97h11.703s.79-2.944 2.082-7.97h7.681s16.729-68.277 33.816-95.989c17.087-27.785 29.795-73.877 31.087-89.17.216-1.938-.431-3.159-1.651-3.877z" fill="#5835BA"/><path d="M119.63 164.913s-14.718.933-19.816 16.297c-3.805 11.272-1.436 21.682 7.036 34.39 8.472 12.636 7.323 27.067 7.395 29.795.072 2.8 6.103 10.051 23.836 11.2 17.733 1.077 29.651-8.185 31.231-12.78 1.579-4.595-3.877-20.461-3.518-36.543.287-16.082-17.303-43.867-46.164-42.359z" fill="#FFB0B4"/><path d="M111.804 167.21s15.292 7.969 18.667 6.892c3.374-1.077-2.37-8.83-2.37-8.83s-7.251-2.154-16.297 1.938z" fill="#E98870"/><path d="M111.804 167.21s3.159-10.338 3.159-21.61h10.984s-1.22 13.138 2.154 19.743c0 0-2.584 4.954-16.297 1.867z" fill="#E98870"/><path d="M125.158 137.487h-10.195v12.851h10.195v-12.851z" fill="#E98870"/><path d="M125.158 137.487s3.231 9.621 3.231 14.646c0 5.026-9.118 4.81-10.124-1.005-.071 0 3.59-13.354 6.893-13.641z" fill="#E98870"/><path d="M125.876 155.436s-5.098 1.22-7.18-2.8c0 0 2.513 11.415 7.898 7.969 0 0-.575-3.446-.718-5.169z" fill="#36162C"/><path d="M158.901 149.405l-33.241 9.836s-1.723 3.087 0 6.246l33.241 7.682" fill="#A44DA7"/><path d="M125.66 165.487c-1.723-3.159 0-6.246 0-6.246l.575-.144c-.288-.359-.718-.574-1.077-.574-1.149 0-2.011 1.723-2.011 3.877s.934 3.877 2.011 3.877c.359 0 .718-.216 1.077-.575l-.575-.215z" fill="#F9F7F5"/><path d="M143.178 173.097l-7.825-2.154.143-.502c.575-1.723 0-3.662 0-3.662l-.287-.861 10.841 2.441-1.077.646c-1.651 1.005-1.867 3.374-1.867 3.446l.072.646zm-6.533-2.8l5.672 1.508c.143-.718.502-1.939 1.364-2.944l-7.036-1.579c.144.79.287 1.867 0 3.015zm20.533 2.441l1.723.431v-23.692l-1.723.502c0-.072-4.523 9.477 0 22.759z" fill="#8E3D94"/><path d="M163.496 161.251c0 6.892-1.579 12.492-3.518 12.492-1.938 0-3.518-5.6-3.518-12.492 0-6.892 1.58-12.492 3.518-12.492 1.939 0 3.518 5.6 3.518 12.492z" fill="#502340"/><path d="M159.978 148.759c-.359 0-.789.215-1.077.646 0 0 3.303.646 3.231 11.343-.072 9.047-1.938 12.708-3.231 12.421.359.431.718.646 1.077.646 1.939 0 3.518-5.6 3.518-12.492 0-6.892-1.579-12.564-3.518-12.564z" fill="#E7AA4F"/><path d="M156.46 151.774l-20.676 5.456v.216l20.317-4.38.359-1.292z" fill="#F9F7F5"/><path d="M155.671 162.328h-.431c-.431 4.595-7.682 4.523-10.913 3.231-3.159-1.293-5.097.143-8.544 0-3.374-.144-10.553-2.011-10.769-2.011.072.647.287 1.293.646 2.011l31.949 7.323-1.938-10.554z" fill="#8E3D94"/><path d="M155.24 162.328s-.934 2.513-3.59 3.015c0 0 2.154.216 3.518-1.077 1.364-1.22.072-1.938.072-1.938z" fill="#8E3D94"/><path d="M156.532 163.764c.072 0 .144.072.216.072 1.148-.072 2.01-1.508 1.938-3.303-.072-1.651-1.005-2.943-2.082-3.087a31.88 31.88 0 00-.215 3.805c.071.862.071 1.723.143 2.513zm-31.015-4.164s-.862.071-1.221 1.938c-.287 1.58.216 3.231 1.077 3.303 0 0-1.077-2.154.144-5.241zm-16.8 232.472s25.631-45.59 32.379-71.723c0 0-.789 34.964-32.882 81.989l.503-10.266zm41.784-135.405s1.149 7.825 0 14.071c-1.148 6.246 4.667-6.03 0-14.071z" fill="#36162C"/><path d="M143.753 182.574l-1.652 5.098c1.364 38.194-4.81 60.882-14.502 54.348-10.482-7.107-28.646-47.959-28.646-47.959-.36-.789-.647-1.579-.79-2.441.072 7.61 2.943 15.221 8.759 23.908 3.805 5.744 5.672 11.846 6.605 17.015 4.595 6.031 9.692 13.139 15.867 14.144 21.538 3.59 14.359-64.113 14.359-64.113z" fill="#EC8A92"/><path d="M143.753 182.574l-1.867-.646c-.072-1.364-.144-2.728-.215-4.164l-6.677-.359s-.072.79-.288 2.01l-.861-.287c-.144 8.903-4.164 24.769-5.385 29.292-.072.072-.071.216-.143.288 0 0-4.164-21.108-15.364-30.011-9.047-7.179-15.293 1.723-15.22 9.908 0 1.939.358 3.805 1.148 5.456 0 0 .215.431.502 1.149 2.729 9.262 9.334 26.636 23.19 41.713 1.795 2.226 3.446 3.949 4.954 5.026 1.579 1.077 3.015 1.364 4.379.933.431-.144.79-.287 1.149-.503 13.785-7.323 10.698-59.805 10.698-59.805z" fill="#FFB0B4"/><path d="M120.563 188.03s7.467 12.78 7.682 20.677c0 0 5.6-19.528 5.456-27.856 0 0-3.015 14.359-4.02 16.154-.933 1.795-4.954-7.251-9.118-8.975z" fill="#EC8A92"/><path d="M64.922 471.907h11.703s.79-2.943 2.082-7.969H64.994c0 2.657-.072 5.241-.072 7.969zm56.718-2.297l11.99-.359.215-6.461-12.923.574c.431 4.021.718 6.246.718 6.246z" fill="#E98870"/><path d="M114.963 141.292s2.082-.144 2.943-2.082c0 0 3.877 2.728 8.185 1.22l.215.862s1.293-1.221 1.436-2.8c.144-2.01-.502-8.185-10.984-4.02 0 0-.862-.575-2.011-.647-1.148-.071-3.374 1.221-2.8 3.949.575 2.728.718 9.98 2.944 11.487 0 0 .574-3.087.574-4.307l-.502-.144v-3.518z" fill="#36162C"/><path d="M114.963 141.292s-.862-.861-2.226-.431c-1.364.431-1.579 3.949 2.226 3.877 0 0 .502-2.584 0-3.446zm20.82 36.185s-.574-2.657-.287-4.308c.287-1.58 1.436-3.015 1.939-3.231 0 0 .646-.287 1.292.287 0 0 .79-.215 1.292.359 0 0 .718-.215 1.077.287 0 0 .718.072.718.718 0 0 1.508 3.303-.718 6.103l-5.313-.215z" fill="#E98870"/><path d="M135.424 173.6s-.143-1.795.359-2.441l.431.143-.79 2.298z" fill="#FFC1BD"/><path d="M64.922 471.907s-1.22 2.154 0 4.883h8.902s3.375-1.58 2.872-4.883H64.922zm56.718-2.297l-2.369 3.446v3.59l31.805-.216.287-1.507-17.733-5.6-11.99.287z" fill="#5A33B4"/><path d="M266.306 487.128s-27.784 2.154-32.953 5.098c-5.17 3.015-3.016 5.6 18.02 8.256 0 0 17.518 3.733 17.303 0-.216-3.805.646-13.641-2.37-13.354z" fill="#373B40"/><path d="M370.553 486.267c28.646 1.651 47.959 4.738 47.959 8.256 0 5.241-42.072 9.477-93.98 9.477s-93.979-4.236-93.979-9.477c0-3.087 14.646-5.815 37.405-7.538" stroke="#E9E9E9" stroke-miterlimit="10"/><path d="M371.497 502.995c-.048-.456-.677-11.048-.997-16.495 0 0-30.986-1.598-51-1.5-20.014.098-51.5 2-51.5 2l1 15c46.305 3.983 102.032.628 102.497.995z" fill="#373B40"/><path d="M371.497 502.995c-.048-.456-.677-11.048-.997-16.495 0 0-30.986-1.598-51-1.5-20.014.098-51.5 2-51.5 2l1 15c46.305 3.983 102.032.628 102.497.995zm0 0c.002.001.003.005.003.005 0 .015-.001.013-.003-.005z" stroke="#E9E9E9"/><path d="M251.373 168.503l17.303 333.128" stroke="#E9E9E9" stroke-miterlimit="10"/><path d="M286.481 144.164v38.841l51.549-.359v-38.482h-51.549z" fill="#6F7FE3"/><path d="M286.481 144.164v38.841l51.549-.359v-38.482h-51.549z" fill="url(#paint0_linear)"/><path d="M286.481 144.164l-30.082 2.154v36.328l30.082.359v-38.841z" fill="url(#paint1_linear)"/><path d="M542.645 118.318c0 .933-.79 1.723-1.723 1.723s-1.723-.79-1.723-1.723c0-.934.79-1.723 1.723-1.723 1.005 0 1.723.789 1.723 1.723zm-8.544 0c0 .933-.789 1.723-1.723 1.723-.933 0-1.723-.79-1.723-1.723 0-.934.79-1.723 1.723-1.723.934 0 1.723.789 1.723 1.723z" fill="#B9B3A1"/><path d="M525.486 118.318c0 .933-.79 1.723-1.723 1.723s-1.723-.79-1.723-1.723c0-.934.79-1.723 1.723-1.723 1.005 0 1.723.789 1.723 1.723z" fill="#FF663C"/><path d="M422.891 276.338h116.308" stroke="#3D1C16" stroke-miterlimit="10"/><path d="M426.266 276.339l7.107-46.524 8.113 46.524m3.518 0l7.108-72.37 8.041 72.37m4.523-.001l7.107-96.707 8.113 96.707m3.375.001l7.179-72.37 8.041 72.37m3.374-.001l7.18-48.389 8.041 48.389m4.523 0l7.108-85.148 8.113 85.148" stroke="#A9A9A9" stroke-miterlimit="10"/><path d="M178.788 465.734h-7.179V424.38h48.031v41.354h-10.913" fill="#78949B"/><path d="M430.43 94.052h-1.436V68.636h9.549v25.416h-2.226m16.8-.001h-1.436V44.728h9.549v49.323h-2.154m16.728.001h-1.436V52.769h9.549v41.283h-2.154m16.8 0h-1.436v-56.36h9.477v56.36h-2.154m16.8-.001h-1.436V44.728h9.549v49.323h-2.154" fill="#B768B0"/><path d="M59.178 208.779c9.318 0 16.872-7.553 16.872-16.871 0-9.318-7.554-16.872-16.872-16.872s-16.871 7.554-16.871 16.872 7.553 16.871 16.871 16.871z" fill="#78949B"/><path d="M137.865 94.913a15.903 15.903 0 00-21.466-14.934c-1.939-3.948-5.887-6.605-10.554-6.605h-.287c-3.949-5.743-10.554-9.476-18.02-9.476-8.688 0-16.083 5.025-19.6 12.348-1.508-.43-3.16-.718-4.883-.718-9.764 0-17.661 7.898-17.661 17.662s7.897 17.661 17.661 17.661h60.81v-.143c7.898-.934 14-7.682 14-15.795z" fill="#DEDBD3"/><path d="M326.686 34.318h-161.18v102.02h161.18V34.318z" fill="#D4D0BE"/><path d="M326.614 136.339v-35.611c-5.528-30.943-12.42-38.195-16.872-38.051-11.128.359-14.287 42.072-25.774 40.636-11.559-1.436-15.795-49.036-29.938-48.246-17.806 1.005-20.247 55.21-31.59 54.348-11.344-.861-21.252-32.594-34.318-31.518-13.067 1.006-22.687 26.636-22.687 26.636v31.949h161.179v-.143z" fill="#B768B0"/><path d="M502.368 252.718a168.194 168.194 0 01-7.897-2.585c-.072 0-.144.072-.072.144 2.584.933 5.241 1.795 7.897 2.585.144 0 .144-.144.072-.144zm-6.461-53.057c.071 0 .071-.143 0-.143-.072 0-.072.143 0 .143z" fill="#F06567"/><path d="M508.686 250.708c-.072-.072-.072-.072-.072-.144-1.579-.79-2.943-1.723-4.164-2.943-.144-.144-.287 0-.287.143-.072 1.005.431 1.723.718 2.657-2.728-.503-5.672-1.006-8.185-2.298h-.215s-.072 0-.072.072v.215a25.088 25.088 0 004.882 3.446l-5.887-1.866c-.216-.144-.503-.287-.718-.431-.215-.144-.359.144-.144.287 1.867 1.221 3.734 2.657 5.744 3.59-1.723-.359-3.446-.718-5.169-1.149h-.072s-.072 0-.072.072v.072s0 .072.072.072c1.795.861 3.59 1.579 5.456 2.297a19.507 19.507 0 01-4.02-1.077c-.216-.072-.287.215-.144.287a10.165 10.165 0 006.175 2.082c1.938.718 4.092.718 5.959-.143l.071-.072c0-1.723.072-3.446.144-5.169zm-11.846-53.775c0-.144-.215-.215-.287-.072-.431.79-.79 1.508-.862 2.37-.861-2.513-2.369-4.739-4.523-6.39h-.287v.143a11.794 11.794 0 011.723 3.088c-.862-1.293-1.867-2.37-3.159-3.303-.072-.072-.144 0-.144 0v.215a14.747 14.747 0 012.154 3.877c-.718-1.005-1.579-1.866-2.513-2.656h-.215l-.072.072v.143c.718 1.364 1.221 2.8 1.795 4.236a7.731 7.731 0 01-2.297-1.723h-.288l-.071.072v.215c1.579 2.872 2.943 6.246 5.6 8.257h.072c0 .071.071.071.143.071 1.436-.574 2.872-1.148 4.164-2.01 0 0 0-.072.072-.072v-.143c-.574-2.082-.862-4.236-1.005-6.39z" fill="#E98870"/><path d="M552.265 180.492s2.513 11.2 1.077 16.585c-1.436 5.384-2.441 8.184 0 11.343 2.441 3.159 10.052.718 9.98-5.026-.072-5.743-5.528-23.979-9.046-24.912-3.446-.934-2.011 2.01-2.011 2.01z" fill="#36162C"/><path d="M550.183 211.508s-8.687 13.497-21.754 12.707a22.815 22.815 0 01-3.302-.574c-7.251-2.01-14.933-8.616-20.174-13.928a43.827 43.827 0 01-3.662-5.744l-1.005.646c-1.077-1.22-1.651-2.01-1.651-2.01l-6.031 3.231s.431 1.148 1.292 3.015l-1.292.862s11.918 28.287 32.02 34.605c.647.215 1.293.359 1.939.502 1.436.359 2.943.575 4.451.646.216 0 .431.001.718.072h.574c18.452.646 27.785-15.077 27.785-15.077l-9.908-18.953z" fill="#FFB0B4"/><path d="M560.019 230.605l-7.969-15.436-3.59-1.149s-5.169 6.175-6.03 12.995c-.862 6.892-1.436 13.21-5.457 14.646-4.02 1.436-9.764 4.882-25.99-5.384 3.949 3.589 8.544 6.605 13.57 8.184.646.216 1.292.359 1.938.503 1.436.359 2.944.574 4.451.646.216 0 .431 0 .718.072h.575c18.451.646 27.784-15.077 27.784-15.077z" fill="#EC8A92"/><path d="M624.85 416.051s4.451 31.231 9.333 56l-8.759 1.149s-8.902-20.246-14.646-51.118l14.072-6.031zm-96.995 8.113c-7.682 22.831-14 48.964-14 48.964h11.2c6.605-17.733 12.636-32.02 18.667-45.302-7.323-.575-10.769-1.652-15.867-3.662z" fill="#E98870"/><path d="M557.507 427.61c2.153-6.605 4.451-13.282 6.964-19.672 15.507-40.708 23.764-75.815 23.477-85.077-.288-9.261-2.083-48.39-2.083-48.39l-24.625 5.6s-28.646 62.247-45.59 138.421c0 0 19.528 12.42 41.857 9.118z" fill="#5835BA"/><path d="M628.296 412.892c-8.974-46.451-12.277-94.554-12.492-108.913-.503-28-10.554-36.831-10.554-36.831l-28.646 13.354s-7.682 3.159-3.949 68.277c1.436 25.487 8.257 52.339 15.939 75.528 4.451.216 28.359.934 39.702-11.415z" fill="#5835BA"/><path d="M564.867 175.417l-11.124 1.822 2.308 14.1 11.125-1.822-2.309-14.1z" fill="#E98870"/><path d="M574.019 205.046s-5.743 42.862-65.62 44.369l.072 7.826s35.825 7.108 60.594-4.667c26.062-12.42 25.057-41.713 25.057-41.713s.502-11.559-7.18-12.994c-6.677-1.293-11.415.933-12.923 7.179z" fill="#EC8A92"/><path d="M590.245 199.015s8.903 4.092 10.41 14.144c1.364 9.046.503 24.338 3.662 37.046l-14.072-6.677v-44.513z" fill="#FFB0B4"/><path d="M604.389 250.277s1.651 12.277 2.728 14.143c1.077 1.867-6.031 10.483-9.334 11.847-3.087 1.22 6.175-17.231 6.175-17.231l.431-8.759z" fill="#EC8A92"/><path d="M600.153 232.4c-.431-8.759-2.369-30.154-9.908-33.385-6.677-2.872-9.262-2.656-32.523 6.964 0 0-9.549 2.657-11.846 15.221-1.795 9.764 3.231 18.523 6.246 26.205v.072c.646 1.723 1.22 3.374 1.579 5.025 2.441 7.898 6.749 22.472 6.318 26.277 1.436 1.508 3.231 2.513 5.6 2.728 14.503 1.436 35.395-2.441 39.2-12.707 4.021-10.482-4.236-27.57-4.666-36.4z" fill="#FFB0B4"/><path d="M558.942 205.62s-3.23 7.539-.359 8.4c1.652.503 10.267-4.164 14.072-13.784l-13.713 5.384z" fill="#E98870"/><path d="M558.942 205.62s-.359-4.81-2.943-14.287l11.128-1.795s.79 5.457 5.456 10.626l-9.907 6.892-3.734-1.436z" fill="#E98870"/><path d="M553.701 177.189s-1.148 14.575.79 16.513c1.939 1.939 7.61-.431 9.118-4.236 1.436-3.733-4.092-12.779-9.908-12.277z" fill="#E98870"/><path d="M575.742 375.415s-5.384-36.615-4.092-59.949c0 0-6.103 36.472 0 72.37l4.092-12.421z" fill="#36162C"/><path d="M511.414 247.979l.862 11.416s41.21 7.323 64.471-11.416l-14.574-19.528s-12.995 19.313-50.759 19.528z" fill="#FFB0B4"/><path d="M555.424 258.03s34.893-9.046 38.841-40.492c0 0 2.226 28.503-36.974 46.739l-1.867-6.247z" fill="#EC8A92"/><path d="M556.788 194.42s2.585-.359 4.667-2.082c0 0 .79 4.739-3.877 5.528l-.79-3.446z" fill="#36162C"/><path d="M564.973 177.62s-2.656 2.944-8.615 0c0 0-1.221 1.795-2.8 1.293l-.144 2.225s-3.374-1.149-3.374-5.025c0-3.877 5.097-7.108 11.415-6.031 6.318 1.077 7.395 5.887 7.467 8.041.072 2.154 3.015 8.974 9.549 11.343 6.533 2.37 5.887 10.626 2.369 12.493-2.944 1.579-9.334 4.595-12.708-2.944-3.446-7.538-3.231-16.872-2.585-18.02l-.574-3.375z" fill="#36162C"/><path d="M563.537 178.195s.862-.862 2.226-.431c1.364.431 1.579 3.949-2.226 3.877 0 0-.431-2.657 0-3.446z" fill="#E98870"/><path d="M513.855 473.128l-16.225 3.805-.431 2.513h29.22l.862-3.662-2.226-2.656h-11.2zm111.569 0v5.384l11.2 8.472 9.047-1.292-11.488-13.713-8.759 1.149z" fill="#36162C"/><path d="M295.024 134.831c-1.292-3.016-4.523-7.826-8.4-6.893 0 0-.071 0-.071.072-.072.072-.072.144 0 .144 0 0 0 .072.071.072 1.006.43 1.867 1.077 2.585 1.794-.718 0-1.292.503-1.22 1.221a1.7 1.7 0 00-1.58 1.58c-.79 1.148.933 3.733 2.585 4.666h.072s.215.144.215.072c2.01-.718 3.805-1.58 5.672-2.585.071.072.071-.071.071-.143zm23.118-65.621a.556.556 0 00-.287-.287l-.071-.072c-.359-.215-.718-.215-.718-.215v-.072c-.431-.79-1.221-1.077-2.083-.861-.789-2.226-2.584-3.734-4.379-5.098-.144-.072-.287 0-.287.144v.143c.861 1.149 1.579 2.298 2.154 3.662-.862-1.005-2.154-1.58-3.303-2.298h-.144l-.071.072v.144c.789 1.005 1.579 2.082 2.225 3.23.288.575.503 1.077.646 1.652 0-.144-.215-.216-.358-.072-.431.933-.862 2.01-.575 3.087.287 1.077 1.149 1.939 1.939 2.657h.215l5.313-.718h.143a.155.155 0 00.144-.144c.072 0 .072-.072.072-.144 0-1.22.431-3.733-.575-4.81zm-6.318.287c.144.503.216 1.005.216 1.58-.287-.43-.359-1.005-.216-1.58zm26.708 314.318s.144 5.241.574 8.831l8.903-1.149s.287-3.949.79-8.041l-10.267.359zm-38.123-68.564s1.795 5.528 3.374 8.831l8.759-.718s-1.723-7.036-2.441-11.057l-9.692 2.944z" fill="#E98870"/><path d="M339.106 392.646l-5.959 9.118-5.887 1.364v2.082h9.118l12.421-8.113-.79-5.6-8.903 1.149zm-35.394-68.564l-11.057 6.174-.574 1.077h3.733l2.298-.574 17.159-2.226-.718-3.518-2.082-1.651-8.759.718z" fill="#36162C"/><path d="M339.824 108.841c-7.251-10.913-15.723-31.518-15.723-31.518l-3.087.646c-1.149-2.369-1.723-3.805-1.723-3.805l-7.108.862c.288 1.65.575 3.302.862 4.882l-1.795.43c10.338 47.385 28.287 61.385 28.287 61.385 5.887 7.108 10.267 9.98 10.267 9.98l6.892-22.544c-5.959-5.385-11.774-12.708-16.872-20.318z" fill="#FFB0B4"/><path d="M352.46 124.923c-7.395.072-9.764 5.744-16.872 3.949-7.323-1.939-12.994-13.067-12.994-13.067 8.615 19.385 17.087 25.99 17.087 25.99 5.887 7.108 10.266 9.979 10.266 9.979l6.893-22.543a49.553 49.553 0 01-4.38-4.308z" fill="#EC8A92"/><path d="M355.763 198.513s-38.626-19.888-69.139-13.354c-30.584 6.533-6.82 106.041 2.226 133.754l33.744-10.554s-12.421-53.416-13.929-84.646c0 0 23.118 20.461 50.042 20.892 26.923.431 36.4-16.369 36.112-24.482-.861-23.333-12.061-26.277-12.061-26.277l-26.995 4.667z" fill="#5835BA"/><path d="M391.589 196.143c6.964 10.267 8.687 23.334 7.466 35.682-1.22 12.349-5.169 24.267-8.615 36.185-10.482 36.185-23.334 77.323-25.344 114.944l-34.031 1.148c-1.22-21.395 2.441-48.605 5.816-67.774 4.451-25.487 9.764-50.831 15.866-76.031l12.493-39.918 26.349-4.236z" fill="#5835BA"/><path d="M351.814 244.102s25.703 4.093 35.539-10.266c0 0-6.031 11.128-18.739 14.071-12.779 2.872-18.092 1.724-18.092 1.724l1.292-5.529z" fill="#36162C"/><path d="M344.635 131.456s-12.636 27.857-17.949 27.498c-5.385-.359-31.231-24.267-31.231-24.267l-7.036 3.374s20.175 31.447 31.231 41.426c11.056 9.98 26.636-3.446 30.728-15.292 4.093-11.846-5.743-32.739-5.743-32.739z" fill="#FFB0B4"/><path d="M357.342 120.974s-4.451-10.266-4.738-15.436l-8.974 2.298s.502 14.287 3.159 21.036c-.072 0 5.887-5.816 10.553-7.898z" fill="#E98870"/><path d="M351.742 98.072l-9.979 1.65 1.149 14.288 11.128-1.795-2.298-14.143z" fill="#E98870"/><path d="M341.763 99.723s-2.082 13.785-.718 16.082c1.364 2.298 6.462 1.221 8.328-2.943 1.939-4.093-7.61-13.139-7.61-13.139z" fill="#E98870"/><path d="M298.542 136.339l-8.615 7.394s21.467 39.559 37.979 39.2l-1.22-24.051c0 .072-18.092-9.333-28.144-22.543z" fill="#EC8A92"/><path d="M345.855 172.308s3.877-4.524 5.457-7.611c0 0-.646 23.693-6.605 25.918.071 0 1.148-12.636 1.148-18.307z" fill="#FC5440"/><path d="M344.276 116.954s4.882-1.005 8.113-6.39c0 0-2.729 6.103-8.041 7.179l-.072-.789zm4.738-16.657s-2.872 1.364-7.466.862l-.072.574s-1.508-2.154-.431-4.236c1.364-2.584 7.754-5.24 11.774-1.938 2.944 2.44 2.513 11.559.646 13.21 0 0-1.794-1.795-2.441-5.743 0 .071-.43-3.303-2.01-2.729z" fill="#36162C"/><path d="M349.876 100.728s.861-.861 2.225-.431c1.364.431 1.58 3.949-2.225 3.877 0 0-.503-2.656 0-3.446z" fill="#E98870"/><path d="M344.563 131.672c-.215-.862 12.708-15.077 20.461-11.2 7.754 3.876 20.677 33.815 23.908 49.107 3.231 15.293 3.877 25.775 3.016 26.636-.862.862-14.216 4.092-26.708 4.092-12.492 0-20.462-6.246-20.462-9.692 0-3.446 3.662-41.497-.215-58.943zm133.754 341.097l4.308.718 9.692-19.672-8.041-4.379 9.477 1.436 3.805-7.682-3.231-1.939h4.236l3.231-6.533c-45.159 9.262-33.6 57.436-33.6 57.436h5.241l8.472-17.159-3.59-2.226z" fill="#FFB0B4"/><path d="M450.389 430.338l2.584 10.913h3.662l-3.446.934 3.446 14.43h6.318l-5.887 1.795 1.077 4.595 4.738-.574-4.379 2.082 3.733 15.579h1.723l-1.508.934 2.657 11.128h6.318c.071 0 9.118-48.677-21.036-61.816z" fill="#FFB0B4"/><defs><linearGradient id="paint0_linear" x1="291.864" y1="123.641" x2="320.8" y2="180.257" gradientUnits="userSpaceOnUse"><stop stop-color="#7D85F9" stop-opacity="0"/><stop offset=".268" stop-color="#7B83F5" stop-opacity=".268"/><stop offset=".516" stop-color="#757DEA" stop-opacity=".516"/><stop offset=".757" stop-color="#6B73D7" stop-opacity=".757"/><stop offset=".991" stop-color="#5E65BD" stop-opacity=".991"/><stop offset="1" stop-color="#5D64BC"/></linearGradient><linearGradient id="paint1_linear" x1="256.368" y1="163.566" x2="286.483" y2="163.566" gradientUnits="userSpaceOnUse"><stop stop-color="#7D85F9"/><stop offset="1" stop-color="#5D64BC"/></linearGradient></defs></svg>