<svg width="78" height="70" fill="none" xmlns="http://www.w3.org/2000/svg"><g filter="url(#filter0_d)"><path d="M67 38v2a10 10 0 01-10 10H19A10 10 0 019 40v-2a10 10 0 0110-10h16l3-5 3 5h16a10 10 0 0110 10z" fill="#E2E8EF"/><path d="M38 46a7 7 0 100-14 7 7 0 000 14z" fill="#FE9661"/><path d="M20 46a7 7 0 100-14 7 7 0 000 14zm14-7v-1a1 1 0 012 0v1a1 1 0 01-2 0zm6 0v-1a1 1 0 012 0v1a1 1 0 01-2 0z" fill="#E0633D"/><path d="M16 39v-1a1 1 0 012 0v1a1 1 0 01-2 0zm6 0v-1a1 1 0 012 0v1a1 1 0 01-2 0z" fill="#FFB369"/><path d="M39 43h-2a1 1 0 010-2h2a1 1 0 010 2z" fill="#E0633D"/><path d="M20.79 43.21a1.13 1.13 0 00-1.58 0 1.004 1.004 0 11-1.42-1.42c2.09-2.09 5.84 0 4.42 1.42a1.002 1.002 0 01-1.42 0zM56 46a7 7 0 100-14 7 7 0 000 14z" fill="#FFB369"/><path d="M52 39v-1a1 1 0 012 0v1a1 1 0 01-2 0zm6 0v-1a1 1 0 012 0v1a1 1 0 01-2 0zm-4.21 2.17a1.002 1.002 0 011.42 0 1.15 1.15 0 001.58 0 1.005 1.005 0 011.42 1.42c-2.16 2.15-5.8-.03-4.42-1.42z" fill="#E0633D"/><path d="M54 50v2a6 6 0 01-6 6H28a6 6 0 01-6-6v-2h4c0 1.63-.29 3.21 1.22 3.84.55.23-1.1.16 20.78.16a2.06 2.06 0 001.12-.34c1.12-.8.88-1.82.88-3.66h4z" fill="url(#paint0_linear)"/><path d="M54 14v14h-4c0-17.86 1.39-16-6-16-1.28 2.51-.69 2-9.76 2-1.41 0-1.83-1.19-2.24-2h-4a2 2 0 00-2 2v14h-4V14a6 6 0 016-6h20a6 6 0 016 6z" fill="url(#paint1_linear)"/><path d="M50 14v14h-9l-3-5-3 5h-9V14a2 2 0 012-2h4c.47.91.87 2 2.24 2 9.05 0 8.48.51 9.76-2 4.31 0 4.26-.06 4.78.16A2 2 0 0150 14zm0 36c0 1.63.29 3.21-1.22 3.84-.55.23 1.1.16-20.78.16a2.06 2.06 0 01-1.12-.34c-1.12-.8-.88-1.82-.88-3.66h24z" fill="#F0F7FC"/></g><defs><linearGradient id="paint0_linear" x1="22" y1="54" x2="54" y2="54" gradientUnits="userSpaceOnUse"><stop stop-color="#5835BA"/><stop offset="1" stop-color="#75196B"/></linearGradient><linearGradient id="paint1_linear" x1="22" y1="18" x2="54" y2="18" gradientUnits="userSpaceOnUse"><stop stop-color="#5835BA"/><stop offset="1" stop-color="#75196B"/></linearGradient><filter id="filter0_d" x="-3" y="-7" width="84" height="84" filterUnits="userSpaceOnUse" color-interpolation-filters="sRGB"><feFlood flood-opacity="0" result="BackgroundImageFix"/><feColorMatrix in="SourceAlpha" values="0 0 0 0 0 0 0 0 0 0 0 0 0 0 0 0 0 0 127 0"/><feOffset dx="1" dy="2"/><feGaussianBlur stdDeviation="5"/><feColorMatrix values="0 0 0 0 0.560784 0 0 0 0 0.431373 0 0 0 0 0.713726 0 0 0 0.2 0"/><feBlend in2="BackgroundImageFix" result="effect1_dropShadow"/><feBlend in="SourceGraphic" in2="effect1_dropShadow" result="shape"/></filter></defs></svg>