<svg width="66" height="78" fill="none" xmlns="http://www.w3.org/2000/svg"><g filter="url(#filter0_d)"><path d="M55 16v25a3 3 0 01-3 3H12a3 3 0 01-3-3V16h46z" fill="#F0F7FC"/><path d="M47 21H17a4 4 0 00-4 4v6a4 4 0 004 4h30a4 4 0 004-4v-6a4 4 0 00-4-4z" fill="#F0F7FC"/><path d="M55 11v5H9v-5a3 3 0 013-3h40a3 3 0 013 3z" fill="#5835BA"/><path d="M15 12a1 1 0 11-2 0 1 1 0 012 0z" fill="#0668CB"/><path d="M20 12a1 1 0 11-2 0 1 1 0 012 0z" fill="#EC8A92"/><path d="M25 12a1 1 0 11-2 0 1 1 0 012 0z" fill="#F0F7FC"/><path d="M32 23.89l1.24 2.5 2.76.4-2 1.95.47 2.76L32 30.2l-2.47 1.3.47-2.76-2-1.95 2.76-.4 1.24-2.5z" fill="url(#paint0_linear)"/><path d="M19 23.89l1.24 2.5 2.76.4-2 1.95.47 2.76L19 30.2l-2.47 1.3.47-2.76-2-1.95 2.76-.4 1.24-2.5z" fill="#5835BA"/><path d="M45 23.89l1.24 2.5 2.76.4-2 1.95.47 2.76L45 30.2l-2.47 1.3.47-2.76-2-1.95 2.76-.4 1.24-2.5z" fill="#BB6CB0"/><path d="M49 49.64v5.15A13.48 13.48 0 0143 66H29a13.48 13.48 0 01-6-11.21V46c0-3.41 6-2.26 6 2V37.64A2.6 2.6 0 0131.24 35 2.5 2.5 0 0134 37.5v9a2.5 2.5 0 012.76-2.5A2.6 2.6 0 0139 46.64v.86a2.5 2.5 0 012.76-2.5A2.6 2.6 0 0144 47.64v1.86a2.5 2.5 0 012.76-2.5A2.6 2.6 0 0149 49.64z" fill="url(#paint1_linear)"/><path d="M29 48v7a2 2 0 01-2-2v-8.47A4 4 0 0129 48z" fill="#EB7F58"/></g><defs><linearGradient id="paint0_linear" x1="28" y1="27.695" x2="36" y2="27.695" gradientUnits="userSpaceOnUse"><stop stop-color="#5835BA"/><stop offset="1" stop-color="#75196B"/></linearGradient><linearGradient id="paint1_linear" x1="23" y1="50.5" x2="49" y2="50.5" gradientUnits="userSpaceOnUse"><stop stop-color="#FE9661"/><stop offset="1" stop-color="#FFB369"/></linearGradient><filter id="filter0_d" x="-9" y="-3" width="84" height="84" filterUnits="userSpaceOnUse" color-interpolation-filters="sRGB"><feFlood flood-opacity="0" result="BackgroundImageFix"/><feColorMatrix in="SourceAlpha" values="0 0 0 0 0 0 0 0 0 0 0 0 0 0 0 0 0 0 127 0"/><feOffset dx="1" dy="2"/><feGaussianBlur stdDeviation="5"/><feColorMatrix values="0 0 0 0 0.560784 0 0 0 0 0.431373 0 0 0 0 0.713726 0 0 0 0.2 0"/><feBlend in2="BackgroundImageFix" result="effect1_dropShadow"/><feBlend in="SourceGraphic" in2="effect1_dropShadow" result="shape"/></filter></defs></svg>