<svg width="500" height="488" fill="none" xmlns="http://www.w3.org/2000/svg"><path d="M94.949 177.768c.077 0 .077-.154 0-.154s-.077.154 0 .154z" fill="#F06567"/><path d="M147.613 232.776c.077-.078.077-.078.077-.155 1.702-.851 3.172-1.857 4.487-3.172.155-.155.31 0 .31.155.077 1.083-.464 1.856-.774 2.862 2.94-.541 6.112-1.083 8.82-2.476h.232s.077 0 .077.078v.232a26.97 26.97 0 01-5.261 3.713l6.344-2.011c.232-.155.542-.31.774-.464.232-.155.387.154.155.309-2.012 1.315-4.023 2.863-6.19 3.868 1.857-.386 3.714-.773 5.571-1.237h.077s.078 0 .078.077v.077s0 .078-.078.078c-1.934.928-3.868 1.702-5.88 2.475 1.47-.232 2.94-.619 4.333-1.16.232-.077.309.232.155.309a10.956 10.956 0 01-6.654 2.244c-2.089.774-4.41.774-6.421-.155l-.078-.077c0-1.857-.077-3.714-.154-5.57zm12.765-57.947c0-.155.232-.232.309-.077.465.851.851 1.624.929 2.553.928-2.708 2.553-5.106 4.874-6.886h.309v.155a12.706 12.706 0 00-1.856 3.327c.928-1.393 2.011-2.553 3.404-3.559.077-.077.154 0 .154 0v.232a15.95 15.95 0 00-2.321 4.178c.774-1.083 1.702-2.012 2.708-2.863h.232l.078.078v.154c-.774 1.47-1.316 3.018-1.935 4.565a8.306 8.306 0 002.476-1.857h.31l.077.078v.232c-1.702 3.094-3.172 6.73-6.034 8.897h-.078c0 .077-.077.077-.155.077-1.547-.619-3.094-1.238-4.487-2.166 0 0 0-.078-.077-.078v-.154c.619-2.244.928-4.565 1.083-6.886z" fill="#E98870"/><path d="M100.652 157.112s-2.708 12.069-1.16 17.872c1.547 5.802 2.63 8.819 0 12.223s-10.832.774-10.754-5.415c.077-6.189 5.957-25.84 9.748-26.846 3.713-1.006 2.166 2.166 2.166 2.166z" fill="#36162C"/><path d="M102.896 190.534s9.361 14.545 23.441 13.694a24.605 24.605 0 003.559-.619c7.814-2.166 16.092-9.284 21.74-15.009a47.367 47.367 0 003.945-6.189l1.083.696c1.161-1.315 1.78-2.166 1.78-2.166l6.498 3.481s-.464 1.238-1.392 3.25l1.392.928s-12.842 30.482-34.504 37.29c-.697.232-1.393.387-2.089.542a24.776 24.776 0 01-4.797.696c-.232 0-.464 0-.774.077h-.618c-19.883.697-29.94-16.246-29.94-16.246l10.676-20.425z" fill="#FFB0B4"/><path d="M92.296 211.114l8.588-16.633 3.868-1.238s5.571 6.653 6.499 14.003c.928 7.427 1.547 14.235 5.88 15.782 4.332 1.548 10.521 5.261 28.006-5.802-4.255 3.868-9.207 7.118-14.622 8.82-.696.232-1.393.386-2.089.541a24.689 24.689 0 01-4.797.696c-.232 0-.464 0-.773.078h-.619c-19.883.696-29.94-16.247-29.94-16.247z" fill="#EC8A92"/><path d="M22.436 410.948s-4.797 33.654-10.058 60.345l9.439 1.238s9.593-21.817 15.782-55.084l-15.163-6.499zm104.52 8.742c8.278 24.602 15.086 52.763 15.086 52.763h-12.069c-7.117-19.109-13.616-34.505-20.115-48.817 7.892-.619 11.605-1.78 17.098-3.946z" fill="#E98870"/><path d="M95.004 423.404c-2.32-7.118-4.796-14.313-7.504-21.198-16.711-43.866-25.608-81.698-25.299-91.678.31-9.98 2.244-52.144 2.244-52.144l26.536 6.034s30.869 67.076 49.127 149.16c0 0-21.043 13.385-45.104 9.826z" fill="#5835BA"/><path d="M18.722 407.544c9.67-50.056 13.23-101.89 13.462-117.363.541-30.173 11.372-39.689 11.372-39.689l30.87 14.39s8.277 3.404 4.254 73.574c-1.547 27.465-8.897 56.4-17.175 81.389-4.797.232-30.56 1.005-42.783-12.301z" fill="#5835BA"/><path d="M87.073 151.644l11.987 1.963-2.488 15.194-11.987-1.963 2.488-15.194z" fill="#E98870"/><path d="M77.21 183.571s6.19 46.187 70.712 47.812l-.077 8.433s-38.605 7.659-65.296-5.029c-28.084-13.384-27-44.949-27-44.949s-.542-12.456 7.736-14.003c7.195-1.393 12.3 1.006 13.925 7.736z" fill="#EC8A92"/><path d="M59.726 177.073s-9.593 4.41-11.218 15.241c-1.47 9.748-.542 26.226-3.946 39.92l15.164-7.195v-47.966z" fill="#FFB0B4"/><path d="M44.485 232.312s-1.78 13.229-2.94 15.24c-1.16 2.012 6.499 11.296 10.057 12.766 3.327 1.315-6.653-18.568-6.653-18.568l-.464-9.438z" fill="#EC8A92"/><path d="M49.05 213.048c.464-9.439 2.552-32.494 10.676-35.975 7.195-3.095 9.98-2.863 35.046 7.504 0 0 10.29 2.863 12.765 16.402 1.935 10.521-3.481 19.96-6.73 28.238v.077c-.697 1.857-1.316 3.637-1.702 5.416-2.63 8.51-7.273 24.215-6.808 28.316-1.548 1.624-3.482 2.707-6.035 2.939-15.628 1.548-38.141-2.63-42.241-13.693-4.333-11.295 4.564-29.708 5.028-39.224z" fill="#FFB0B4"/><path d="M93.457 184.19s3.482 8.123.387 9.051c-1.78.542-11.063-4.487-15.164-14.854l14.777 5.803z" fill="#E98870"/><path d="M93.457 184.19s.387-5.183 3.172-15.396l-11.992-1.934s-.85 5.88-5.88 11.45l10.677 7.427 4.023-1.547z" fill="#E98870"/><path d="M99.105 153.553s1.238 15.706-.851 17.794c-2.09 2.089-8.2-.464-9.826-4.564-1.547-4.023 4.41-13.771 10.677-13.23z" fill="#E98870"/><path d="M75.354 367.159s5.802-39.456 4.41-64.6c0 0 6.576 39.302 0 77.984l-4.41-13.384z" fill="#36162C"/><path d="M144.673 229.836l-.928 12.301s-44.408 7.891-69.475-12.301l15.706-21.044s14.003 20.812 54.697 21.044z" fill="#FFB0B4"/><path d="M97.248 240.667s-37.6-9.748-41.855-43.634c0 0-2.398 30.714 39.844 50.364l2.011-6.73z" fill="#EC8A92"/><path d="M95.778 172.122s-2.785-.387-5.029-2.244c0 0-.85 5.106 4.178 5.957l.851-3.713z" fill="#36162C"/><path d="M86.958 154.018s2.863 3.172 9.284 0c0 0 1.315 1.934 3.017 1.392l.155 2.399s3.636-1.238 3.636-5.416c0-4.178-5.493-7.659-12.3-6.499-6.809 1.161-7.97 6.344-8.047 8.665-.077 2.321-3.25 9.671-10.29 12.224-7.04 2.553-6.343 11.45-2.552 13.462 3.172 1.702 10.057 4.951 13.693-3.172 3.714-8.124 3.482-18.181 2.785-19.419l.62-3.636z" fill="#36162C"/><path d="M88.506 154.636s-.929-.928-2.398-.464c-1.47.464-1.703 4.255 2.398 4.178 0 0 .464-2.863 0-3.714z" fill="#E98870"/><path d="M142.042 472.453l17.485 4.101.464 2.707h-31.488l-.928-3.945 2.398-2.863h12.069zm-120.225 0v5.802l-12.07 9.129L0 485.992l12.378-14.777 9.439 1.238z" fill="#5835BA"/><path d="M400.944 449.706H187.051a5.23 5.23 0 01-5.273-5.268V35.098a5.23 5.23 0 015.273-5.268h213.893c2.945 0 5.274 2.326 5.274 5.268V444.37c0 2.942-2.397 5.337-5.274 5.337z" fill="#CFD4DD"/><path d="M387.999 383.273H199.996c-2.329 0-4.247-1.916-4.247-4.242V60.207c0-2.326 1.918-4.242 4.247-4.242h188.003c2.329 0 4.247 1.916 4.247 4.242v318.824c-.069 2.394-1.918 4.242-4.247 4.242z" fill="#E2E8EF"/><path d="M321.222 275.311h-54.586v1.71h54.586v-1.71zm44.313 15.119H222.46v1.711h143.075v-1.711zm0 15.189H222.46v1.711h143.075v-1.711zm0 15.189H222.46v1.71h143.075v-1.71z" fill="#36162C"/><path d="M312.461 419.455c1.458-10.173-5.617-19.602-15.801-21.058-10.185-1.456-19.623 5.611-21.081 15.785-1.458 10.173 5.617 19.602 15.801 21.058 10.185 1.456 19.623-5.611 21.081-15.785z" fill="#DDE4EF"/><path d="M293.963 254.374c21.977 0 39.793-17.797 39.793-39.75 0-21.954-17.816-39.75-39.793-39.75s-39.792 17.796-39.792 39.75c0 21.953 17.815 39.75 39.792 39.75z" fill="#B768B0"/><path d="M371.425 44.198a2.921 2.921 0 01-2.945 2.942 2.921 2.921 0 01-2.945-2.942 2.921 2.921 0 012.945-2.942c1.644 0 2.945 1.3 2.945 2.942z" fill="#36162C"/><path d="M369.643 44.197c0 .684-.548 1.163-1.164 1.163a1.153 1.153 0 01-1.163-1.163c0-.615.547-1.162 1.163-1.162s1.164.478 1.164 1.162z" fill="#E2E8EF"/><path d="M317.866 46.592h-47.737c-.479 0-.822-.342-.822-.821v-3.147c0-.48.343-.821.822-.821h47.737c.48 0 .822.342.822.82v3.08c0 .478-.342.889-.822.889zM149.93 14.368l-14.246-4.037c-.411-.137-.685-.547-.548-1.026l.822-2.805c.137-.41.548-.684 1.028-.547l14.245 4.036c.411.137.685.547.548 1.026l-.822 2.805c-.137.411-.548.685-1.027.548zm-6.027 30.582l-14.794-.273a.833.833 0 01-.822-.821l.069-2.942c0-.48.411-.821.822-.821l14.793.273c.48 0 .822.41.822.822l-.068 2.941c0 .48-.343.821-.822.821zm7.945 30.856l-14.041 4.72a.797.797 0 01-1.027-.547l-.959-2.736a.796.796 0 01.548-1.026l14.04-4.721a.798.798 0 011.028.547l.959 2.737c.136.41-.137.82-.548 1.026z" fill="#DDE4EF"/><path d="M437.928 277.842h-18.286v171.795h18.286V277.842zm-85.475 166.116h-35.957v35.919h35.957v-35.919z" fill="#EEF3FF"/><path d="M368.411 408.04h-35.957v35.919h35.957V408.04z" fill="#EEF3FF"/><path d="M388.41 443.958h-35.957v35.919h35.957v-35.919zm80.75-117.459h-18.287v122.946h18.287V326.499zM500 371.451h-17.745v78.076H500v-78.076zM471.351 65.338H260.198V235.56h211.153V65.338z" fill="#EEF3FF"/><path d="M322.934 82.237h-48.627v45.839h48.627v-45.84zm0 57.128h-48.627v1.711h48.627v-1.711zm0 16.147h-48.627v1.71h48.627v-1.71zm0 16.077h-48.627v1.711h48.627v-1.711zm0 16.147h-48.627v1.711h48.627v-1.711zm132.254 14.573H274.307v1.711h180.881v-1.711zm0 14.642H274.307v1.71h180.881v-1.71zm0-134.714H341.495v107.209h113.693V82.236z" fill="#B768B0"/><path d="M298.62 105.157l3.562-17.31c-1.164-.204-2.329-.341-3.562-.341-9.794 0-17.67 7.936-17.67 17.651 0 9.784 7.945 17.652 17.67 17.652 9.794 0 17.671-7.936 17.671-17.652 0-.547 0-1.163-.069-1.71l-17.602 1.71z" fill="#fff"/><path d="M245.336 36.603s4.315 1.984 8.287 2.531c0 0 4.863 13 0 21.825 0 0-6.096 0-8.287.958V36.603z" fill="#B768B0"/><path d="M245.336 61.986c.753-.342 1.986-.548 3.287-.684 6.781-8.484 1.918-22.783 1.918-22.783a46.966 46.966 0 01-5.137-1.848v25.315h-.068z" fill="#36162C"/><path d="M195.339 5.542s40.203 26.477 51.983 30.24c0 0 7.534 15.188-.685 27.572 0 0-40.477 12.93-54.586 24.698l3.288-82.51z" fill="#B768B0"/><path d="M183.969 90.721c13.126 0 23.766-20.309 23.766-45.36C207.735 20.309 197.095 0 183.969 0c-13.125 0-23.766 20.309-23.766 45.36 0 25.052 10.641 45.361 23.766 45.361z" fill="#EEF3FF"/><path d="M183.969 85.179c10.251 0 18.561-17.827 18.561-39.819 0-21.991-8.31-39.819-18.561-39.819s-18.56 17.828-18.56 39.82c0 21.99 8.309 39.818 18.56 39.818zm23.15-66.911s20.341 15.051 35.203 18.883v.41s-19.793-4.515-34.587-15.804c0 0-1.849-2.668-.616-3.49zm8.972 56.58v9.442h3.356V73.41l-3.356 1.437z" fill="#36162C"/><path d="M216.091 84.29l14.588-7.663h1.507l-12.739 7.663h-3.356z" fill="#36162C"/><path d="M230.679 76.627v-7.663l1.507-.547v8.21s-1.507.616-1.507 0z" fill="#36162C"/><path d="M189.311 57.197c3.425-10.537 1.028-19.362-1.095-24.22-.685-.274-1.37-.479-2.124-.479-4.52 0-8.15 5.747-8.15 12.862 0 7.116 3.63 12.863 8.15 12.863a5.458 5.458 0 003.219-1.026z" fill="#EEF3FF"/></svg>