<svg width="681" height="668" viewBox="0 0 681 668" fill="none" xmlns="http://www.w3.org/2000/svg">
<path d="M616.854 83.6166C486.124 -51.1394 285.513 10.3394 234.738 40.2402C152.119 88.8218 119.755 154.812 128.034 207.5C137.124 265.161 129.771 326.293 67.2432 391.184C11.6047 448.962 43.853 548.843 43.853 548.843L227.095 579.38C337.272 519.752 404.606 589.964 523.467 539.069C694.551 465.792 725.236 195.354 616.854 83.6166Z" fill="#373B40"/>
<path d="M563.879 437.684C563.821 436.99 558.263 370.479 595.316 332.713L596.185 333.58C559.536 370.942 565.037 436.932 565.095 437.568L563.879 437.684Z" fill="#FFB0B4"/>
<path d="M560.81 435.544L559.595 435.486C559.652 434.734 563.589 361.052 562.026 343.412L563.242 343.297C564.805 361.052 560.81 434.792 560.81 435.544Z" fill="#FFB0B4"/>
<path d="M552.936 435.544C552.936 434.966 551.084 376.841 530.588 345.032L531.572 344.396C552.3 376.494 554.094 434.908 554.152 435.486L552.936 435.544Z" fill="#FFB0B4"/>
<path d="M556.757 435.544L555.542 435.428C555.542 435.081 557.684 401.248 525.551 391.242L525.899 390.086C559.015 400.438 556.815 435.197 556.757 435.544Z" fill="#FFB0B4"/>
<path d="M548.999 434.676L547.899 434.156C548.073 433.809 548.247 432.421 548.536 430.802C550.099 420.391 554.963 388.64 582.29 383.087L582.521 384.244C556.005 389.623 551.257 420.738 549.694 430.975C549.347 433.173 549.173 434.214 548.999 434.676Z" fill="#FFB0B4"/>
<path d="M593.348 344.396L604.291 346.94C613.843 342.892 621.659 337.398 627.912 331.441L610.717 325.773L631.039 328.26C635.96 322.997 639.897 317.502 642.965 312.355L635.323 305.53L645.455 307.902C650.897 297.376 652.692 289.221 652.692 289.221C649.102 289.105 645.744 289.163 642.502 289.337L641.228 294.31L639.897 289.568C619.286 291.303 605.912 298.937 597.169 308.364L598.385 320.972L592.711 313.916C580.032 331.903 581.016 353.129 581.016 353.129C587.558 352.319 593.522 350.873 598.964 349.022L593.348 344.396Z" fill="#FFB0B4"/>
<path d="M572.911 342.024L577.948 338.959C579.684 330.978 579.627 323.401 578.469 316.577L563.531 322.592L577.832 313.28C576.037 305.068 572.795 297.954 569.61 292.402L562.431 295.409L568.163 290.031C563.763 283.033 559.768 279.042 559.768 279.042C552.878 286.618 548.652 294.484 546.336 302.292L556.758 307.902L545.41 305.935C542.457 318.948 544.599 331.614 548.247 342.14L558.61 346.536H549.926C555.426 360.127 562.779 369.207 562.779 369.207C570.305 359.78 574.821 350.642 577.137 341.967H572.911V342.024Z" fill="#FFB0B4"/>
<path d="M536.494 341.851L540.952 329.821C537.536 316.288 530.473 307.381 523.525 301.655L517.33 308.943L520.399 299.284C512.583 293.732 505.693 292.055 505.693 292.055C502.74 307.15 503.435 319.353 506.098 329.069H518.488L507.488 333.465C511.309 344.049 517.62 351.394 523.699 356.425H530.473L526.536 358.623C534.352 364.233 541.126 366.084 541.126 366.084C543.383 353.881 543.383 343.644 541.994 335.084L536.494 341.851Z" fill="#FFB0B4"/>
<path d="M613.786 371.983L609.791 375.395L610.891 371.289C608.112 370.653 605.506 370.248 603.133 370.017L599.369 374.528L601.222 369.901C593.927 369.438 588.253 370.711 583.795 372.735L579.279 381.526L580.264 374.643C571.29 380.485 569.032 389.449 569.032 389.449C570.769 389.854 572.448 390.201 574.069 390.49V387.946L577.369 391.011C583.969 391.878 589.643 391.763 594.506 391.011L587.095 383.145L597.575 390.432C602.033 389.391 605.738 387.888 608.749 386.095L606.317 381.526L611.296 384.418C618.128 379.559 620.559 374.065 620.559 374.065C618.244 373.255 615.986 372.561 613.786 371.983Z" fill="#FFB0B4"/>
<path d="M510.73 391.589L507.372 397.141C510.904 398.645 515.072 399.57 520.051 399.455L522.367 395.696L521.73 399.339C526.072 398.992 530.994 397.835 536.494 395.58C536.494 395.58 534.641 391.242 530.357 386.905L529.951 391.589L528.967 385.574C527.057 383.839 524.741 382.22 522.02 380.89L521.209 386.095L519.935 380.022C515.883 378.461 511.019 377.651 505.23 378.229L504.419 385.17C504.419 385.17 502.277 381.526 500.714 378.923C497.935 379.559 494.924 380.427 491.74 381.757C491.74 381.757 495.503 390.78 504.94 395.927L510.73 391.589Z" fill="#FFB0B4"/>
<path d="M517.388 308.827C517.793 305.01 517.851 301.135 517.735 297.549C511.077 293.443 505.693 292.113 505.693 292.113C502.74 307.208 503.435 319.411 506.098 329.127H510.093C514.493 323.749 516.519 316.346 517.33 308.943L517.272 309.001L517.388 308.827Z" fill="#EC8A92"/>
<path d="M592.132 117.624H413.638V198.073H592.132V117.624Z" fill="#DDE4EF"/>
<path d="M398.932 498.295H218.121C215.632 498.295 213.663 496.329 213.663 493.842V147.814C213.663 145.327 215.632 143.36 218.121 143.36H398.932C401.421 143.36 403.39 145.327 403.39 147.814V493.784C403.39 496.271 401.364 498.295 398.932 498.295Z" fill="#CFD4DD"/>
<path d="M387.99 442.137H229.064C227.095 442.137 225.474 440.518 225.474 438.551V169.039C225.474 167.073 227.095 165.453 229.064 165.453H387.99C389.958 165.453 391.579 167.073 391.579 169.039V438.551C391.521 440.576 389.958 442.137 387.99 442.137Z" fill="#E2E8EF"/>
<path d="M121.608 369.901C121.608 369.901 81.4278 392.515 48.2532 431.669C15.4259 470.419 -5.01154 502.864 1.06758 521.892C6.97301 540.341 52.3059 536.929 82.7594 501.013L76.7961 485.34L62.2062 490.43C62.2062 490.43 66.8958 481.118 78.2435 472.732L121.608 369.901Z" fill="#FFB0B4"/>
<path d="M115.992 373.313C108.292 378.287 112.171 375.395 98.9126 384.938C93.2387 389.218 56.0692 465.618 51.727 493.9C51.7849 493.9 54.7376 493.032 54.7376 493.032L65.7379 489.099L62.1483 490.372C62.1483 490.372 64.8116 485.109 70.9486 478.92L98.0441 425.77L113.097 390.085L115.992 373.313Z" fill="#EC8A92"/>
<path d="M158.314 368.629C158.314 368.629 133.419 367.645 126.124 368.629C118.887 369.612 107.018 378.981 98.6809 393.671C90.4017 408.361 76.6224 432.768 57.3429 486.034C38.0633 539.3 42.1161 547.282 46.8636 555.841C51.6111 564.401 81.7751 589.617 141.524 594.244C201.273 598.871 240.411 576.893 241.975 562.03C243.19 550.752 238.501 490.43 232.595 437.568C226.69 384.765 217.137 376.668 209.553 373.718C202.084 370.711 158.314 368.629 158.314 368.629Z" fill="#FFB0B4"/>
<path d="M144.824 368.224C144.824 368.224 135.445 379.328 138.108 387.367C140.714 395.406 170.53 389.97 183.499 370.19C183.499 370.248 156.983 368.224 144.824 368.224Z" fill="#E98870"/>
<path d="M73.2065 465.792C73.2065 465.792 80.8489 513.737 58.0377 573.365C58.0377 573.365 95.3809 609.628 146.967 594.417C146.967 594.417 179.273 566.888 166.709 472.732C166.709 472.732 129.829 470.419 73.2065 465.792Z" fill="#EBF1FC"/>
<path d="M144.824 368.224C144.824 368.224 151.656 348.675 153.161 325.079L179.041 326.409C179.041 326.409 180.315 361.226 183.499 370.19C183.499 370.248 145.114 379.386 144.824 368.224Z" fill="#E98870"/>
<path d="M179.389 305.473H152.641V344.685H179.389V305.473Z" fill="#E98870"/>
<path d="M150.498 306.745C150.498 306.745 145.519 346.362 156.693 347.056C166.478 347.692 175.22 345.09 177.71 325.541C177.71 325.541 165.783 307.15 150.498 306.745Z" fill="#E98870"/>
<path d="M51.9006 493.321C51.9006 493.321 40.4951 494.883 40.4951 490.083C40.4951 490.083 46.1689 494.131 53.5796 488.174L51.9006 493.321Z" fill="#EC8A92"/>
<path d="M242.033 561.162C229.122 560.41 168.851 532.592 168.851 532.592L168.504 536.119C186.741 560.873 211.463 573.655 226.458 579.207C235.953 573.597 241.338 567.35 241.917 562.03C241.975 561.74 242.033 561.451 242.033 561.162Z" fill="#EC8A92"/>
<path d="M201.1 390.953C201.1 390.953 193.168 412.294 204.516 437.915C204.516 437.973 186.568 413.971 201.1 390.953Z" fill="#EC8A92"/>
<path d="M226.922 495.808C226.922 495.808 234.217 518.075 213.895 519.521L226.922 495.808Z" fill="#EC8A92"/>
<path d="M53.9269 484.183C53.9269 484.183 52.6532 490.487 47.0373 491.297C47.0373 491.297 52.7111 491.124 53.5796 489.736C54.448 488.29 53.9269 484.183 53.9269 484.183Z" fill="#EC8A92"/>
<path d="M98.9704 384.996C98.9704 384.996 93.0071 392.804 87.1016 399.339C81.1962 405.817 86.0016 412.93 86.0016 412.93C86.0016 412.93 98.8546 391.589 98.9704 384.996Z" fill="#EC8A92"/>
<path d="M151.598 320.799C151.598 320.799 149.167 317.155 145.461 319.006C142.103 320.683 142.74 328.78 152.177 327.508C152.177 327.508 152.467 323.344 151.598 320.799Z" fill="#E98870"/>
<path d="M149.63 314.495C149.63 314.495 152.004 319.295 159.588 319.989C167.172 320.625 174.062 316.346 175.336 313.165C175.336 313.165 176.436 316.982 178.983 317.097L179.331 328.954C179.331 328.954 181.241 310.793 179.852 304.142C178.462 297.433 170.994 296.392 164.799 296.566C157.041 296.797 149.861 300.267 148.298 303.969C146.735 307.67 147.372 313.338 149.456 317.387L149.63 314.495Z" fill="#36162C"/>
<path d="M178.115 318.428C178.115 318.428 179.91 314.437 183.847 315.594C187.436 316.635 188.247 324.732 178.752 325.137C178.694 325.137 177.71 321.088 178.115 318.428Z" fill="#E98870"/>
<path d="M151.309 341.33C151.309 341.33 153.393 346.246 157.504 347.403C163.12 348.965 171.862 346.362 176.031 338.496C176.031 338.496 175.046 358.103 162.309 358.103C149.456 358.103 151.135 342.661 151.135 342.661L151.309 341.33Z" fill="#CC7261"/>
<path d="M46.9794 518.248C44.7793 526.345 43.6793 532.418 43.2161 537.218C62.322 529.758 72.9749 512.407 72.9749 512.407L73.3223 509.226L46.9794 518.248Z" fill="#EC8A92"/>
<path d="M72.9749 512.349C72.9749 512.349 77.2592 506.739 78.8803 504.021C78.8803 504.021 83.8594 505.004 86.2332 502.112C91.3281 495.924 94.6282 488.752 94.6282 488.752L76.9119 501.36L78.0698 502.922L73.3223 509.168L72.9749 512.349Z" fill="#36162C"/>
<path d="M94.9756 487.711C94.9756 487.191 94.6282 486.67 93.9914 486.902C92.3703 487.538 89.186 490.372 87.7386 491.239L89.4175 489.099C90.6912 486.67 91.7913 484.126 92.8334 481.581C92.9492 481.292 92.8913 481.06 92.7176 480.887C92.4281 480.366 91.6176 480.135 91.2123 480.771C90.286 482.39 87.5649 486.15 86.1753 487.48C86.349 486.786 88.028 483.836 88.2017 483.142C88.8965 480.771 89.4754 478.342 89.9965 475.971C90.0544 475.855 90.0544 475.797 90.1123 475.682C90.4018 474.872 89.4175 474.409 88.8386 474.814C88.7228 474.872 88.6649 474.988 88.5491 475.103C88.5491 475.161 88.4912 475.161 88.4333 475.219V475.277C88.4333 475.335 88.3754 475.335 88.3754 475.335C88.3754 475.392 88.3754 475.45 88.3175 475.45C87.4491 477.879 86.4069 480.135 84.9595 482.333C84.5542 482.969 83.1068 485.224 82.6436 485.861C83.2226 483.952 85.0174 478.284 85.3069 476.26C85.3069 476.202 85.249 476.144 85.249 476.086C85.3069 475.624 85.0753 475.335 84.6121 475.219C84.2648 475.103 83.8595 475.219 83.6858 475.624C83.6279 475.682 83.57 475.682 83.57 475.739C81.9489 479.846 78.8225 485.34 75.4066 488.058C74.4224 486.612 74.654 485.34 74.4224 484.01C74.4224 483.952 74.3645 483.952 74.3645 483.894C74.3066 483.721 74.2487 483.605 74.075 483.489C74.075 483.489 74.075 483.489 74.0171 483.489C73.6118 483.2 73.5539 483.258 73.3223 483.894C72.5118 485.976 71.7592 488.116 70.9486 490.198C70.8907 490.314 70.9486 490.372 70.9486 490.43C70.8328 490.661 70.7749 490.892 70.9486 491.239C72.8013 494.709 74.5382 498.18 76.7961 501.36C76.9698 501.65 77.2593 501.707 77.5488 501.707C77.6646 501.881 77.8962 501.997 78.1857 501.997C86.5227 501.997 88.8386 492.974 94.5703 488.752C95.0335 488.463 95.0914 488.058 94.9756 487.711Z" fill="#E98870"/>
<path d="M71.0064 489.504C71.0064 489.504 60.8166 493.09 51.0901 493.321L41.3635 529.584C41.3635 529.584 65.8537 522.123 78.0698 502.922L71.0064 489.504Z" fill="#FFB0B4"/>
<path d="M168.504 536.062C168.504 536.062 163.641 529.642 161.962 527.155C161.962 527.155 155.941 525.362 151.888 522.991C147.835 520.677 146.04 511.771 147.256 511.482L163.178 525.131L162.251 526.23L168.851 532.476L168.504 536.062Z" fill="#36162C"/>
<path d="M172.209 511.366C171.978 509.342 171.399 507.375 170.704 505.467C170.704 505.409 170.646 505.409 170.588 505.351C170.53 505.235 170.473 505.178 170.357 505.12C170.241 505.062 170.183 505.062 170.067 505.062C170.009 505.062 169.952 505.062 169.952 505.062C169.836 505.12 169.72 505.178 169.662 505.235C169.604 505.293 169.546 505.293 169.488 505.351C169.43 505.409 169.43 505.525 169.373 505.64C169.373 505.698 169.315 505.756 169.315 505.872C169.43 507.491 169.43 509.168 169.315 510.788C164.162 506.45 158.777 501.534 158.314 494.42C158.314 494.015 157.967 493.842 157.62 493.842C157.562 493.842 157.562 493.842 157.562 493.842H157.504C157.156 493.842 156.867 494.015 156.867 494.478C156.809 498.411 156.867 501.939 157.62 505.525C154.725 501.823 150.73 498.931 148.067 494.999C148.009 494.941 148.009 494.941 147.951 494.941C147.893 494.883 147.835 494.767 147.777 494.709C147.198 493.958 146.098 494.883 146.619 495.693C148.472 498.237 149.051 501.823 150.44 504.657C151.077 505.987 151.772 507.26 152.467 508.474C149.746 506.45 146.967 504.426 145.346 501.418C145.114 500.956 144.709 500.956 144.361 501.129C144.014 501.303 143.782 501.65 144.014 502.112C145.693 505.814 147.603 509.342 150.093 512.465C149.282 511.944 148.53 511.366 147.835 510.672C147.256 510.094 146.446 510.672 146.561 511.308C146.561 511.424 146.503 511.482 146.561 511.597C149.282 518.653 156.809 520.967 162.541 525.131C162.714 525.246 162.946 525.304 163.12 525.246C163.409 525.362 163.757 525.304 163.988 525.015C166.072 522.528 168.504 520.273 170.762 517.959C170.82 517.901 170.762 517.844 170.82 517.844C170.994 517.728 171.167 517.612 171.225 517.323C171.515 515.067 172.441 513.679 172.209 511.366Z" fill="#E98870"/>
<path d="M218.295 380.774C218.295 380.774 247.649 421.721 269.36 471.691C291.071 521.718 276.191 551.272 254.249 558.791C232.248 566.252 197.916 561.798 162.309 526.287L172.441 514.084C172.441 514.084 209.032 527.618 223.622 515.01C238.211 502.401 210.305 453.878 201.737 430.859C192.357 405.99 202.374 370.768 218.295 380.774Z" fill="#FFB0B4"/>
<path d="M580.321 134.049H534.178V135.495H580.321V134.049Z" fill="#B768B0"/>
<path d="M580.321 141.683H534.178V143.129H580.321V141.683Z" fill="#B768B0"/>
<path d="M580.321 158.687H534.178V160.133H580.321V158.687Z" fill="#B768B0"/>
<path d="M580.321 166.321H534.178V167.767H580.321V166.321Z" fill="#B768B0"/>
<path d="M580.321 183.845H534.178V185.291H580.321V183.845Z" fill="#B768B0"/>
<path d="M331.54 350.873H285.397V352.319H331.54V350.873Z" fill="#36162C"/>
<path d="M368.999 363.655H248.054V365.101H368.999V363.655Z" fill="#36162C"/>
<path d="M368.999 376.494H248.054V377.94H368.999V376.494Z" fill="#36162C"/>
<path d="M368.999 389.334H248.054V390.78H368.999V389.334Z" fill="#36162C"/>
<path d="M580.321 191.479H534.178V192.925H580.321V191.479Z" fill="#B768B0"/>
<path d="M324.134 472.723C325.367 464.123 319.386 456.153 310.777 454.922C302.168 453.691 294.189 459.665 292.957 468.265C291.724 476.866 297.705 484.836 306.314 486.067C314.924 487.298 322.902 481.324 324.134 472.723Z" fill="#DDE4EF"/>
<path d="M308.498 333.176C327.075 333.176 342.135 318.131 342.135 299.573C342.135 281.015 327.075 265.971 308.498 265.971C289.92 265.971 274.86 281.015 274.86 299.573C274.86 318.131 289.92 333.176 308.498 333.176Z" fill="#B768B0"/>
<path d="M373.979 155.506C373.979 156.894 372.878 157.993 371.489 157.993C370.099 157.993 368.999 156.894 368.999 155.506C368.999 154.118 370.099 153.019 371.489 153.019C372.878 153.019 373.979 154.118 373.979 155.506Z" fill="#36162C"/>
<path d="M372.472 155.505C372.472 156.084 372.009 156.488 371.488 156.488C370.91 156.488 370.505 156.026 370.505 155.505C370.505 154.985 370.968 154.523 371.488 154.523C372.009 154.523 372.472 154.927 372.472 155.505Z" fill="#E2E8EF"/>
<path d="M328.704 157.53H288.35C287.945 157.53 287.655 157.241 287.655 156.836V154.176C287.655 153.771 287.945 153.482 288.35 153.482H328.704C329.109 153.482 329.398 153.771 329.398 154.176V156.778C329.398 157.183 329.109 157.53 328.704 157.53Z" fill="#DDE4EF"/>
<path d="M186.742 130.29L174.699 126.877C174.352 126.762 174.12 126.415 174.236 126.01L174.931 123.639C175.046 123.292 175.394 123.06 175.799 123.176L187.842 126.588C188.189 126.704 188.421 127.051 188.305 127.456L187.61 129.827C187.494 130.174 187.147 130.405 186.742 130.29Z" fill="#DDE4EF"/>
<path d="M181.647 156.142L169.141 155.911C168.736 155.911 168.446 155.564 168.446 155.217L168.504 152.73C168.504 152.325 168.851 152.036 169.199 152.036L181.705 152.267C182.11 152.267 182.399 152.614 182.399 152.961L182.341 155.448C182.341 155.853 182.052 156.142 181.647 156.142Z" fill="#DDE4EF"/>
<path d="M188.363 182.226L176.494 186.216C176.146 186.332 175.741 186.158 175.625 185.754L174.815 183.44C174.699 183.093 174.873 182.688 175.278 182.573L187.147 178.582C187.494 178.466 187.899 178.64 188.015 179.045L188.826 181.358C188.942 181.705 188.71 182.052 188.363 182.226Z" fill="#DDE4EF"/>
<path d="M430.196 353.013H414.738V498.237H430.196V353.013Z" fill="#EEF3FF"/>
<path d="M357.941 493.437H327.546V523.8H357.941V493.437Z" fill="#EEF3FF"/>
<path d="M371.431 463.074H341.035V493.437H371.431V463.074Z" fill="#EEF3FF"/>
<path d="M388.337 493.437H357.941V523.8H388.337V493.437Z" fill="#EEF3FF"/>
<path d="M456.597 394.307H441.138V498.237H456.597V394.307Z" fill="#EEF3FF"/>
<path d="M425.448 173.84C425.448 173.84 430.022 151.689 434.422 151.284C438.823 150.879 441.659 174.765 444.728 176.442C447.796 178.119 449.186 131.273 454.107 130.174C459.086 129.075 461.576 172.394 464.471 173.493C467.365 174.591 469.276 138.849 474.255 137.403C479.234 135.9 481.898 179.97 485.14 181.127C488.382 182.226 491.682 151.689 496.372 150.416V192.925H425.796L425.448 173.84Z" fill="#B768B0"/>
<path d="M528.909 123.523H507.43V143.071H528.909V123.523Z" fill="#B768B0"/>
<path d="M528.909 148.219H507.43V167.767H528.909V148.219Z" fill="#B768B0"/>
<path d="M528.909 173.377H507.43V192.925H528.909V173.377Z" fill="#B768B0"/>
<path d="M577.079 495.808C590.743 477.301 588.716 441.79 588.716 441.79L557.279 439.014L525.841 441.79C525.841 441.79 523.815 477.301 537.478 495.808H577.079Z" fill="#CFD4DD"/>
<path d="M593.348 433.115H521.267V442.195H593.348V433.115Z" fill="#EEF3FF"/>
<path d="M525.841 442.195L525.725 446.128C525.725 446.128 553.863 455.555 588.601 453.589C588.601 453.589 589.006 446.822 588.659 442.195H525.841Z" fill="#36162C"/>
<path d="M458.449 173.377H279.955V317.271H458.449V173.377Z" fill="#EEF3FF"/>
<path d="M332.988 187.662H291.881V226.412H332.988V187.662Z" fill="#B768B0"/>
<path d="M332.988 235.955H291.881V237.401H332.988V235.955Z" fill="#B768B0"/>
<path d="M332.988 249.604H291.881V251.05H332.988V249.604Z" fill="#B768B0"/>
<path d="M332.988 263.195H291.881V264.641H332.988V263.195Z" fill="#B768B0"/>
<path d="M332.988 276.844H291.881V278.29H332.988V276.844Z" fill="#B768B0"/>
<path d="M444.786 289.163H291.881V290.609H444.786V289.163Z" fill="#B768B0"/>
<path d="M444.786 301.54H291.881V302.986H444.786V301.54Z" fill="#B768B0"/>
<path d="M444.786 187.662H348.678V278.29H444.786V187.662Z" fill="#B768B0"/>
<path d="M312.435 207.037L315.445 192.405C314.461 192.231 313.477 192.116 312.435 192.116C304.155 192.116 297.497 198.824 297.497 207.037C297.497 215.307 304.213 221.958 312.435 221.958C320.714 221.958 327.372 215.25 327.372 207.037C327.372 206.574 327.372 206.054 327.314 205.591L312.435 207.037Z" fill="white"/>
<path d="M496.777 209.119C496.777 209.119 496.256 210.334 496.835 211.606C497.414 212.878 497.935 214.324 497.124 215.886C496.314 217.447 495.561 210.218 495.561 210.218L496.777 209.119Z" fill="#36162C"/>
<path d="M497.182 222.71C497.182 222.71 496.835 223.925 497.761 225.197C498.456 226.123 499.672 225.949 500.482 227.395C501.235 228.841 499.845 230.055 499.903 230.807C499.961 231.559 500.656 233.294 498.745 234.046L495.619 233.005L494.519 232.022L494.866 223.057L497.182 222.71Z" fill="#36162C"/>
<path d="M437.723 233.757C436.796 234.104 436.159 234.798 435.638 235.608C435.059 233.699 434.712 231.501 434.943 229.535C434.943 229.477 434.943 229.477 434.943 229.477C434.886 229.304 434.596 229.304 434.538 229.535C434.075 230.807 433.554 232.427 433.264 233.757C432.801 232.022 432.396 229.998 432.338 228.262C432.338 228.205 432.338 228.205 432.28 228.147C432.222 227.916 431.933 227.858 431.817 228.147C431.296 230.055 431.354 231.964 431.47 233.873C431.007 232.716 430.428 231.501 430.196 230.229C430.138 229.94 429.675 230.055 429.733 230.345C429.675 232.195 429.906 233.988 430.254 235.723C429.964 235.145 429.733 234.567 429.559 233.988C429.559 233.988 429.559 233.988 429.559 233.93C429.559 233.873 429.501 233.873 429.501 233.815H429.443H429.385C429.328 233.815 429.328 233.815 429.27 233.873C429.27 233.873 429.212 233.873 429.212 233.93C429.154 233.93 429.154 233.988 429.154 234.046C429.154 234.046 429.154 234.046 429.154 234.104C428.98 236.938 429.906 239.54 431.759 241.68C431.759 241.738 431.817 241.854 431.933 241.796C433.264 241.68 434.596 241.565 435.928 241.507C436.044 241.565 436.159 241.565 436.275 241.449C437.607 239.251 436.738 236.475 438.012 234.22C438.07 234.162 438.07 234.104 438.012 234.046C437.954 233.815 437.838 233.699 437.723 233.757Z" fill="#E98870"/>
<path d="M479.582 488.521H478.192L477.903 305.877L447.507 295.467C447.507 295.467 432.801 406.106 460.013 488.868H458.681C459.492 492.685 461.923 498.527 461.923 498.527L463.429 498.584C464.065 500.319 464.76 502.054 465.455 503.732L478.134 504.137V499.336L480.045 499.452C481.087 494.305 479.582 488.521 479.582 488.521Z" fill="#5835BA"/>
<path d="M512.061 487.017L510.093 487.075C504.072 431.38 501.64 349.427 505.056 342.082C509.456 332.713 508.935 314.263 506.098 306.918C503.782 300.904 504.361 299.516 504.361 299.516L464.181 303.506C464.181 303.506 459.781 313.107 458.391 359.259C456.828 411.137 478.424 462.206 491.161 487.596L489.134 487.654C490.756 492.338 494.635 498.469 494.635 498.469H496.893C498.919 502.112 500.135 504.137 500.135 504.137L512.119 503.558C511.888 501.881 511.656 500.204 511.483 498.469H513.914C514.262 492.627 512.061 487.017 512.061 487.017Z" fill="#5835BA"/>
<path d="M478.192 468.51C478.192 468.51 454.281 418.02 458.334 364.407C458.334 364.407 456.77 405.585 478.192 458.562V468.51Z" fill="#36162C"/>
<path d="M464.181 303.564C464.181 303.564 462.097 312.181 461.692 314.842C461.692 314.842 461.634 306.861 461.981 303.217L464.181 303.564Z" fill="#36162C"/>
<path d="M499.324 303.68C499.324 303.68 500.482 315.941 508.182 319.527C507.951 314.437 507.198 309.868 506.098 306.976C503.782 300.961 504.361 299.573 504.361 299.573L499.324 303.68Z" fill="#36162C"/>
<path d="M465.628 234.682C465.628 234.682 457.176 238.499 447.333 268.458C447.333 268.458 439.923 256.833 436.622 241.16L431.296 241.333C431.296 241.333 426.838 287.891 449.244 290.493C473.213 293.269 465.628 234.682 465.628 234.682Z" fill="#FFB0B4"/>
<path d="M495.169 207.951L485.125 208.733L486.278 223.495L496.322 222.712L495.169 207.951Z" fill="#E98870"/>
<path d="M489.598 231.675C489.598 231.675 503.551 233.641 507.546 240.177C509.572 243.473 510.672 247.811 509.225 257.064C507.777 266.318 507.893 281.702 508.298 286.734C508.588 290.262 508.877 300.846 497.877 304.142C486.934 307.439 461.807 303.911 453.818 301.251C442.007 297.318 447.449 281.991 449.302 271.87C451.791 258.163 459.897 241.449 461.692 238.557C465.165 233.063 473.213 229.882 489.598 231.675Z" fill="#FFB0B4"/>
<path d="M495.619 233.005C495.619 233.005 490.003 238.152 483.924 238.152C477.845 238.095 482.071 231.154 482.071 231.154C482.071 231.154 488.787 230.981 495.619 233.005Z" fill="#E98870"/>
<path d="M495.619 233.005C495.619 233.005 495.156 224.445 495.619 219.182L487.456 218.488C487.456 218.488 485.371 227.106 482.071 231.212L485.661 233.988L495.619 233.005Z" fill="#E98870"/>
<path d="M495.156 207.905C495.156 207.905 497.298 214.324 498.05 217.563C498.803 220.802 498.687 225.429 491.798 223.231L495.156 207.905Z" fill="#E98870"/>
<path d="M447.333 268.4C447.333 268.4 448.202 269.962 449.533 269.094C449.533 269.094 447.912 267.706 448.144 266.029L447.333 268.4Z" fill="#EC8A92"/>
<path d="M433.612 273.316C433.612 273.316 437.78 281.876 439.749 283.611C442.702 286.213 443.396 283.842 445.886 283.206C447.796 282.743 447.333 278.232 449.012 273.779L446.523 289.857C446.523 289.915 437.433 288.411 433.612 273.316Z" fill="#EC8A92"/>
<path d="M508.356 292.46L488.787 273.779C488.787 273.779 488.671 293.501 501.003 302.87C505.751 300.325 507.719 296.161 508.356 292.46Z" fill="#EC8A92"/>
<path d="M508.125 276.902C508.125 276.902 504.651 265.971 503.319 263.311C503.319 263.311 505.461 277.712 508.067 279.1L508.125 276.902Z" fill="#EC8A92"/>
<path d="M463.486 498.642L478.192 499.394L478.134 501.534C478.134 501.534 469.334 501.129 463.892 499.799L463.486 498.642Z" fill="#36162C"/>
<path d="M496.893 498.527H511.425L511.54 499.51C511.54 499.51 504.477 500.724 497.993 500.551L496.893 498.527Z" fill="#36162C"/>
<path d="M491.392 267.764C491.334 267.706 491.277 267.706 491.219 267.706C490.756 267.186 490.292 266.607 490.003 265.971C489.887 265.682 489.482 265.74 489.482 266.029C489.482 266.376 489.482 266.665 489.482 267.012C489.134 266.896 488.845 266.839 488.498 266.723C486.703 266.26 484.966 265.566 483.287 264.699C483.055 264.583 482.766 264.814 482.94 265.046C483.75 266.145 484.676 267.07 485.719 267.88C485.082 268.111 484.792 268.632 484.966 269.383C484.329 269.846 484.213 270.598 484.792 271.292C485.14 272.969 487.571 273.374 489.019 273.721C489.077 273.779 489.134 273.837 489.25 273.779C490.698 273.374 492.203 273.258 493.535 272.622C493.65 272.622 493.824 272.564 493.824 272.391C493.766 270.482 493.013 268.805 491.392 267.764Z" fill="#E98870"/>
<path d="M497.935 234.046C497.935 234.046 510.267 236.186 516.172 248.158C519.414 254.751 531.746 284.768 523.12 297.549C515.13 309.348 492.666 292.575 488.845 273.779L494.172 272.044C494.172 272.044 501.814 282.975 509.977 284.421C509.977 284.421 509.109 276.671 504.825 268.921C504.767 268.921 486.645 231.906 497.935 234.046Z" fill="#FFB0B4"/>
<path d="M482.071 231.154C482.071 231.154 483.75 224.619 482.071 217.794C480.392 210.97 480.045 206.227 484.04 203.798C488.035 201.369 492.435 201.485 494.461 203.046C495.908 204.203 498.166 208.02 496.024 210.681L495.793 210.044C495.793 210.044 495.272 209.061 493.593 210.16C491.393 211.606 488.44 211.085 487.803 209.929C487.803 209.929 488.092 210.912 487.398 211.49L485.487 214.209L486.124 222.595C486.182 222.71 484.04 229.304 482.071 231.154Z" fill="#36162C"/>
<path d="M487.456 211.548C487.456 211.548 486.529 209.871 484.85 210.507C483.287 211.086 483.287 214.671 487.456 214.498C487.456 214.556 487.745 212.705 487.456 211.548Z" fill="#E98870"/>
<path d="M486.24 214.44C486.24 214.44 487.398 215.481 487.224 217.794C486.992 220.108 486.182 220.166 487.571 223.347C488.961 226.47 489.135 232.832 482.071 231.212C475.008 229.535 484.387 216.58 484.387 216.58L485.545 214.324L486.24 214.44Z" fill="#36162C"/>
<path d="M481.608 215.654C481.608 215.654 481.781 217.737 480.681 218.315C479.524 218.893 478.655 219.761 479.06 221.496C479.466 223.231 478.771 223.925 478.076 224.156C477.381 224.388 475.645 224.735 475.297 226.817C474.95 228.841 476.86 229.998 476.05 231.501C476.05 231.501 479.929 231.154 482.129 231.212C484.329 231.27 484.271 222.71 484.271 222.71C484.271 222.71 484.387 218.199 484.271 217.968C484.097 217.679 481.608 215.654 481.608 215.654Z" fill="#36162C"/>
<path d="M482.419 205.88C482.419 205.88 481.203 206.169 480.855 207.211C480.508 208.136 480.624 209.235 481.203 209.871C481.84 210.507 482.419 205.88 482.419 205.88Z" fill="#36162C"/>
<path d="M482.071 231.154C482.071 231.154 481.608 231.096 481.434 231.848C481.261 232.6 481.087 233.93 478.829 233.93C476.571 233.93 475.355 232.427 475.934 231.386C476.513 230.345 480.508 230.229 480.566 230.229C480.624 230.229 482.071 230.171 482.071 230.171V231.154Z" fill="#36162C"/>
<path d="M468.35 503.79L453.354 509.573V511.366H477.903L478.192 506.045L476.513 504.021L468.35 503.79Z" fill="#36162C"/>
<path d="M501.814 504.079L500.482 505.698V509.804L518.025 514.316L521.267 513.969L512.467 505.004L510.209 503.674L501.814 504.079Z" fill="#36162C"/>
<path d="M487.05 314.263C487.05 314.263 485.487 324.963 497.298 327.276C497.298 327.276 491.798 328.722 487.977 324.385C484.85 320.683 487.05 314.263 487.05 314.263Z" fill="#36162C"/>
<path d="M495.387 223.809C495.387 223.809 493.187 223.983 491.798 223.289C491.798 223.289 491.682 228.494 495.387 228.263C495.445 228.263 495.387 224.561 495.387 223.809Z" fill="#CC7261"/>
<path d="M222.29 263.311C222.29 257.932 217.89 253.537 212.505 253.537H175.452C170.067 253.537 165.667 257.932 165.667 263.311C165.667 268.689 170.067 273.085 175.452 273.085H205.21V283.148L217.542 271.639C220.437 269.904 222.29 266.839 222.29 263.311Z" fill="#B768B0"/>
<path d="M179.215 263.195C179.215 264.005 178.578 264.641 177.767 264.641C176.957 264.641 176.32 264.005 176.32 263.195C176.32 262.385 176.957 261.749 177.767 261.749C178.578 261.749 179.215 262.385 179.215 263.195Z" fill="#36162C"/>
<path d="M195.426 263.195C195.426 264.005 194.789 264.641 193.979 264.641C193.168 264.641 192.531 264.005 192.531 263.195C192.531 262.385 193.168 261.749 193.979 261.749C194.789 261.749 195.426 262.385 195.426 263.195Z" fill="#36162C"/>
<path d="M210.016 263.195C210.016 264.005 209.379 264.641 208.568 264.641C207.758 264.641 207.121 264.005 207.121 263.195C207.121 262.385 207.758 261.749 208.568 261.749C209.379 261.749 210.016 262.385 210.016 263.195Z" fill="#36162C"/>
<path d="M531.688 212.936C531.688 208.367 535.394 204.666 539.968 204.666H571.232C575.805 204.666 579.511 208.367 579.511 212.936C579.511 217.505 575.805 221.207 571.232 221.207H546.105V229.708L535.683 219.992C533.309 218.546 531.688 215.886 531.688 212.936Z" fill="#B768B0"/>
<path d="M568.105 212.821C568.105 213.457 568.626 214.035 569.321 214.035C570.016 214.035 570.537 213.515 570.537 212.821C570.537 212.184 570.016 211.606 569.321 211.606C568.626 211.606 568.105 212.127 568.105 212.821Z" fill="#36162C"/>
<path d="M554.442 212.821C554.442 213.457 554.963 214.035 555.658 214.035C556.294 214.035 556.873 213.515 556.873 212.821C556.873 212.184 556.352 211.606 555.658 211.606C554.963 211.606 554.442 212.127 554.442 212.821Z" fill="#36162C"/>
<path d="M542.11 212.821C542.11 213.457 542.631 214.035 543.326 214.035C543.962 214.035 544.541 213.515 544.541 212.821C544.541 212.184 544.02 211.606 543.326 211.606C542.631 211.606 542.11 212.127 542.11 212.821Z" fill="#36162C"/>
<path d="M156.404 576.373C147.603 569.201 139.266 561.336 127.861 558.849C109.102 554.858 89.8807 561.914 70.9486 558.56C69.617 571.919 69.2117 585.164 64.4063 598.003C60.1798 609.108 53.1165 618.766 45.2426 627.499C57.7482 626.458 70.7749 624.318 83.3384 625.417C92.8913 626.227 101.807 629.813 110.55 633.572C130.582 642.131 149.803 652.542 166.246 667.058C160.977 642.363 171.978 619.344 182.457 597.598C173.773 590.542 165.088 583.487 156.404 576.373Z" fill="#EEF3FF"/>
<path d="M267.391 149.086C267.391 149.086 271.039 150.763 274.397 151.226C274.397 151.226 278.507 162.215 274.397 169.675C274.397 169.675 269.244 169.675 267.391 170.485V149.086Z" fill="#B768B0"/>
<path d="M267.391 170.543C268.028 170.254 269.07 170.08 270.17 169.965C275.902 162.793 271.791 150.705 271.791 150.705C269.417 150.011 267.449 149.144 267.449 149.144V170.543H267.391Z" fill="#36162C"/>
<path d="M225.127 122.829C225.127 122.829 259.112 145.211 269.07 148.392C269.07 148.392 275.439 161.231 268.491 171.7C268.491 171.7 234.274 182.631 222.348 192.578L225.127 122.829Z" fill="#B768B0"/>
<path d="M215.516 194.834C226.611 194.834 235.606 177.666 235.606 156.489C235.606 135.312 226.611 118.144 215.516 118.144C204.421 118.144 195.426 135.312 195.426 156.489C195.426 177.666 204.421 194.834 215.516 194.834Z" fill="#EEF3FF"/>
<path d="M215.516 190.149C224.181 190.149 231.206 175.079 231.206 156.489C231.206 137.899 224.181 122.829 215.516 122.829C206.851 122.829 199.826 137.899 199.826 156.489C199.826 175.079 206.851 190.149 215.516 190.149Z" fill="#36162C"/>
<path d="M235.085 133.586C235.085 133.586 252.28 146.31 264.844 149.549V149.896C264.844 149.896 248.112 146.079 235.606 136.536C235.606 136.536 234.043 134.28 235.085 133.586Z" fill="#36162C"/>
<path d="M242.669 181.416V189.397H245.506V180.201L242.669 181.416Z" fill="#36162C"/>
<path d="M242.669 189.397L255.001 182.92H256.275L245.506 189.397H242.669Z" fill="#36162C"/>
<path d="M255.001 182.92V176.442L256.275 175.98V182.92C256.275 182.92 255.001 183.44 255.001 182.92Z" fill="#36162C"/>
<path d="M220.032 166.494C222.927 157.588 220.9 150.127 219.106 146.021C218.527 145.79 217.948 145.616 217.311 145.616C213.49 145.616 210.421 150.474 210.421 156.489C210.421 162.504 213.49 167.362 217.311 167.362C218.295 167.362 219.221 167.073 220.032 166.494Z" fill="#EEF3FF"/>
<path d="M355.452 112.303C355.452 112.187 355.452 112.072 355.452 111.898C355.452 104.379 349.315 98.2489 341.788 98.2489C340.109 98.2489 338.546 98.5381 337.041 99.1165C335.42 95.762 331.946 93.4486 327.951 93.4486C327.893 93.4486 327.777 93.4486 327.719 93.4486C324.361 88.5326 318.688 85.2938 312.319 85.2938C304.908 85.2938 298.54 89.6315 295.471 95.8777C294.139 95.4729 292.75 95.2994 291.302 95.2994C282.965 95.2994 276.192 102.066 276.192 110.394C276.192 111.031 276.249 111.667 276.307 112.303C272.891 112.592 270.17 115.368 270.17 118.896C270.17 122.54 273.123 125.547 276.828 125.547C279.144 125.547 287.945 125.547 291.302 125.547H343.409V125.432C345.841 125.142 353.136 125.547 355.394 125.547C359.041 125.547 362.052 122.598 362.052 118.896C362.052 115.253 359.099 112.303 355.452 112.303Z" fill="#E2E8EF"/>
<path d="M499.208 89.458C497.819 89.458 496.487 89.7472 495.272 90.2677C493.129 86.2771 488.903 83.6166 484.098 83.6166C478.655 83.6166 474.024 87.0289 472.229 91.8292C471.129 91.3087 469.855 91.0195 468.581 91.0195C463.602 91.0195 459.607 95.0102 459.607 99.984C459.607 104.958 463.602 108.948 468.581 108.948C471.418 108.948 480.855 108.948 484.155 108.948C487.224 108.948 496.545 108.948 499.266 108.948C504.651 108.948 509.051 104.553 509.051 99.1743C508.993 93.8535 504.593 89.458 499.208 89.458Z" fill="#E2E8EF"/>
<path d="M587.558 241.449V242.201H590.395L575.458 251.628V244.225L552.126 261.344V251.512L531.746 266.723L532.267 267.359L551.315 253.132V262.906L574.705 245.787V253.074L591.322 242.606V246.018H592.132V241.449H587.558Z" fill="white"/>
<path d="M58.0377 573.365L70.9486 558.617L68.5748 581.52C68.5748 581.52 60.7009 576.199 58.0377 573.365Z" fill="#CCD2DD"/>
</svg>
