<svg width="641" height="448" viewBox="0 0 641 448" fill="none" xmlns="http://www.w3.org/2000/svg">
<path d="M460.958 291.552C460.958 291.552 480.378 421.67 488.027 448.001H521.43L530.99 305.271L460.958 291.552Z" fill="#32225C"/>
<path d="M561.107 296.78L613.153 447.939H579.392C579.392 447.939 499.978 352.888 477.809 300.902L561.107 296.78Z" fill="#32225C"/>
<path d="M566.664 283.739C569.413 256.239 556.865 145.377 556.865 145.377C556.865 145.377 556.207 128.028 540.97 128.028H498.006C498.006 128.028 486.414 128.028 479.96 142.67C473.626 157.19 456.297 272.296 456.297 281.217C456.297 282.324 456.417 283.493 456.656 284.601C456.656 284.601 456.237 292.475 477.869 300.842C495.855 307.794 538.46 309.086 561.107 296.72C562.96 295.305 564.692 293.398 565.708 290.814C566.485 288.907 566.903 286.508 566.664 283.739Z" fill="#5835BA"/>
<path d="M540.97 128.089C540.97 128.089 613.034 139.655 627.256 44.0508L638.31 44.4814C638.31 44.4814 642.015 153.621 554.534 173.246L540.97 128.089Z" fill="#5835BA"/>
<path d="M498.006 128.087C498.006 128.087 411.899 135.962 358.419 98.311L351.666 108.154C351.666 108.154 411.063 161.986 473.805 168.323L498.006 128.087Z" fill="#5835BA"/>
<path d="M500.097 131.225C500.097 131.225 505.416 109.57 506.312 94.1279L527.585 97.5116C527.585 97.5116 530.035 114.553 530.991 127.965C530.991 127.965 507.985 135.84 500.097 131.225Z" fill="#E4B69E"/>
<path d="M523.139 70.4012L502.215 73.9873L506.601 101.113L527.525 97.5273L523.139 70.4012Z" fill="#E4B69E"/>
<path d="M502.248 74.0729C502.248 74.0729 497.826 94.5596 501.591 104.403C504.818 113.016 518.621 108.156 521.131 98.9277C523.64 89.6994 520.832 70.074 502.248 74.0729Z" fill="#E4B69E"/>
<path d="M504.698 108.032C504.698 108.032 510.495 110.8 516.112 106.001C516.112 106.001 513.423 117.26 503.384 115.599L504.698 108.032Z" fill="#C19987"/>
<path d="M526.031 379.219C526.031 379.219 500.456 345.013 491.194 327.479C491.194 327.479 500.157 373.559 524.657 399.89L526.031 379.219Z" fill="#1E0E46"/>
<path d="M559.673 172.015C559.673 172.015 555.43 173.06 552.98 173.307C552.98 173.307 556.088 198.223 562.84 205.236L559.673 172.015Z" fill="#402198"/>
<path d="M473.865 167.338C474.104 167.4 474.761 162.663 475.717 157.803C476.195 155.342 476.793 152.819 477.391 150.851C477.988 148.82 478.466 147.344 478.705 146.79C479.064 145.744 480.856 141.069 483.545 137.316C484.86 135.409 486.354 133.748 487.549 132.579C488.744 131.41 489.58 130.733 489.521 130.672C489.461 130.61 488.505 131.164 487.25 132.21C485.995 133.317 484.382 134.978 483.067 136.885C480.259 140.7 478.466 145.437 478.108 146.483C477.869 147.036 477.331 148.574 476.793 150.605C476.195 152.635 475.658 155.157 475.18 157.618C474.164 162.601 473.686 167.338 473.865 167.338Z" fill="#36162C"/>
<path d="M534.994 307.731C534.934 307.731 535.173 308.838 535.771 310.5C536.428 312.099 537.384 314.252 538.759 316.283C540.073 318.251 541.627 320.22 543.121 321.635C543.778 322.373 544.495 322.927 545.033 323.419C545.571 323.911 545.989 324.219 546.168 324.403C547.005 325.142 550.829 327.972 555.012 329.51C557.044 330.371 559.195 330.802 560.749 331.109C562.302 331.294 563.378 331.355 563.378 331.294C563.378 331.171 562.362 330.986 560.868 330.617C559.374 330.248 557.283 329.756 555.311 328.895C551.247 327.356 547.483 324.526 546.646 323.85C546.407 323.665 546.049 323.358 545.511 322.927C544.973 322.435 544.316 321.943 543.659 321.204C542.224 319.851 540.731 317.944 539.356 316.036C537.982 314.068 536.966 312.038 536.249 310.5C535.532 308.715 535.114 307.67 534.994 307.731Z" fill="#36162C"/>
<path d="M482.171 313.39C482.529 313.267 480.498 307.792 480.259 307.115C480.02 306.439 478.167 301.332 477.868 301.455C477.39 301.64 479.362 306.746 479.601 307.423C479.84 308.038 481.752 313.575 482.171 313.39Z" fill="#36162C"/>
<path d="M500.097 131.225C500.097 131.225 491.254 151.22 501.89 152.82C512.646 154.419 530.214 147.098 530.991 127.965L500.097 131.225Z" fill="#E4B69E"/>
<path d="M525.852 86.8701C525.852 86.8701 525.852 68.4136 523.163 67.6754C520.474 66.9371 499.739 63.7995 497.468 62.446C495.198 61.0926 490.895 73.889 501.711 77.1497C501.711 77.1497 506.551 78.3801 511.57 74.1966C511.511 74.1966 519.697 79.3029 525.852 86.8701Z" fill="#36162C"/>
<path d="M523.402 77.2718C523.402 77.2718 526.509 75.0571 528.421 77.8871C530.035 80.2249 528.003 85.5772 521.788 84.5314C521.788 84.5929 520.713 80.8401 523.402 77.2718Z" fill="#E4B69E"/>
<path d="M499.44 76.2261C499.44 76.2261 498.783 79.4867 501.053 81.2093C501.053 81.2093 501.591 77.9487 501.711 77.1489C501.771 76.3491 499.44 76.2261 499.44 76.2261Z" fill="#36162C"/>
<path d="M340.014 86.9919V86.9304C340.074 86.8073 340.373 86.9304 340.731 87.1149C341.627 87.4226 343.181 88.0993 344.735 88.9606C347.065 90.2525 349.396 91.7906 349.933 92.1597C350.471 92.5289 352.682 93.9438 354.594 95.5434C356.566 97.0814 358.18 98.681 357.941 98.9886L352.622 106.74C352.383 107.109 351.487 107.725 349.993 107.602C349.216 107.54 348.44 107.294 347.842 107.048C347.244 106.74 346.826 106.433 346.707 106.31C346.527 106.187 346.169 105.879 345.751 105.325C345.332 104.833 344.974 104.095 344.854 103.295C344.675 102.557 344.735 101.757 344.974 101.203C345.093 100.957 345.213 100.773 345.332 100.65C345.213 100.527 345.093 100.342 344.974 100.096C344.675 99.4192 344.794 98.558 344.854 98.4349C344.854 98.2504 344.974 97.5121 345.452 96.9584C345.631 96.7123 345.81 96.5893 346.049 96.5277C345.99 96.4662 345.87 96.3432 345.81 96.2201C345.392 95.6049 345.392 94.8051 345.392 94.6206C345.392 94.436 345.332 93.6978 345.691 93.0825C345.751 92.898 345.87 92.7749 345.99 92.6519C345.571 92.2828 345.273 91.9752 345.093 91.8521C344.795 91.606 343.48 90.4986 342.225 89.3913C341.329 88.5915 340.432 87.7917 340.193 87.2995C340.074 87.1765 340.014 87.0534 340.014 86.9919C339.954 86.9919 339.954 86.9919 340.014 86.9919Z" fill="#E4B69E"/>
<path d="M628.152 31.8072C628.152 31.069 628.272 27.8699 628.57 24.7938C628.869 21.7177 629.467 18.8877 629.765 18.9492C629.765 18.9492 629.765 18.9492 629.825 19.0107C629.825 19.0107 629.825 19.0107 629.885 18.9492C630.423 18.8877 631.08 25.1629 631.2 25.9627C631.2 26.2087 631.319 26.824 631.379 27.6238C631.498 27.5622 631.678 27.4392 631.917 27.4392C632.634 27.2546 633.351 27.5623 633.47 27.6853C633.65 27.7468 634.367 28.239 634.606 28.9772C634.665 29.1003 634.665 29.2233 634.725 29.3463C634.904 29.2848 635.084 29.1618 635.323 29.1618C636.04 29.0387 636.757 29.4694 636.876 29.654C636.936 29.7155 637.175 29.9001 637.354 30.1462C637.534 30.4538 637.713 30.8229 637.713 31.2535C637.713 31.4381 637.713 31.6226 637.653 31.8072C637.713 31.8072 637.773 31.8072 637.832 31.8072C638.49 31.9303 639.326 32.5455 639.745 33.4068C640.163 34.2681 640.223 35.2524 640.223 35.9907C640.223 36.729 640.163 37.2827 640.103 37.5287C640.043 37.9594 639.804 39.9281 639.027 41.5892C638.31 43.3118 637.295 44.5422 636.876 44.5422L628.869 44.2346C628.63 44.2346 628.331 41.4046 628.212 38.5131C628.033 35.56 628.152 32.5455 628.152 31.8072Z" fill="#E4B69E"/>
<path d="M504.16 157.128C502.667 157.005 500.754 156.759 498.783 155.836C496.811 154.975 494.779 153.191 493.823 150.791C492.807 148.392 492.688 145.562 493.225 142.978C493.703 140.394 494.66 137.995 495.616 135.78C496.572 133.627 497.528 131.658 498.364 129.997C498.723 129.259 499.141 128.644 499.44 128.028H499.858C499.5 128.705 499.141 129.382 498.723 130.243C497.886 131.904 496.99 133.873 496.094 136.026C495.197 138.179 494.301 140.579 493.823 143.101C493.345 145.562 493.464 148.269 494.42 150.484C495.317 152.76 497.169 154.36 499.022 155.159C500.874 156.021 502.726 156.328 504.16 156.39C505.595 156.513 506.67 156.39 507.268 156.39C508.403 156.328 511.451 156.021 515.155 154.544C518.8 153.129 522.983 150.422 525.971 146.792C527.465 145.008 528.78 142.978 529.736 141.071C530.692 139.102 531.409 137.195 531.827 135.534C532.723 132.212 532.783 129.935 532.962 129.935C533.022 129.935 533.022 130.489 532.962 131.535C532.903 132.519 532.723 133.996 532.305 135.657C531.887 137.38 531.229 139.348 530.273 141.317C529.317 143.347 528.062 145.377 526.509 147.223C523.402 150.976 519.159 153.806 515.394 155.221C511.63 156.697 508.463 157.005 507.328 157.066C506.79 157.128 505.714 157.251 504.16 157.128Z" fill="#E1E3E9"/>
<path d="M338.46 293.703L297.17 447.938H342.404L422.655 303.977L338.46 293.703Z" fill="#B768B0"/>
<path d="M345.153 299.671C345.153 299.671 423.372 419.084 452.234 447.938H488.027C488.027 447.938 444.645 330.862 440.223 295.241L345.153 299.671Z" fill="#B768B0"/>
<path d="M382.739 127.534C382.739 127.534 318.801 145.56 301.771 146.729C301.771 146.729 299.381 133.009 294.66 66.9351H285.219C285.219 66.9351 269.384 144.883 282.351 168.384C294.481 190.347 358.239 176.074 358.239 176.074L382.739 127.534Z" fill="#FFB0B4"/>
<path d="M392.001 91.4818C401.802 91.4818 409.748 83.6318 409.748 73.9482C409.748 64.2646 401.802 56.4146 392.001 56.4146C382.199 56.4146 374.254 64.2646 374.254 73.9482C374.254 83.6318 382.199 91.4818 392.001 91.4818Z" fill="#36162C"/>
<path d="M400.725 57.6458C400.725 61.2755 403.713 64.2286 407.358 64.2286C411.063 64.2286 413.991 61.2755 413.991 57.6458C413.991 54.016 411.003 51.063 407.358 51.063C403.713 51.063 400.725 54.016 400.725 57.6458Z" fill="#36162C"/>
<path d="M444.645 280.599C443.987 237.288 436.219 148.389 436.219 148.389C436.219 148.389 435.323 135.408 422.834 131.224C419.189 129.994 406.043 127.533 406.043 127.533H382.739C382.739 127.533 359.673 130.732 354.355 146.42C349.874 159.524 338.998 248.054 335.712 281.46C335.174 288.535 336.907 294.687 345.213 299.67C356.267 305.7 391.104 313.636 432.156 301.455C444.645 296.594 444.645 282.444 444.645 280.599Z" fill="#FFB0B4"/>
<path d="M434.128 141.253C434.128 141.253 458.747 209.603 524.059 266.203L516.171 276.969C516.171 276.969 460.659 250.946 440.163 216.432C421.101 184.379 429.945 139.161 434.128 141.253Z" fill="#FFB0B4"/>
<path d="M378.914 131.902C378.914 131.902 380.588 110.185 381.424 94.6811L399.769 93.4507C399.769 93.4507 403.713 114.983 409.688 128.21C409.688 128.21 389.431 139.284 378.914 131.902Z" fill="#E4B69E"/>
<path d="M400.008 71.5493H378.795V99.0495H400.008V71.5493Z" fill="#E4B69E"/>
<path d="M378.795 71.6109C378.795 71.6109 371.206 91.0517 373.298 101.449C375.15 110.493 389.491 108.032 393.435 99.2956C397.379 90.6211 397.737 70.8111 378.795 71.6109Z" fill="#E4B69E"/>
<path d="M380.647 107.11C380.647 107.11 386.922 107.54 391.344 102.434C391.344 102.434 391.463 118.737 379.93 117.568L380.647 107.11Z" fill="#8F7168"/>
<path d="M388.953 364.023L376.405 346.366C376.405 346.366 373.716 368.945 381.603 377.127L388.953 364.023Z" fill="#803679"/>
<path d="M441.597 218.707C441.597 218.707 430.005 203.635 427.615 197.482C427.615 197.482 430.303 221.845 442.613 234.334L441.597 218.707Z" fill="#36162C"/>
<path d="M425.703 194.102C425.523 194.225 426.957 197.24 428.63 200.378C430.304 203.515 432.276 206.714 432.694 207.452C433.112 208.129 434.965 211.144 436.877 213.912C438.789 216.681 440.701 219.08 440.82 219.019C441 218.896 439.267 216.312 437.414 213.543C435.562 210.775 433.71 207.822 433.291 207.083C432.873 206.407 430.901 203.146 429.168 200.07C427.495 196.932 425.882 193.979 425.703 194.102Z" fill="#36162C"/>
<path d="M350.65 162.602C350.889 162.664 351.427 158.296 352.323 153.805C352.802 151.528 353.399 149.252 353.997 147.468C354.594 145.684 355.192 144.33 355.431 143.838C355.67 143.346 356.267 142.116 357.223 140.639C358.179 139.163 359.554 137.44 361.107 136.025C362.661 134.61 364.394 133.503 365.768 132.887C367.143 132.272 368.099 131.964 368.039 131.903C368.039 131.78 367.023 131.903 365.589 132.457C364.155 133.01 362.303 134.056 360.689 135.471C359.076 136.886 357.642 138.67 356.626 140.208C355.61 141.746 355.012 143.038 354.773 143.531C354.534 144.023 353.937 145.376 353.28 147.222C352.622 149.068 352.025 151.405 351.606 153.682C350.83 158.173 350.471 162.541 350.65 162.602Z" fill="#36162C"/>
<path d="M441.896 333.325C442.016 333.141 438.908 331.48 435.921 329.327C434.427 328.281 432.993 327.05 431.857 326.004C430.782 324.959 430.005 324.036 429.706 323.667C429.407 323.359 428.75 322.436 427.973 321.206C427.196 319.975 426.42 318.376 425.882 316.715C425.344 315.054 425.045 313.392 424.986 312.162C424.866 310.932 424.926 310.07 424.806 310.07C424.687 310.07 424.508 310.87 424.508 312.162C424.508 313.454 424.747 315.177 425.284 316.899C425.822 318.622 426.599 320.283 427.435 321.575C428.212 322.867 428.929 323.79 429.228 324.097C429.467 324.466 430.304 325.389 431.439 326.497C432.574 327.604 434.068 328.834 435.622 329.88C438.669 332.033 441.836 333.51 441.896 333.325Z" fill="#36162C"/>
<path d="M370.071 312.837C369.892 312.775 369.234 315.728 369.174 318.866C369.055 322.004 369.473 325.326 369.593 326.064C369.653 326.802 370.131 329.878 371.087 332.708C371.983 335.538 373.238 337.999 373.357 337.876C373.596 337.753 372.521 335.292 371.744 332.462C370.907 329.694 370.429 326.679 370.31 325.941C370.19 325.264 369.832 322.004 369.892 318.866C369.892 315.79 370.31 312.898 370.071 312.837Z" fill="#36162C"/>
<path d="M378.795 71.6115C378.795 71.6115 377.899 74.8722 380.886 74.8722C383.874 74.8722 389.491 75.7335 391.344 79.6709C393.256 83.6083 394.451 89.8835 400.008 89.5143L400.546 70.4427C400.605 70.5042 378.915 70.0735 378.795 71.6115Z" fill="#36162C"/>
<path d="M396.064 77.9481C396.064 77.9481 399.171 75.7333 401.083 78.5633C402.697 80.9011 400.665 86.2536 394.451 85.2077C394.451 85.2692 393.375 81.5164 396.064 77.9481Z" fill="#E4B69E"/>
<path d="M402.936 87.729C402.936 87.729 400.068 95.4192 401.382 101.141C401.382 101.141 396.721 96.4651 398.036 89.3901L402.936 87.729Z" fill="#36162C"/>
<path d="M284.322 54.4465C284.442 53.7697 285.219 50.9397 286.294 48.4789C286.593 47.7406 286.892 47.0639 287.191 46.4487C287.191 46.4487 287.191 46.4486 287.191 46.3871C287.968 44.726 288.565 44.0493 288.924 43.8032C288.983 43.6802 289.103 43.6187 289.163 43.6187C289.76 43.7417 288.625 48.848 288.565 49.4632C288.505 49.7093 288.386 50.7551 288.147 51.801C288.207 51.7395 288.266 51.678 288.386 51.678C288.685 51.4934 288.983 51.4934 289.103 51.4934C289.282 51.4319 290.298 51.4319 290.896 52.0471C291.075 52.1702 291.194 52.3547 291.254 52.5393L291.314 52.4778C291.852 51.9241 292.688 51.801 292.808 51.8626C292.987 51.8626 293.764 51.8626 294.302 52.2932C294.361 52.2932 294.361 52.3547 294.421 52.3547C294.66 51.1243 294.899 50.0169 294.899 49.7093C294.959 49.4017 295.138 47.9867 295.317 46.6332C295.497 45.3413 295.676 44.0493 296.035 44.0493C296.035 44.0493 296.034 44.0493 296.094 44.0493C296.393 44.0493 297.17 46.6332 297.349 49.4017C297.588 52.2317 297.289 55.3077 297.17 55.923C297.11 56.2921 296.991 57.3995 296.752 58.753C297.289 58.3223 297.887 58.0147 298.066 57.9532C298.245 57.8916 298.962 57.5225 299.68 57.461C300.397 57.338 301.114 57.461 301.114 57.7686C301.114 57.8301 301.114 57.8916 301.054 57.9532C300.934 58.3223 300.277 59.0606 299.56 59.8604C298.723 60.8447 297.827 61.8906 297.588 62.1367C297.409 62.3827 296.453 63.5516 295.616 64.659C294.78 65.7664 294.122 66.7508 293.704 66.7508H285.876C285.697 66.6277 285.518 66.4432 285.338 66.1971C285.159 66.0125 284.86 65.5203 284.562 64.7821C284.143 63.7977 283.844 62.3827 283.725 60.9062C283.486 58.1378 284.203 55.0617 284.322 54.4465Z" fill="#E4B69E"/>
<path d="M517.366 275.248L522.864 267.804C522.983 267.558 525.493 268.665 528.003 270.265C530.512 271.803 532.903 273.833 533.44 274.325C533.978 274.817 536.488 277.032 538.46 279.616C540.432 282.138 541.746 284.845 541.507 285.03C541.507 285.03 541.507 285.03 541.507 285.091C541.328 285.276 540.014 284.045 538.699 282.753C537.384 281.4 535.95 280.108 535.592 279.8C535.233 279.493 532.126 277.278 532.305 277.463C533.679 278.755 535.054 280.17 535.353 280.539C535.651 280.908 537.085 282.446 538.281 284.107C539.476 285.768 540.372 287.429 540.133 287.614L540.073 287.675C539.834 287.86 538.699 286.691 537.444 285.522C536.189 284.292 534.695 283.246 534.337 283C534.038 282.754 532.245 281.462 530.751 280.416C530.811 280.477 530.871 280.539 530.871 280.6C532.126 282.077 533.68 283.738 533.919 284.107C534.217 284.476 535.592 286.137 536.667 287.921C537.743 289.705 538.639 291.367 538.4 291.49H538.34V291.551C538.161 291.736 536.787 290.382 535.293 288.967C533.859 287.552 532.245 286.199 531.887 285.83C531.528 285.522 530.154 284.353 528.6 283.307C529.377 284.23 530.034 285.03 530.214 285.276C530.453 285.583 531.648 287.06 532.544 288.537C533.5 290.013 534.158 291.613 533.859 291.736H533.799V291.797C533.679 291.859 533.261 291.428 532.544 290.813C531.827 290.198 530.811 289.398 529.736 288.598C527.585 286.998 525.254 285.399 524.716 285.03C524.178 284.661 521.549 282.938 519.637 280.662C518.681 279.493 517.964 278.201 517.605 277.155C517.247 276.048 517.247 275.309 517.366 275.248Z" fill="#C19A8A"/>
<path d="M210.824 313.575L317.905 311.729C317.905 311.729 311.75 428.19 308.224 447.938H267.233L267.113 358.793L254.326 447.938H215.724C215.724 447.938 209.987 339.722 210.824 313.575Z" fill="#2D3D7B"/>
<path d="M228.751 129.073C228.751 129.073 157.164 123.783 152.922 23.4409H141.987C141.987 23.4409 129.139 141.931 212.318 174.476L228.751 129.073Z" fill="#5835BA"/>
<path d="M205.147 299.548C205.267 254.33 214.35 149.559 214.35 149.559C214.35 149.559 214.947 129.134 228.751 129.134H286.892C286.892 129.134 297.409 129.134 303.205 146.421C308.045 160.879 319.817 258.452 323.462 295.304C324 303.055 322.147 309.884 313.184 315.36C300.815 322.25 261.078 331.294 214.768 316.098C206.402 312.653 205.327 303.117 205.147 299.548Z" fill="#5835BA"/>
<path d="M269.324 129.134C269.324 129.134 264.663 107.171 262.572 90.4985L240.164 91.4214C240.164 91.4214 239.148 107.971 238.371 129.073C238.371 129.134 261.138 134.794 269.324 129.134Z" fill="#E4B69E"/>
<path d="M241.837 65.8896L264.842 67.4892L262.871 97.2656L239.925 95.7276L241.837 65.8896Z" fill="#E4B69E"/>
<path d="M264.962 67.551C264.962 67.551 269.623 89.7603 265.44 100.465C261.855 109.755 246.916 104.402 244.287 94.3129C241.658 84.2234 244.825 63.06 264.962 67.551Z" fill="#E4B69E"/>
<path d="M264.305 102.494C264.305 102.494 259.345 109.077 249.844 102.248C249.844 102.248 253.31 115.844 267.472 120.089C267.472 120.028 264.783 105.755 264.305 102.494Z" fill="#C19987"/>
<path d="M269.324 129.133C269.324 129.133 276.017 142.421 269.324 146.851C262.632 151.219 243.271 144.575 238.371 129.133C238.371 129.133 259.405 126.118 269.324 129.133Z" fill="#E4B69E"/>
<path d="M267.173 358.794L271.057 346.366C271.057 346.366 270.997 368.575 267.173 372.082V358.794Z" fill="#36162C"/>
<path d="M322.207 282.815L323.103 291.551C286.235 291.674 249.605 281.523 249.605 281.523C249.605 281.523 297.648 283.554 322.207 282.815Z" fill="#402198"/>
<path d="M298.843 137.194C298.843 137.194 350.531 231.383 353.399 249.163C356.267 266.943 347.125 280.539 331.35 282.262C313.065 284.23 249.605 281.523 249.605 281.523V269.957C249.605 269.957 288.505 256.915 323.223 255.069L319.339 255.869C319.339 255.869 298.006 223.016 292.868 212.496C287.729 201.976 289.581 126.489 298.843 137.194Z" fill="#5835BA"/>
<path d="M249.605 270.017C249.605 270.078 250.203 269.894 251.218 269.525C252.234 269.217 253.728 268.786 255.521 268.233C259.106 267.187 264.006 265.895 269.025 264.664C274.045 263.434 279.243 262.203 283.486 261.281C287.729 260.358 291.015 259.743 292.21 259.497C294.541 259.066 304.699 257.097 314.379 256.359C316.769 256.113 319.16 255.805 321.371 255.682C323.581 255.559 325.613 255.559 327.346 255.682C330.812 255.867 333.023 256.42 333.083 256.297C333.083 256.236 332.545 256.051 331.589 255.867C330.573 255.682 329.198 255.375 327.406 255.252C325.673 255.067 323.581 255.005 321.371 255.128C319.16 255.19 316.769 255.436 314.32 255.682C304.639 256.359 294.481 258.328 292.091 258.758C290.896 259.004 287.609 259.62 283.366 260.542C279.124 261.465 273.925 262.696 268.906 263.988C263.886 265.28 258.987 266.633 255.461 267.74C253.668 268.294 252.174 268.786 251.218 269.217C250.143 269.648 249.605 269.955 249.605 270.017Z" fill="#36162C"/>
<path d="M308.045 185.609C308.165 185.609 308.105 184.194 307.926 182.102C307.746 180.01 307.448 177.18 307.089 174.289C306.372 168.506 305.297 162.415 304.998 161.062C304.759 159.708 303.683 154.048 302.428 148.696C301.831 146.051 301.114 143.467 300.576 141.621C300.038 139.714 299.62 138.545 299.56 138.545C299.321 138.606 300.576 143.59 301.771 148.881C302.966 154.171 304.042 159.893 304.281 161.185C304.52 162.538 305.595 168.567 306.372 174.35C307.209 180.195 307.806 185.67 308.045 185.609Z" fill="#36162C"/>
<path d="M212.199 177.305C212.378 177.367 212.796 176.075 212.916 174.598C213.095 173.122 212.916 171.584 212.916 171.276C212.916 170.969 212.736 169.492 212.318 168.2C211.959 166.908 211.302 165.801 211.183 165.862C210.944 165.985 211.362 167.154 211.661 168.385C211.959 169.677 212.199 171.03 212.199 171.338C212.258 171.645 212.318 173.122 212.258 174.537C212.198 175.952 211.959 177.244 212.199 177.305Z" fill="#36162C"/>
<path d="M218.234 344.151C218.234 344.274 219.011 344.274 220.206 344.089C221.341 343.905 222.954 343.474 224.389 342.736C225.882 341.998 227.317 341.075 228.392 340.152C228.93 339.721 229.348 339.291 229.707 338.921C230.065 338.614 230.304 338.306 230.424 338.183C230.962 337.63 233.173 335.046 234.248 332.093C234.846 330.616 235.144 329.14 235.324 327.971C235.443 326.863 235.443 326.125 235.324 326.125C235.204 326.125 235.025 326.863 234.846 327.909C234.547 328.955 234.248 330.432 233.591 331.785C232.455 334.615 230.364 337.137 229.826 337.691C229.707 337.814 229.468 338.122 229.109 338.429C228.751 338.737 228.332 339.168 227.795 339.598C226.779 340.521 225.404 341.382 223.97 342.121C222.536 342.859 221.042 343.351 219.967 343.659C218.951 343.843 218.234 344.028 218.234 344.151Z" fill="#36162C"/>
<path d="M275.718 333.507C275.897 333.568 276.375 332.584 276.674 331.476C277.032 330.369 277.212 329.139 277.271 328.892C277.331 328.646 277.51 327.477 277.63 326.432C277.69 325.324 277.69 324.34 277.511 324.34C277.272 324.34 277.152 325.324 276.973 326.37C276.853 327.416 276.674 328.523 276.614 328.769C276.554 329.015 276.315 330.184 276.076 331.292C275.778 332.399 275.539 333.445 275.718 333.507Z" fill="#36162C"/>
<path d="M269.264 158.047C269.683 157.924 269.025 155.524 268.966 155.217C268.906 154.909 268.428 152.633 268.069 152.756C267.591 152.879 268.189 155.094 268.249 155.401C268.368 155.709 268.846 158.108 269.264 158.047Z" fill="#36162C"/>
<path d="M276.077 227.751C276.196 227.751 276.256 225.905 276.256 223.014C276.256 220.184 276.196 216.308 276.017 212.371C275.718 204.434 275.001 196.129 274.822 194.283C274.642 192.438 273.925 184.624 272.85 177.303C272.372 173.612 271.774 170.105 271.296 167.46C270.818 164.814 270.46 163.153 270.4 163.153C270.28 163.153 270.519 164.876 270.878 167.521C271.236 170.167 271.774 173.674 272.252 177.365C273.208 184.686 273.985 192.499 274.164 194.283C274.344 196.129 275.061 204.434 275.419 212.309C275.599 216.246 275.718 220.061 275.838 222.952C275.897 225.905 275.957 227.751 276.077 227.751Z" fill="#36162C"/>
<path d="M264.962 67.5495C264.962 67.5495 264.783 72.7789 261.257 73.8247C257.732 74.8706 250.442 73.271 246.139 67.5495C246.139 67.5495 246.916 78.808 240.941 80.223C240.941 80.223 238.192 62.6893 240.941 59.3672C245.362 54.0763 266.516 58.3213 264.962 67.5495Z" fill="#36162C"/>
<path d="M244.526 73.0872C244.526 73.0872 241.359 70.4418 239.028 73.3948C237.116 75.8557 238.969 81.7617 245.721 81.085C245.781 81.085 247.155 77.1476 244.526 73.0872Z" fill="#E4B69E"/>
<path d="M263.827 73.0872C263.827 73.0872 266.994 70.4418 269.324 73.3948C271.236 75.8557 269.384 81.7617 262.632 81.085C262.572 81.085 261.197 77.1476 263.827 73.0872Z" fill="#E4B69E"/>
<path d="M264.962 67.5507C264.962 67.5507 265.082 70.8114 265.739 71.7342C265.739 71.7342 267.053 68.2275 264.962 65.7051V67.5507Z" fill="#36162C"/>
<path d="M141.568 11.9967C141.807 11.566 142.166 11.1969 142.584 10.9508C143.062 10.7048 143.54 10.7663 143.839 10.8893C143.958 10.9508 144.078 11.0124 144.197 11.1354C144.197 11.0124 144.257 10.8893 144.317 10.7047C144.496 10.3356 144.735 9.9665 145.034 9.72042C145.333 9.47433 145.572 9.4128 145.691 9.35128C145.811 9.28976 146.05 9.22824 146.408 9.28976C146.767 9.28976 147.185 9.47433 147.484 9.72042C147.603 9.35129 147.783 9.04368 148.022 8.79759C148.261 8.55151 148.5 8.42846 148.619 8.36693C148.799 8.24389 149.635 7.93629 150.352 8.18238C150.412 8.18238 150.472 8.24388 150.532 8.24388C150.591 7.4441 150.591 6.76738 150.651 6.58281C150.651 6.21368 150.711 4.61411 150.77 3.01455C150.83 1.66108 150.95 0.369133 151.189 0.0615253C151.189 0.0615253 151.189 0 151.249 0C151.249 0 151.249 0 151.308 0C151.308 0 151.308 0 151.368 0C151.428 0 151.428 0.0615328 151.488 0.184576C151.667 0.430662 151.906 0.861302 152.205 1.53804C152.623 2.52238 153.101 3.87586 153.4 5.29086C154.117 8.18237 154.117 11.32 154.117 11.9967C154.117 12.6734 154.117 15.6265 153.459 18.3334C152.922 21.0404 151.786 23.4397 151.488 23.2552H143.002C142.704 23.3782 141.987 21.8402 141.449 20.056C141.15 19.1947 140.971 18.2104 140.851 17.4721C140.732 16.6723 140.732 16.0571 140.732 15.8726C140.732 15.6265 140.672 13.6578 141.568 11.9967Z" fill="#E4B69E"/>
<path d="M235.921 273.893C235.921 273.77 235.802 273.155 236.1 272.601C236.22 272.294 236.459 272.109 236.638 271.986C236.519 271.802 236.399 271.617 236.399 271.371C236.339 271.002 236.399 270.51 236.638 270.079C236.817 269.648 237.296 269.218 237.774 268.972C238.789 268.479 239.805 268.479 240.582 268.479C241.359 268.479 241.956 268.541 242.195 268.541C242.614 268.541 244.466 268.664 246.199 268.972C247.932 269.279 249.784 269.771 249.725 270.202V280.353C249.725 280.661 249.605 280.907 249.007 281.338C248.47 281.768 247.573 282.26 246.617 282.568C244.705 283.183 242.554 283.06 242.076 282.999C241.837 282.999 241.239 282.937 240.463 282.753C239.686 282.629 238.73 282.383 237.893 281.768C237.475 281.461 237.116 281.03 236.937 280.599C236.758 280.169 236.638 279.861 236.698 279.492C236.758 279.123 236.877 278.938 236.997 278.754C236.758 278.754 236.519 278.384 236.339 278.077C236.041 277.585 236.1 277.031 236.1 276.908C236.1 276.785 236.1 276.231 236.399 275.801C236.519 275.678 236.638 275.554 236.758 275.493C236.638 275.431 236.578 275.308 236.519 275.185C235.981 274.632 235.921 274.016 235.921 273.893Z" fill="#E4B69E"/>
<path d="M133.92 94.8667C133.92 94.8667 155.67 108.586 150.412 127.227L136.31 124.336C136.31 124.336 131.888 111.662 129.856 100.158L133.92 94.8667Z" fill="#36162C"/>
<path d="M171.924 311.976L227.316 447.938H170.609C170.609 447.938 103.026 341.814 78.467 311.976H171.924Z" fill="#B768B0"/>
<path d="M63.2296 308.656L45.0641 447.941H97.3496C97.3496 447.941 128.601 346.307 139.656 313.147L63.2296 308.656Z" fill="#B768B0"/>
<path d="M58.3297 293.459C61.915 256.608 71.0575 158.973 76.0171 144.577C80.9768 130.119 92.3302 127.289 92.3302 127.289L107.807 123.783H133.382L150.472 127.289C164.036 130.119 164.873 147.715 164.873 147.715C164.873 147.715 176.943 252.178 176.644 295.366C176.585 297.397 177.899 309.147 170.251 313.146C133.86 327.911 80.2 318.806 67.532 311.793C59.7638 307.301 57.7321 301.211 58.3297 293.459Z" fill="#FFB0B4"/>
<path d="M86.8924 129.874C86.8924 129.874 6.64166 175.892 0.845443 202.531C-6.26538 235.137 49.8444 283.309 49.8444 283.309L58.2699 274.265C58.2699 274.265 30.8424 223.079 21.7596 208.068L25.2254 214.712C25.2254 214.712 67.8306 200.501 76.8536 184.69C85.1595 170.109 91.1948 134.734 86.8924 129.874Z" fill="#FFB0B4"/>
<path d="M136.609 125.198C136.609 125.198 129.796 103.973 127.825 88.6543L106.671 88.9004C106.671 88.9004 106.851 112.586 105.476 124.275C105.536 124.214 129.079 130.427 136.609 125.198Z" fill="#E3966B"/>
<path d="M107.109 94.4084L128.269 92.8628L126.379 65.4314L105.219 66.977L107.109 94.4084Z" fill="#E3966B"/>
<path d="M126.39 65.522C126.39 65.522 135.354 84.3475 133.92 94.8677C132.724 103.973 118.204 102.619 113.663 94.191C109.181 85.8241 107.448 66.1372 126.39 65.522Z" fill="#E3966B"/>
<path d="M129.916 100.159C129.916 100.159 124.418 102.497 119.339 100.097C119.339 100.097 120.893 112.094 132.306 110.002L129.916 100.159Z" fill="#AD7153"/>
<path d="M139.656 125.013C139.656 125.013 139.357 131.719 131.111 134.549C121.431 137.871 104.879 133.81 103.086 124.767L105.596 124.213L136.369 124.336L139.656 125.013Z" fill="#E3966B"/>
<path d="M162.482 137.994C162.482 137.994 177.6 186.965 185.01 236.121C185.01 236.121 178.795 213.296 176.585 135.718H187.759C187.759 135.718 211.661 198.101 210.525 243.688C209.45 287.122 181.544 284.354 176.106 275.987L162.482 137.994Z" fill="#FFB0B4"/>
<path d="M120.176 370.483C120.176 370.483 128.243 346.982 130.394 340.522C130.394 340.522 133.8 368.822 128.96 383.957L120.176 370.483Z" fill="#7F3679"/>
<path d="M68.6075 193.363C68.6075 193.363 70.2806 192.01 76.8536 184.627C76.8536 184.627 72.6708 214.28 65.7393 218.956L68.6075 193.363Z" fill="#36162C"/>
<path d="M186.982 245.778C187.161 245.717 186.384 241.902 185.607 237.78C184.831 233.659 184.114 229.352 183.994 228.368C183.815 227.445 183.217 223.323 182.739 219.447C182.201 215.571 181.843 211.941 181.664 211.941C181.425 211.941 181.664 215.633 182.082 219.509C182.5 223.384 183.158 227.506 183.337 228.429C183.456 229.414 184.173 233.782 185.01 237.842C185.787 242.025 186.743 245.84 186.982 245.778Z" fill="#36162C"/>
<path d="M164.813 147.714C164.753 147.714 164.813 148.637 164.992 150.236C165.171 151.897 165.351 154.174 165.649 157.004C166.187 162.664 166.845 170.169 167.562 177.982C168.936 193.547 170.37 210.035 170.669 213.665C170.968 217.295 172.282 232.737 173.477 247.317C174.075 254.577 174.732 261.652 175.15 266.943C175.39 269.527 175.569 271.68 175.748 273.218C175.808 273.956 175.868 274.51 175.927 274.94C175.987 275.371 175.987 275.556 176.047 275.556C176.107 275.556 176.107 274.694 175.987 273.156C175.927 271.618 175.748 269.465 175.569 266.82C175.21 261.59 174.672 254.515 174.075 247.194C172.94 232.614 171.625 217.11 171.266 213.48C170.968 209.851 169.593 193.363 168.099 177.798C167.382 169.985 166.606 162.418 165.948 156.819C165.59 153.989 165.351 151.713 165.112 150.113C164.992 148.575 164.873 147.714 164.813 147.714Z" fill="#36162C"/>
<path d="M69.9819 191.887C70.1014 192.072 71.7148 190.78 73.2684 189.18C74.822 187.581 76.1366 185.674 76.4354 185.305C76.7342 184.874 77.9891 183.09 78.9451 181.244C79.9012 179.399 80.5585 177.553 80.439 177.491C80.2 177.368 79.3634 179.152 78.3476 180.875C77.3318 182.659 76.1366 184.443 75.8379 184.812C75.5391 185.243 74.1647 187.089 72.7306 188.688C71.2965 190.288 69.8026 191.703 69.9819 191.887Z" fill="#36162C"/>
<path d="M17.8756 203.699C17.6963 203.822 19.0707 205.483 20.445 207.329C21.8194 209.174 23.1938 211.143 23.4925 211.574C23.7913 212.004 25.0462 213.911 26.062 215.757C27.1376 217.603 28.0937 219.387 28.2729 219.325C28.5119 219.202 27.6754 217.357 26.6595 215.449C25.6437 213.542 24.3889 211.635 24.0901 211.143C23.7913 210.712 22.4169 208.682 20.9828 206.836C19.5487 205.114 17.9951 203.576 17.8756 203.699Z" fill="#36162C"/>
<path d="M67.3527 347.105C67.3527 347.228 68.3088 347.043 69.6234 346.613C70.938 346.182 72.7307 345.444 74.4636 344.398C76.1367 343.414 77.8098 342.183 79.0647 341.076C79.722 340.522 80.2 340.03 80.6183 339.599C81.0366 339.169 81.3354 338.861 81.5146 338.677C82.1719 338 84.8011 335.047 86.4743 331.602C87.3706 329.94 87.9682 328.218 88.3267 326.926C88.6852 325.634 88.8047 324.773 88.745 324.711C88.6255 324.65 88.3267 325.511 87.9084 326.741C87.4304 327.972 86.773 329.633 85.8767 331.232C84.2036 334.493 81.6341 337.446 81.0366 338.123C80.9171 338.307 80.6183 338.615 80.2 338.984C79.7817 339.353 79.3037 339.907 78.6464 340.399C77.4513 341.506 75.8379 342.675 74.1648 343.66C72.4917 344.706 70.8185 345.444 69.5039 345.998C68.1893 346.613 67.3527 346.982 67.3527 347.105Z" fill="#36162C"/>
<path d="M127.466 141.255C126.39 141.255 126.152 143.224 127.227 143.47C128.243 143.716 128.9 141.809 127.944 141.378" fill="#36162C"/>
<path d="M127.884 148.329C126.988 148.267 126.331 149.436 126.749 150.236C127.167 151.035 128.422 151.097 128.9 150.297C129.378 149.559 128.721 148.329 127.884 148.329Z" fill="#36162C"/>
<path d="M128.362 155.65C127.586 155.343 126.689 156.143 126.868 156.942C126.988 157.742 128.123 158.173 128.721 157.619C129.318 157.127 129.139 155.897 128.362 155.65Z" fill="#36162C"/>
<path d="M126.39 65.5217C126.39 65.5217 123.821 69.7667 116.77 70.4434C116.77 70.4434 113.424 81.7018 106.133 79.9177C106.133 79.9177 102.429 59.308 105.596 57.77C108.703 56.2319 130.035 55.4937 126.39 65.5217Z" fill="#36162C"/>
<path d="M104.341 62.4448C104.341 62.4448 103.026 86.0691 93.5254 106.494C85.578 123.536 85.8767 133.933 93.7644 140.085C101.652 146.237 120.176 144.268 117.427 126.612C114.679 108.955 108.464 97.3275 109.779 80.4091C111.034 63.4907 104.341 62.4448 104.341 62.4448Z" fill="#36162C"/>
<path d="M109.659 73.0891C109.659 73.0891 106.432 71.1204 104.699 74.0735C103.265 76.5343 105.656 81.7637 111.751 80.2256C111.751 80.2256 112.527 76.4728 109.659 73.0891Z" fill="#E3966B"/>
<path d="M50.5615 282.384L57.3138 275.124C57.3138 275.124 57.3138 275.124 57.3736 275.124C57.4931 275.063 57.7918 275.555 58.2101 276.293C58.6284 277.032 59.2259 278.016 59.943 278.939C61.3771 280.846 63.2893 282.445 63.7075 282.815C64.1258 283.184 66.277 284.783 68.4879 285.952C70.6989 287.183 72.9098 287.921 72.85 288.228C72.85 288.228 72.85 288.228 72.7903 288.29C72.7903 288.29 72.7903 288.29 72.7903 288.351C72.7903 288.598 71.3562 288.844 69.8025 288.782C68.2489 288.721 66.6355 288.413 66.277 288.29C65.9782 288.228 64.6039 287.921 63.2295 287.429C64.5441 288.413 65.9185 289.274 66.277 289.459C66.6355 289.643 68.3684 290.566 70.1013 291.12C71.8342 291.735 73.5073 292.104 73.4476 292.412C73.4476 292.412 73.4476 292.412 73.3878 292.473C73.3878 292.473 73.4476 292.473 73.4476 292.535C73.5073 292.781 71.7745 293.335 69.8025 293.396C67.8306 293.519 65.799 293.089 65.3209 292.966C64.8429 292.843 62.632 292.35 60.8991 291.12C60.6003 290.935 60.3613 290.751 60.1223 290.566C60.182 290.628 60.182 290.689 60.2418 290.689C61.3174 291.981 62.7515 293.089 63.0503 293.335C63.4088 293.581 64.9624 294.688 66.5758 295.488C68.1892 296.349 69.7428 297.026 69.683 297.334C69.683 297.334 69.683 297.334 69.6233 297.334V297.395C69.5635 297.641 67.8904 297.457 66.0977 297.211C64.3051 296.964 62.3929 296.472 61.9746 296.349C61.7356 296.288 61.1381 296.103 60.3613 295.796C59.5845 295.426 58.6881 294.934 57.8516 294.381C57.6723 294.258 57.493 294.073 57.3138 293.95C58.0308 295.303 59.0467 296.534 59.3455 296.78C59.5845 297.088 60.7796 298.318 62.1539 299.241C63.4685 300.225 64.9027 300.84 64.8429 301.148C64.8429 301.148 64.8429 301.148 64.7831 301.148V301.209C64.7831 301.333 64.0661 301.333 63.0503 301.086C62.0344 300.84 60.6601 300.348 59.3455 299.61C58.0906 298.872 56.8357 297.887 55.9992 296.964C55.1028 296.042 54.5053 295.242 54.326 294.934C54.087 294.627 53.4895 293.765 52.8322 292.596C52.1749 291.428 51.5176 289.889 51.0395 288.351C50.2029 285.46 50.2627 282.384 50.5615 282.384Z" fill="#FFBCB2"/>
<path d="M57.8516 274.635H60.1223L59.704 278.818C59.704 278.818 57.4931 275.988 56.9553 275.558L57.8516 274.635Z" fill="#FFBCB2"/>
<path d="M175.748 124.028C175.808 123.352 176.226 120.583 176.824 118.061C177.182 116.523 177.541 115.046 177.899 114.185C178.019 113.631 178.198 113.262 178.377 113.262C178.377 113.262 178.377 113.262 178.437 113.262H178.497C178.556 113.262 178.556 113.324 178.556 113.385C178.736 113.754 178.795 114.739 178.795 115.723C178.855 117.015 178.975 118.307 178.975 118.615C178.975 118.922 179.214 120.153 179.393 121.322C179.393 121.445 179.453 121.506 179.453 121.629C179.692 121.26 180.05 120.952 180.409 120.829C180.827 120.645 181.186 120.583 181.305 120.645C181.425 120.645 181.783 120.645 182.202 120.768C182.62 120.891 183.038 121.198 183.337 121.629C183.397 121.691 183.456 121.752 183.456 121.875C183.695 121.506 184.054 121.198 184.412 121.075C184.771 120.891 185.129 120.891 185.249 120.891C185.369 120.891 185.667 120.891 186.086 121.014C186.444 121.137 186.862 121.445 187.101 121.814C187.161 121.875 187.161 121.937 187.221 121.998C187.221 121.814 187.281 121.629 187.281 121.445C187.46 120.091 187.639 118.738 187.639 118.492C187.639 118.184 187.759 116.954 187.878 115.662C187.998 114.554 188.117 113.508 188.416 113.324C188.416 113.324 188.416 113.324 188.476 113.324H188.536C188.595 113.324 188.655 113.385 188.715 113.57C188.894 113.816 189.133 114.247 189.372 114.8C189.731 115.785 190.149 117.138 190.328 118.553C190.746 121.445 190.448 124.459 190.388 125.136C190.328 125.813 189.97 128.643 189.253 131.165C188.535 133.749 187.579 135.779 187.221 135.779H177.361C177.242 135.841 176.824 135.287 176.465 134.364C176.047 133.441 175.748 132.026 175.628 130.611C175.21 127.658 175.628 124.705 175.748 124.028Z" fill="#E3966B"/>
</svg>
