<svg width="116" height="68" viewBox="0 0 116 68" fill="none" xmlns="http://www.w3.org/2000/svg">
<path d="M102.111 28.1304C102.226 28.0829 102.355 28.0946 102.479 28.0915C102.807 28.0958 103.137 28.0873 103.465 28.0953C103.544 28.1008 103.655 28.1106 103.689 28.1994C103.724 28.3116 103.716 28.4332 103.722 28.5503C103.722 31.7977 103.722 35.0459 103.722 38.2932C103.72 38.4758 103.733 38.6614 103.696 38.8421C103.675 38.9457 103.556 38.9667 103.469 38.966C103.119 38.9723 102.768 38.9643 102.417 38.9691C102.296 38.963 102.156 38.9827 102.058 38.8982C101.991 38.8131 102.001 38.7021 101.999 38.6016C102 35.2093 101.999 31.8175 101.999 28.4251C102.001 28.3221 101.996 28.1792 102.111 28.1304ZM79.7032 28.0921C79.872 28.0354 80.0555 28.0675 80.2316 28.0601C80.5419 28.0693 80.8545 28.0416 81.1641 28.0743C81.3013 28.0909 81.3242 28.2494 81.3211 28.3623C81.3229 30.1926 81.3211 32.0229 81.3224 33.8532C81.3236 34.4304 81.3507 35.01 81.4533 35.5786C81.5356 36.0128 81.6938 36.4469 81.9852 36.7867C82.2774 37.1277 82.7001 37.33 83.1329 37.428C83.5171 37.5237 83.9151 37.5421 84.3103 37.5569C84.9591 37.5409 85.6102 37.5003 86.2504 37.3879C86.2749 37.2591 86.259 37.1277 86.2627 36.9982C86.2619 34.1411 86.2634 31.2841 86.2619 28.427C86.2656 28.329 86.2554 28.2229 86.3076 28.1347C86.3794 28.0521 86.4968 28.0644 86.5969 28.0594C86.9463 28.0601 87.2972 28.0601 87.6481 28.0594C87.7452 28.0626 87.8626 28.0563 87.9367 28.1353C87.9939 28.2204 87.9801 28.329 87.9859 28.4264C87.9845 31.4278 87.9859 34.4285 87.9852 37.4299C87.9845 37.803 87.9055 38.1971 87.6597 38.4893C87.4024 38.8045 86.9985 38.9624 86.6027 39.0098C86.0075 39.0856 85.4065 39.1239 84.8062 39.1443C84.0449 39.1677 83.2757 39.1585 82.5283 38.9937C81.8707 38.8563 81.2216 38.5738 80.7471 38.0867C80.3163 37.6649 80.0475 37.1061 79.8854 36.532C79.6612 35.7211 79.6081 34.8757 79.5994 34.0376C79.5988 32.1671 79.6 30.2967 79.5988 28.4264C79.6043 28.3123 79.5834 28.1557 79.7032 28.0921ZM110.479 29.4532C109.99 29.5334 109.535 29.7757 109.182 30.1217C108.741 30.5434 108.468 31.1083 108.297 31.6868C108.146 32.2097 108.07 32.7529 108.06 33.2969C108.045 33.9777 108.087 34.6617 108.22 35.3308C108.33 35.8531 108.525 36.3698 108.865 36.788C109.212 37.2215 109.716 37.5267 110.267 37.6205C110.941 37.7345 111.676 37.6951 112.28 37.3473C112.974 36.9465 113.404 36.2139 113.602 35.4572C113.84 34.5321 113.867 33.5639 113.785 32.6167C113.73 32.005 113.629 31.384 113.351 30.8296C113.075 30.2529 112.578 29.7677 111.968 29.558C111.489 29.4044 110.974 29.3767 110.479 29.4532ZM110.296 27.9158C111.051 27.8276 111.83 27.872 112.558 28.0995C113.167 28.2895 113.729 28.6336 114.165 29.0998C114.712 29.6802 115.072 30.4151 115.287 31.1774C115.555 32.1456 115.601 33.1606 115.553 34.1597C115.494 35.1834 115.296 36.2236 114.791 37.1277C114.42 37.7993 113.862 38.3746 113.175 38.725C112.434 39.1079 111.586 39.2343 110.759 39.214C109.83 39.2041 108.874 38.9673 108.129 38.3938C107.484 37.9078 107.033 37.2017 106.765 36.4481C106.421 35.48 106.329 34.4427 106.337 33.4221C106.349 32.3392 106.535 31.2372 107.039 30.2684C107.442 29.4599 108.089 28.7643 108.899 28.353C109.334 28.1279 109.81 27.9824 110.296 27.9158ZM74.3954 25.3831C74.5121 25.3387 74.6463 25.2851 74.7593 25.3751C74.7958 25.4836 74.8013 25.5995 74.8045 25.7135C74.8051 26.5134 74.802 27.3133 74.8057 28.1131C75.5429 28.1347 76.2821 28.1138 77.0205 28.123C77.1256 28.1125 77.2535 28.1736 77.2547 28.2933C77.29 28.6434 77.269 28.998 77.2684 29.3496C77.2801 29.4606 77.2176 29.6005 77.0866 29.5894C76.3272 29.608 75.5659 29.5771 74.8063 29.6042C74.8013 31.8224 74.8057 34.0406 74.8045 36.2589C74.8013 36.6091 74.8502 36.9878 75.0813 37.2671C75.3336 37.5464 75.7326 37.6087 76.0911 37.6162C76.6726 37.6045 77.2479 37.5063 77.8264 37.4521C77.8468 37.4688 77.8876 37.5027 77.9074 37.5193C77.9877 37.7716 78.0118 38.038 78.0705 38.2958C78.1002 38.4714 78.1546 38.6534 78.1126 38.831C78.0532 38.8964 77.9679 38.9242 77.8882 38.95C77.2084 39.1634 76.489 39.2022 75.7821 39.2146C75.0856 39.2078 74.3182 39.1104 73.7843 38.6219C73.2404 38.0915 73.1031 37.2931 73.0846 36.566C73.0735 34.2435 73.0902 31.9206 73.0761 29.5981C72.5761 29.5852 72.0756 29.6018 71.5755 29.5913C71.4458 29.6042 71.3561 29.4741 71.363 29.3569C71.3549 29.1079 71.3524 28.8586 71.3642 28.6101C71.376 28.4615 71.5008 28.3456 71.6429 28.316C72.1533 28.2032 72.6676 28.1069 73.1773 27.991C73.2873 27.3361 73.3856 26.6793 73.4931 26.0238C73.5147 25.919 73.5339 25.7945 73.629 25.7278C73.8552 25.5569 74.1383 25.4928 74.3954 25.3831ZM64.5101 24.2817C65.0732 24.2188 65.6417 24.2261 66.2065 24.265C67.2341 24.3526 68.2637 24.5358 69.2204 24.9329C69.357 24.9946 69.5065 25.039 69.6258 25.134C69.7309 25.2431 69.6741 25.401 69.6276 25.523C69.4774 25.8998 69.3514 26.2872 69.192 26.6602C69.1598 26.7934 69.0109 26.7497 68.9213 26.7089C67.7693 26.2286 66.5254 25.9652 65.2764 25.9578C64.7617 25.972 64.2308 26.0485 63.7791 26.3105C63.3663 26.5504 63.0227 26.9403 62.9052 27.4096C62.776 27.9232 62.8323 28.5085 63.1537 28.9437C63.4856 29.3965 63.9818 29.6912 64.4761 29.9378C65.6361 30.4941 66.8548 30.9202 68.0085 31.4913C68.8446 31.9142 69.6314 32.5155 70.0806 33.355C70.512 34.1214 70.5577 35.0422 70.4335 35.8956C70.282 36.9335 69.6481 37.8813 68.7601 38.4376C67.9096 38.9753 66.8894 39.1788 65.8956 39.2121C64.258 39.2418 62.5907 39.016 61.0791 38.3648C60.9104 38.2852 60.738 38.2125 60.5786 38.1163C60.4439 38.0411 60.4593 37.8659 60.5143 37.745C60.6675 37.3966 60.8171 37.0476 60.9666 36.698C61.008 36.611 61.0433 36.508 61.1397 36.4673C61.2355 36.4519 61.3226 36.4987 61.4091 36.5357C62.3114 36.9502 63.2723 37.2339 64.2525 37.3917C65.1034 37.5255 65.9853 37.5434 66.825 37.3337C67.4128 37.1802 67.9968 36.8731 68.3292 36.3476C68.6667 35.8019 68.7131 35.1044 68.5313 34.4976C68.3114 33.8513 67.7526 33.3956 67.1779 33.0663C66.1249 32.4712 64.9521 32.1375 63.8643 31.6159C63.1246 31.2705 62.3935 30.8616 61.8349 30.256C61.3819 29.7782 61.0878 29.1503 61.0272 28.4942C60.9543 27.7696 61.0396 27.0173 61.3486 26.3531C61.663 25.6754 62.2032 25.1019 62.8694 24.7589C63.3775 24.4919 63.9429 24.3514 64.5101 24.2817ZM102.575 24.0264C102.894 23.9444 103.251 23.9887 103.521 24.1855C103.872 24.4247 104.062 24.8583 104.028 25.2788C104.012 25.8586 103.502 26.3932 102.912 26.3888C102.279 26.424 101.707 25.8456 101.719 25.2191C101.693 24.6881 102.062 24.1706 102.575 24.0264ZM94.5419 29.5216C93.8452 29.632 93.1971 30.0162 92.7897 30.5934C92.2205 31.3931 92.0234 32.3934 91.9936 33.3579C91.9668 34.2929 92.0168 35.2653 92.4228 36.1245C92.678 36.6819 93.1318 37.1623 93.7133 37.3818C94.4157 37.658 95.1907 37.6501 95.9281 37.5545C96.4037 37.4836 96.8894 37.4182 97.3389 37.2381C97.3462 34.769 97.3433 32.2997 97.3396 29.8305C96.7451 29.6332 96.1238 29.5137 95.4975 29.4865C95.1777 29.4575 94.8565 29.471 94.5419 29.5216ZM97.4375 23.8346C97.526 23.7993 97.6245 23.8075 97.7202 23.8044C98.0704 23.8069 98.4205 23.8037 98.7707 23.8049C98.8635 23.8112 98.989 23.7988 99.0441 23.8956C99.0919 24 99.0803 24.1201 99.0875 24.2329C99.0868 28.6934 99.0875 33.1545 99.0875 37.6149C99.0846 37.8005 99.0963 37.9873 99.0766 38.173C99.068 38.3112 98.9622 38.4302 98.8345 38.4764C98.1517 38.7934 97.4193 39.0067 96.6705 39.0912C95.8084 39.1924 94.9363 39.2571 94.07 39.1843C93.2029 39.1079 92.3409 38.7953 91.6913 38.2056C91.0649 37.6457 90.6698 36.8682 90.4674 36.0615C90.2609 35.2407 90.1956 34.3903 90.208 33.5454C90.2189 32.7765 90.3312 32.0081 90.5472 31.2693C90.8032 30.4281 91.2461 29.6302 91.8929 29.0252C92.4344 28.522 93.1036 28.1446 93.8307 27.9917C94.5767 27.8215 95.3495 27.8689 96.1057 27.928C96.5262 27.9627 96.9336 28.0743 97.3403 28.1816C97.3469 26.8249 97.3389 25.4676 97.344 24.1108C97.3519 24.0159 97.3425 23.8907 97.4375 23.8346Z" fill="#E9E9E9"/>
<g filter="url(#filter0_d)">
<path d="M32.3206 8.05421C32.8957 7.94786 33.4851 8.01841 34.0589 8.09196C34.7489 8.18319 35.4363 8.32968 36.0958 8.5535C36.6727 8.70916 37.2391 8.91347 37.772 9.17982C38.4246 9.44316 39.0357 9.79213 39.6635 10.1053C39.8225 10.2129 39.9952 10.298 40.1628 10.3917C40.5386 10.6611 40.9571 10.8648 41.3303 11.1378C41.9501 11.5258 42.5201 11.9837 43.1219 12.3972C43.9678 13.0527 44.8031 13.7228 45.6085 14.4251C45.9358 14.7261 46.2699 15.0204 46.6046 15.3135C46.7344 15.4527 46.8635 15.5932 47.007 15.7198C47.4076 16.0815 47.7653 16.4858 48.1535 16.8598C49.0408 17.6723 49.8811 18.5327 50.6909 19.4193C51.4957 20.3412 52.3061 21.263 53.0116 22.2615C53.5637 22.9504 54.0437 23.691 54.5189 24.433C55.4249 25.9264 56.2191 27.5062 56.6569 29.1966C56.7849 29.7822 56.9315 30.3672 56.9538 30.9686C57.0252 31.4508 56.9898 31.939 56.9997 32.425C56.9408 33.6235 56.7147 34.819 56.2918 35.9488C55.9564 36.9242 55.4801 37.8454 54.9859 38.7515C54.6815 39.3115 54.3287 39.8435 53.986 40.3811C53.7754 40.6651 53.5798 40.9589 53.3836 41.2519C52.9067 41.8247 52.5105 42.4589 52.0118 43.0146C51.4615 43.7031 50.8704 44.3574 50.2866 45.0177C50.0214 45.2501 49.8109 45.5328 49.5601 45.779C49.0334 46.3184 48.4825 46.8347 47.9354 47.3527C46.291 49.0742 44.4727 50.6297 42.5394 52.032C42.1582 52.2685 41.834 52.5828 41.4359 52.7963C40.9106 53.1843 40.3262 53.4858 39.7772 53.8404C39.2344 54.1469 38.6637 54.4023 38.1067 54.682C37.6763 54.8815 37.2366 55.0602 36.792 55.2268C36.5026 55.3679 36.1859 55.4324 35.8784 55.5235C35.3034 55.6987 34.7079 55.8063 34.1154 55.9133C33.972 55.937 33.826 55.9291 33.6819 55.9456C33.0026 56.072 32.3139 55.9492 31.6381 55.8689C31.0172 55.7626 30.4035 55.6209 29.8062 55.4214C29.3478 55.2998 28.9194 55.0906 28.4704 54.9411C28.2493 54.8133 28.0046 54.7325 27.773 54.6254C27.1097 54.2953 26.4458 53.9632 25.8086 53.5869C25.4572 53.3345 25.0628 53.1459 24.7145 52.8906C24.3282 52.6424 23.9493 52.3846 23.5874 52.1037C22.9689 51.6829 22.3869 51.2135 21.7964 50.7556C21.4933 50.4825 21.156 50.2485 20.8599 49.9681C20.3543 49.5607 19.8923 49.1064 19.3979 48.6863C19.2956 48.5762 19.1949 48.4643 19.0831 48.364C18.6832 48.0058 18.3243 47.607 17.9429 47.2312C16.8879 46.257 15.8793 45.2336 14.9378 44.1536C14.2095 43.3133 13.494 42.4589 12.8543 41.5511C12.5761 41.2507 12.3867 40.8888 12.1345 40.5696C11.4391 39.5407 10.8125 38.4668 10.2809 37.3474C10.0636 36.8481 9.82015 36.3574 9.66919 35.8333C9.55802 35.5724 9.50892 35.2908 9.39286 35.0318C9.35676 34.9357 9.34817 34.8341 9.32632 34.7357C9.18041 34.1081 9.06992 33.4702 9.03574 32.827C8.97425 32.4723 9.01779 32.1124 9.00156 31.7554C8.99043 31.5918 9.04255 31.4331 9.04001 31.2703C9.03756 30.6348 9.17916 30.0109 9.30583 29.3907C9.40956 28.8889 9.59402 28.4098 9.75612 27.9245C10.0666 27.0623 10.474 26.2359 10.9193 25.4333C11.1795 24.9298 11.4782 24.4475 11.7924 23.9751C11.99 23.6217 12.2544 23.3104 12.4706 22.9681C12.67 22.644 12.945 22.3728 13.1518 22.0536C13.7194 21.2794 14.3461 20.5485 14.9727 19.8201C15.2173 19.5609 15.4241 19.2672 15.6936 19.0313C16.039 18.6524 16.3774 18.2663 16.7506 17.9118C17.2753 17.3713 17.8547 16.8854 18.3684 16.3339C19.0807 15.6127 19.8184 14.9146 20.5853 14.2488C20.8977 14.0104 21.1691 13.7258 21.4871 13.4929C21.9044 13.1286 22.359 12.8094 22.7857 12.4568C23.2823 12.1126 23.7612 11.7446 24.2555 11.3975C24.4952 11.2522 24.7294 11.0983 24.9535 10.9305C25.6274 10.5406 26.2788 10.1114 26.978 9.76355C27.2799 9.57621 27.619 9.46201 27.9351 9.30084C28.1748 9.19739 28.4039 9.07148 28.6443 8.96761C28.897 8.85443 29.1733 8.80456 29.4255 8.69026C29.5308 8.64085 29.6427 8.60999 29.7554 8.58161H29.7644C29.8121 8.56745 29.8492 8.55951 29.8919 8.54739C29.9345 8.53857 29.9793 8.52553 30.0205 8.51453C30.0418 8.50826 30.0526 8.50582 30.0731 8.49956L30.0908 8.4936C30.1594 8.46925 30.2236 8.45122 30.2968 8.42743C30.4763 8.39233 30.6511 8.3307 30.8278 8.28348C31.3239 8.19531 31.8157 8.08284 32.3206 8.05421ZM20.8033 22.7358C20.5811 22.7837 20.3537 22.8854 20.2258 23.0782C20.0321 23.3566 19.9978 23.7057 19.9917 24.034C19.9905 28.8178 19.9917 33.6016 19.991 38.3853C19.9941 38.5964 19.9681 38.8183 20.0606 39.0166C20.1543 39.1309 20.3115 39.1728 20.4562 39.1735C21.0772 39.1777 21.6988 39.174 22.3204 39.1752C22.4596 39.1711 22.6161 39.1801 22.7347 39.0943C22.8371 38.9849 22.8204 38.8244 22.8334 38.6876C22.8359 36.5635 22.8334 34.4389 22.8348 32.3149C23.4072 32.2912 23.9816 32.3119 24.5549 32.3045C25.2374 32.3149 25.9329 32.2595 26.6018 32.4231C27.0209 32.5228 27.4327 32.7211 27.7028 33.0592C28.0567 33.4915 28.245 34.0267 28.3847 34.5562C28.7318 35.9378 29.0821 37.3188 29.4268 38.701C29.4609 38.8365 29.5149 38.9753 29.626 39.0689C29.7981 39.1765 30.0098 39.1771 30.2074 39.1752C30.8718 39.1716 31.537 39.182 32.2015 39.1704C32.433 39.1485 32.479 38.8621 32.4318 38.6814C32.0344 37.1211 31.6264 35.5632 31.2246 34.0036C31.0713 33.387 30.8507 32.7752 30.4824 32.248C30.2104 31.8576 29.7956 31.5974 29.3739 31.3864L29.3709 31.3146C29.5341 31.2233 29.7093 31.1535 29.8664 31.0507C30.8016 30.4693 31.4376 29.4751 31.632 28.4135C31.7946 27.5269 31.7449 26.5965 31.4568 25.7397C31.155 24.8549 30.5613 24.0644 29.7689 23.5421C28.8977 22.965 27.8363 22.7017 26.7918 22.6962C24.9492 22.6962 23.1067 22.6962 21.2641 22.6962C21.1095 22.6962 20.9542 22.7017 20.8033 22.7358ZM39.3115 22.7424C39.0643 22.8032 38.8152 22.9218 38.6687 23.134C38.4929 23.3846 38.4109 23.6826 38.3128 23.9678C36.6827 28.8744 35.0525 33.7815 33.4223 38.6888C33.3491 38.8608 33.3913 39.1272 33.6105 39.1661C34.3178 39.1868 35.0265 39.1697 35.7343 39.1752C35.9237 39.1735 36.1436 39.1935 36.2926 39.0531C36.4491 38.8864 36.4815 38.6517 36.5548 38.4456C36.8596 37.4958 37.1447 36.5392 37.4615 35.593C39.3896 35.5851 41.3185 35.5851 43.2468 35.593C43.5895 36.6396 43.9063 37.6946 44.2391 38.7448C44.282 38.8743 44.3366 39.0098 44.4515 39.0962C44.5745 39.168 44.7229 39.1723 44.8626 39.1752C45.5663 39.1752 46.2705 39.1752 46.9741 39.1747C47.0753 39.1728 47.1928 39.1789 47.2673 39.0981C47.3741 38.9874 47.3473 38.8171 47.307 38.6852C45.6538 33.7335 44.0013 28.7813 42.3488 23.8303C42.2221 23.4788 42.0842 23.0921 41.7557 22.8738C41.321 22.6372 40.8062 22.7084 40.3299 22.6962C39.9901 22.706 39.6449 22.6664 39.3115 22.7424ZM22.8638 25.2538C23.9866 25.2471 25.1094 25.2538 26.2323 25.2508C26.6055 25.2465 26.9842 25.2697 27.3463 25.3682C27.9419 25.5323 28.4542 25.9665 28.6834 26.5321C28.9318 27.1687 28.9523 27.8995 28.7026 28.5387C28.5101 29.0069 28.1648 29.4339 27.6922 29.6527C27.2209 29.8777 26.6875 29.9263 26.1701 29.933C25.0679 29.9306 23.9656 29.9348 22.8632 29.9312C22.8564 28.3721 22.8545 26.8123 22.8638 25.2538ZM40.2734 25.8638C40.2977 25.8656 40.3467 25.8692 40.3708 25.871C40.7088 27.016 41.0291 28.1659 41.3645 29.3115C41.747 30.5928 42.1388 31.8716 42.5164 33.154C41.0602 33.1559 39.6033 33.1559 38.1469 33.154C38.4699 32.0175 38.8152 30.8872 39.1462 29.753C39.5319 28.459 39.8865 27.1565 40.2734 25.8638Z" fill="url(#paint0_radial)"/>
</g>
<path d="M20.8027 22.7361C20.9536 22.702 21.1088 22.6966 21.2635 22.6966C23.106 22.6966 24.9486 22.6966 26.7911 22.6966C27.8357 22.702 28.897 22.9653 29.7683 23.5425C30.5607 24.0648 31.1544 24.8552 31.4562 25.74C31.7443 26.5968 31.794 27.5271 31.6313 28.4138C31.4369 29.4754 30.801 30.4696 29.8658 31.0511C29.7086 31.1537 29.5335 31.2237 29.3702 31.3149L29.3733 31.3867C29.795 31.5977 30.2098 31.8579 30.4818 32.2483C30.8501 32.7755 31.0706 33.3872 31.2239 34.0039C31.6257 35.5636 32.0338 37.1215 32.4312 38.6818C32.4784 38.8624 32.4324 39.1488 32.2008 39.1707C31.5363 39.1823 30.8712 39.1719 30.2067 39.1756C30.0092 39.1774 29.7974 39.1768 29.6254 39.0692C29.5143 38.9756 29.4602 38.8369 29.4261 38.7013C29.0814 37.3191 28.7311 35.9381 28.384 34.5566C28.2443 34.027 28.0562 33.4918 27.7022 33.0595C27.432 32.7214 27.0202 32.5231 26.6011 32.4234C25.9322 32.2598 25.2367 32.3152 24.5542 32.3049C23.981 32.3122 23.4065 32.2915 22.8341 32.3152C22.8328 34.4392 22.8353 36.5639 22.8328 38.6879C22.8197 38.8247 22.8365 38.9852 22.734 39.0946C22.6154 39.1804 22.4589 39.1714 22.3198 39.1756C21.6982 39.1744 21.0766 39.178 20.4555 39.1738C20.3109 39.1731 20.1537 39.1312 20.0599 39.0169C19.9674 38.8186 19.9935 38.5967 19.9904 38.3857C19.991 33.6019 19.9898 28.8181 19.991 24.0343C19.9972 23.706 20.0314 23.3569 20.2252 23.0785C20.3531 22.8857 20.5804 22.7841 20.8027 22.7361ZM22.8632 25.2541C22.8539 26.8126 22.8558 28.3724 22.8626 29.9316C23.9649 29.9352 25.0672 29.9309 26.1695 29.9333C26.6868 29.9266 27.2202 29.878 27.6916 29.653C28.1642 29.4341 28.5095 29.0072 28.702 28.539C28.9516 27.8999 28.9311 27.169 28.6828 26.5323C28.4536 25.9668 27.9412 25.5327 27.3457 25.3685C26.9836 25.27 26.6048 25.2468 26.2316 25.2511C25.1088 25.2541 23.9861 25.2475 22.8632 25.2541ZM39.3108 22.7427C39.6443 22.6667 39.9895 22.7063 40.3293 22.6966C40.8056 22.7087 41.3204 22.6376 41.7551 22.8741C42.0835 23.0924 42.2215 23.4791 42.3482 23.8306C44.0006 28.7817 45.6532 33.7338 47.3063 38.6855C47.3467 38.8174 47.3734 38.9877 47.2666 39.0984C47.1921 39.1793 47.0747 39.1731 46.9734 39.175C46.2698 39.1756 45.5656 39.1756 44.862 39.1756C44.7223 39.1726 44.5739 39.1683 44.4509 39.0965C44.336 39.0102 44.2813 38.8746 44.2385 38.7451C43.9057 37.6949 43.589 36.6399 43.2461 35.5934C41.3179 35.5855 39.389 35.5855 37.4608 35.5934C37.1441 36.5395 36.859 37.4961 36.5541 38.4459C36.4808 38.652 36.4485 38.8867 36.292 39.0534C36.143 39.1938 35.9231 39.1738 35.7337 39.1756C35.0258 39.1701 34.3172 39.1871 33.6099 39.1664C33.3907 39.1276 33.3484 38.8612 33.4217 38.6891C35.0519 33.7819 36.682 28.8747 38.3121 23.9681C38.4103 23.6829 38.4922 23.3849 38.6681 23.1344C38.8145 22.9221 39.0636 22.8036 39.3108 22.7427ZM40.2727 25.8641C39.8859 27.1568 39.5312 28.4594 39.1456 29.7533C38.8146 30.8874 38.4693 32.0179 38.1463 33.1543C39.6026 33.1562 41.0595 33.1562 42.5158 33.1543C42.1382 31.8719 41.7464 30.5931 41.3638 29.3119C41.0285 28.1662 40.7081 27.0164 40.3702 25.8713C40.346 25.8696 40.297 25.8659 40.2727 25.8641Z" fill="white"/>
<path fill-rule="evenodd" clip-rule="evenodd" d="M37.591 12.5211C38.0788 12.5534 38.54 12.7318 38.9881 12.9093C39.5263 13.125 40.0505 13.3849 40.5356 13.7016C40.9685 13.9461 41.3826 14.2279 41.7561 14.5529C42.2272 14.9 42.6462 15.3079 43.0866 15.6903C43.192 15.8099 43.3133 15.9143 43.4287 16.0245C43.6746 16.3196 43.9692 16.5704 44.2123 16.8679C44.63 17.3092 44.9926 17.7966 45.3903 18.2547C45.9334 18.9587 46.4647 19.6723 46.9651 20.4058C47.1651 20.7164 47.3719 21.0231 47.5796 21.3289C47.6546 21.4682 47.7289 21.6083 47.8177 21.7402C48.0639 22.115 48.2662 22.5155 48.4998 22.8976C49.0427 23.737 49.5372 24.6056 50.0015 25.4889C50.4542 26.3997 50.9116 27.3117 51.2675 28.264C51.5659 28.9345 51.795 29.632 52.0199 30.3296C52.4317 31.7233 52.7346 33.1638 52.7256 34.6204C52.7034 35.1201 52.6963 35.6232 52.5853 36.1139C52.5395 36.5184 52.4062 36.9058 52.3098 37.3007C52.0049 38.2574 51.5655 39.1772 50.9812 40.0035C50.5007 40.723 49.9179 41.3697 49.3239 42.0004C48.9576 42.3904 48.5582 42.7479 48.1659 43.112C47.9347 43.2982 47.7135 43.4954 47.492 43.6919C46.9835 44.0568 46.5271 44.4879 46.0047 44.8345C45.4121 45.2778 44.7938 45.6851 44.1801 46.0987C43.9159 46.232 43.685 46.4173 43.4294 46.5646C42.8879 46.8922 42.3317 47.1962 41.7783 47.5024C40.0795 48.5556 38.2757 49.4388 36.4119 50.1745C36.053 50.2872 35.7235 50.4746 35.3558 50.5652C34.8479 50.7708 34.3107 50.8943 33.7909 51.0679C33.2863 51.2039 32.7701 51.2929 32.2599 51.4044C31.8691 51.4771 31.4753 51.5311 31.0801 51.5743C30.8159 51.6288 30.546 51.6157 30.2779 51.6261C29.7755 51.6494 29.271 51.6138 28.769 51.5784C28.6481 51.568 28.5318 51.5316 28.4118 51.5153C27.8354 51.4777 27.3051 51.2366 26.776 51.0327C26.2969 50.8189 25.8313 50.5781 25.3912 50.2939C25.0468 50.1013 24.7454 49.8439 24.4145 49.6307C24.2632 49.482 24.0827 49.3662 23.9185 49.232C23.4532 48.8287 22.9878 48.4236 22.5535 47.9882C22.3236 47.7119 22.0452 47.4783 21.8185 47.2002C21.5595 46.9201 21.3086 46.6337 21.0762 46.3321C20.6666 45.8647 20.2969 45.3655 19.9178 44.8738C19.7314 44.5907 19.509 44.3321 19.3298 44.0445C19.0085 43.6111 18.7326 43.1488 18.4231 42.7074C18.364 42.5974 18.3066 42.4861 18.2378 42.3821C17.9914 42.0102 17.7869 41.614 17.5593 41.2317C16.9156 40.227 16.3199 39.1923 15.7906 38.1254C15.3822 37.2962 14.9872 36.4583 14.665 35.5929C14.5046 35.2927 14.4292 34.9613 14.2938 34.6513C13.9525 33.6765 13.6765 32.6794 13.487 31.6651C13.4185 31.2168 13.3271 30.77 13.3175 30.3152C13.2837 30.0814 13.3044 29.8438 13.2662 29.6105C13.2577 29.5254 13.2725 29.4414 13.276 29.3574C13.2927 28.82 13.3403 28.2817 13.4508 27.7546C13.4772 27.4553 13.5897 27.1733 13.6532 26.8814C13.6793 26.7469 13.7555 26.6293 13.7884 26.4972C13.9228 25.9829 14.1712 25.5077 14.4067 25.0324C14.5982 24.6481 14.8502 24.2988 15.0854 23.9399C15.5215 23.3068 16.0282 22.7226 16.5604 22.1654C16.8788 21.8119 17.2238 21.4836 17.5792 21.1663C17.8148 20.9213 18.0954 20.7241 18.3436 20.4919C18.5743 20.2709 18.8549 20.1083 19.0906 19.8928C19.7156 19.3838 20.379 18.9219 21.0419 18.4621C21.2953 18.3029 21.5255 18.108 21.794 17.9728C22.1545 17.7376 22.511 17.4951 22.8888 17.2854C23.4289 16.9564 24.0016 16.6828 24.5352 16.3427C25.2658 15.9063 26.012 15.4939 26.7749 15.1135C27.0786 14.985 27.3591 14.8108 27.6661 14.688C28.0816 14.4794 28.5176 14.3149 28.9382 14.1176C29.4136 13.9417 29.8797 13.7428 30.3538 13.5638C30.5788 13.4958 30.801 13.4195 31.0183 13.33C31.6467 13.1536 32.2654 12.9407 32.9053 12.8033C33.1896 12.714 33.4882 12.6915 33.7783 12.6263C33.9943 12.5919 34.2065 12.5373 34.4231 12.5028C34.6517 12.4634 34.8858 12.4799 35.1141 12.4394C35.2099 12.4211 35.307 12.4193 35.4042 12.4195L35.4114 12.4213C35.4531 12.4197 35.4847 12.4209 35.5218 12.4199C35.5582 12.4216 35.5972 12.4202 35.6329 12.4198C35.6514 12.4191 35.6607 12.4194 35.6786 12.4185L35.6942 12.4174C35.7549 12.4118 35.8106 12.4104 35.8749 12.4062C36.0275 12.4148 36.1821 12.401 36.3351 12.3991C36.755 12.43 37.1767 12.4403 37.591 12.5211V12.5211Z" stroke="#AE6FAC" stroke-width="1.2" stroke-miterlimit="22.9256"/>
<defs>
<filter id="filter0_d" x="0" y="0" width="68" height="68" filterUnits="userSpaceOnUse" color-interpolation-filters="sRGB">
<feFlood flood-opacity="0" result="BackgroundImageFix"/>
<feColorMatrix in="SourceAlpha" type="matrix" values="0 0 0 0 0 0 0 0 0 0 0 0 0 0 0 0 0 0 127 0"/>
<feOffset dx="1" dy="2"/>
<feGaussianBlur stdDeviation="5"/>
<feColorMatrix type="matrix" values="0 0 0 0 1 0 0 0 0 1 0 0 0 0 1 0 0 0 0.1 0"/>
<feBlend mode="normal" in2="BackgroundImageFix" result="effect1_dropShadow"/>
<feBlend mode="normal" in="SourceGraphic" in2="effect1_dropShadow" result="shape"/>
</filter>
<radialGradient id="paint0_radial" cx="0" cy="0" r="1" gradientUnits="userSpaceOnUse" gradientTransform="translate(42.1223 21.9197) rotate(-48.488) scale(47.4945 47.6263)">
<stop stop-color="#A2198E"/>
<stop offset="0.329412" stop-color="#7D1B70"/>
<stop offset="1" stop-color="#651661"/>
</radialGradient>
</defs>
</svg>
