<svg width="70" height="70" viewBox="0 0 70 70" fill="none" xmlns="http://www.w3.org/2000/svg">
<g filter="url(#filter0_d)">
<path d="M40 43L36 47H50V52C50 53.5913 49.3679 55.1174 48.2426 56.2426C47.1174 57.3679 45.5913 58 44 58H24C22.4087 58 20.8826 57.3679 19.7574 56.2426C18.6321 55.1174 18 53.5913 18 52V35H25C26.0609 35 27.0783 34.5786 27.8284 33.8284C28.5786 33.0783 29 32.0609 29 31V23L33 19H18V14C18 12.4087 18.6321 10.8826 19.7574 9.75736C20.8826 8.63214 22.4087 8 24 8H44C45.5913 8 47.1174 8.63214 48.2426 9.75736C49.3679 10.8826 50 12.4087 50 14V32H44C42.9391 32 41.9217 32.4214 41.1716 33.1716C40.4214 33.9217 40 34.9391 40 36V43Z" fill="url(#paint0_linear)"/>
<path d="M40 43L36 47H46V52C46 52.5304 45.7893 53.0391 45.4142 53.4142C45.0391 53.7893 44.5304 54 44 54H24C23.4696 54 22.9609 53.7893 22.5858 53.4142C22.2107 53.0391 22 52.5304 22 52V35H25C26.0609 35 27.0783 34.5786 27.8284 33.8284C28.5786 33.0783 29 32.0609 29 31V23L33 19H22V14C22 13.4696 22.2107 12.9609 22.5858 12.5858C22.9609 12.2107 23.4696 12 24 12H28C28.47 12.91 28.84 14 30.24 14C39.4 14 38.71 14.52 40 12H44C44.5304 12 45.0391 12.2107 45.4142 12.5858C45.7893 12.9609 46 13.4696 46 14V32H44C42.9391 32 41.9217 32.4214 41.1716 33.1716C40.4214 33.9217 40 34.9391 40 36V43Z" fill="#F0F7FC"/>
<path d="M33 19L29 23V31C29 32.0609 28.5786 33.0783 27.8284 33.8284C27.0783 34.5786 26.0609 35 25 35H13C11.9391 35 10.9217 34.5786 10.1716 33.8284C9.42143 33.0783 9 32.0609 9 31V23C9 21.9391 9.42143 20.9217 10.1716 20.1716C10.9217 19.4214 11.9391 19 13 19H33Z" fill="url(#paint1_linear)"/>
<path d="M59 36V43C59 44.0609 58.5786 45.0783 57.8284 45.8284C57.0783 46.5786 56.0609 47 55 47H36L40 43V36C40 34.9391 40.4214 33.9217 41.1716 33.1716C41.9217 32.4214 42.9391 32 44 32H55C56.0609 32 57.0783 32.4214 57.8284 33.1716C58.5786 33.9217 59 34.9391 59 36Z" fill="#5835BA"/>
<path d="M22.13 29.17L18.88 31.75L15.63 29.17C11.12 25.58 16.57 21.78 18.77 24.89C18.95 25.1 18.77 25.1 19 24.89C21.18 21.8 26.66 25.57 22.13 29.17Z" fill="#E2E8EF"/>
<path d="M54 38H45C44.7348 38 44.4804 37.8946 44.2929 37.7071C44.1054 37.5196 44 37.2652 44 37C44 36.7348 44.1054 36.4804 44.2929 36.2929C44.4804 36.1054 44.7348 36 45 36H54C54.2652 36 54.5196 36.1054 54.7071 36.2929C54.8946 36.4804 55 36.7348 55 37C55 37.2652 54.8946 37.5196 54.7071 37.7071C54.5196 37.8946 54.2652 38 54 38Z" fill="#E2E8EF"/>
<path d="M54 43H45C44.7348 43 44.4804 42.8946 44.2929 42.7071C44.1054 42.5196 44 42.2652 44 42C44 41.7348 44.1054 41.4804 44.2929 41.2929C44.4804 41.1054 44.7348 41 45 41H54C54.2652 41 54.5196 41.1054 54.7071 41.2929C54.8946 41.4804 55 41.7348 55 42C55 42.2652 54.8946 42.5196 54.7071 42.7071C54.5196 42.8946 54.2652 43 54 43Z" fill="#E2E8EF"/>
</g>
<defs>
<filter id="filter0_d" x="-7" y="-7" width="84" height="84" filterUnits="userSpaceOnUse" color-interpolation-filters="sRGB">
<feFlood flood-opacity="0" result="BackgroundImageFix"/>
<feColorMatrix in="SourceAlpha" type="matrix" values="0 0 0 0 0 0 0 0 0 0 0 0 0 0 0 0 0 0 127 0"/>
<feOffset dx="1" dy="2"/>
<feGaussianBlur stdDeviation="5"/>
<feColorMatrix type="matrix" values="0 0 0 0 0.560784 0 0 0 0 0.431373 0 0 0 0 0.713726 0 0 0 0.2 0"/>
<feBlend mode="normal" in2="BackgroundImageFix" result="effect1_dropShadow"/>
<feBlend mode="normal" in="SourceGraphic" in2="effect1_dropShadow" result="shape"/>
</filter>
<linearGradient id="paint0_linear" x1="18" y1="33" x2="50" y2="33" gradientUnits="userSpaceOnUse">
<stop stop-color="#5835BA"/>
<stop offset="1" stop-color="#75196B"/>
</linearGradient>
<linearGradient id="paint1_linear" x1="9" y1="27" x2="33" y2="27" gradientUnits="userSpaceOnUse">
<stop stop-color="#FE9661"/>
<stop offset="1" stop-color="#FFB369"/>
</linearGradient>
</defs>
</svg>
