<svg width="646" height="505" viewBox="0 0 646 505" fill="none" xmlns="http://www.w3.org/2000/svg">
<path d="M572.44 134.328H273.342V136.051H572.44V134.328Z" fill="#373B40"/>
<path d="M594.696 166.205H251.086V167.928H594.696V166.205Z" fill="#373B40"/>
<path d="M614.512 198.082H231.199V199.805H614.512V198.082Z" fill="#373B40"/>
<path d="M635.978 229.959H209.732V231.682H635.978V229.959Z" fill="#373B40"/>
<path d="M285.26 135.19H283.537V167.067H285.26V135.19Z" fill="#373B40"/>
<path d="M257.26 167.138H255.537V199.015H257.26V167.138Z" fill="#373B40"/>
<path d="M232.922 199.015H231.199V230.892H232.922V199.015Z" fill="#373B40"/>
<path d="M341.476 135.19H339.753V167.067H341.476V135.19Z" fill="#373B40"/>
<path d="M397.691 135.19H395.968V167.067H397.691V135.19Z" fill="#373B40"/>
<path d="M453.907 135.19H452.183V167.067H453.907V135.19Z" fill="#373B40"/>
<path d="M510.122 135.19H508.399V167.067H510.122V135.19Z" fill="#373B40"/>
<path d="M566.337 135.19H564.614V167.067H566.337V135.19Z" fill="#373B40"/>
<path d="M311.465 167.138H309.742V199.015H311.465V167.138Z" fill="#373B40"/>
<path d="M367.681 167.138H365.958V199.015H367.681V167.138Z" fill="#373B40"/>
<path d="M423.896 167.138H422.173V199.015H423.896V167.138Z" fill="#373B40"/>
<path d="M480.112 167.138H478.389V199.015H480.112V167.138Z" fill="#373B40"/>
<path d="M536.327 167.138H534.604V199.015H536.327V167.138Z" fill="#373B40"/>
<path d="M592.542 167.138H590.819V199.015H592.542V167.138Z" fill="#373B40"/>
<path d="M285.26 199.015H283.537V230.892H285.26V199.015Z" fill="#373B40"/>
<path d="M341.476 199.015H339.753V230.892H341.476V199.015Z" fill="#373B40"/>
<path d="M397.691 199.015H395.968V230.892H397.691V199.015Z" fill="#373B40"/>
<path d="M453.907 199.015H452.183V230.892H453.907V199.015Z" fill="#373B40"/>
<path d="M510.122 199.015H508.399V230.892H510.122V199.015Z" fill="#373B40"/>
<path d="M566.337 199.015H564.614V230.892H566.337V199.015Z" fill="#373B40"/>
<path d="M375.004 160.893H75.9065V162.616H375.004V160.893Z" fill="#373B40"/>
<path d="M397.189 192.769H53.5782V194.492H397.189V192.769Z" fill="#373B40"/>
<path d="M417.076 224.646H33.7629V226.369H417.076V224.646Z" fill="#373B40"/>
<path d="M438.542 256.595H12.2962V258.318H438.542V256.595Z" fill="#373B40"/>
<path d="M87.8244 161.754H86.1013V193.631H87.8244V161.754Z" fill="#373B40"/>
<path d="M59.8244 193.703H58.1013V225.58H59.8244V193.703Z" fill="#373B40"/>
<path d="M35.4859 225.58H33.7629V257.457H35.4859V225.58Z" fill="#373B40"/>
<path d="M144.04 161.754H142.317V193.631H144.04V161.754Z" fill="#373B40"/>
<path d="M200.255 161.754H198.532V193.631H200.255V161.754Z" fill="#373B40"/>
<path d="M256.471 161.754H254.747V193.631H256.471V161.754Z" fill="#373B40"/>
<path d="M312.686 161.754H310.963V193.631H312.686V161.754Z" fill="#373B40"/>
<path d="M368.901 161.754H367.178V193.631H368.901V161.754Z" fill="#373B40"/>
<path d="M114.029 193.703H112.306V225.58H114.029V193.703Z" fill="#373B40"/>
<path d="M170.245 193.703H168.522V225.58H170.245V193.703Z" fill="#373B40"/>
<path d="M226.46 193.703H224.737V225.58H226.46V193.703Z" fill="#373B40"/>
<path d="M282.676 193.703H280.953V225.58H282.676V193.703Z" fill="#373B40"/>
<path d="M338.891 193.703H337.168V225.58H338.891V193.703Z" fill="#373B40"/>
<path d="M395.107 193.703H393.383V225.58H395.107V193.703Z" fill="#373B40"/>
<path d="M87.8244 225.58H86.1013V257.457H87.8244V225.58Z" fill="#373B40"/>
<path d="M144.04 225.58H142.317V257.456H144.04V225.58Z" fill="#373B40"/>
<path d="M200.255 225.58H198.532V257.456H200.255V225.58Z" fill="#373B40"/>
<path d="M256.471 225.58H254.748V257.456H256.471V225.58Z" fill="#373B40"/>
<path d="M312.686 225.58H310.963V257.456H312.686V225.58Z" fill="#373B40"/>
<path d="M368.901 225.58H367.178V257.456H368.901V225.58Z" fill="#373B40"/>
<path d="M420.809 286.893H121.712V288.616H420.809V286.893Z" fill="#373B40"/>
<path d="M443.066 318.77H99.4551V320.493H443.066V318.77Z" fill="#373B40"/>
<path d="M462.881 350.718H79.568V352.441H462.881V350.718Z" fill="#373B40"/>
<path d="M484.348 382.595H58.1013V384.318H484.348V382.595Z" fill="#373B40"/>
<path d="M133.63 287.754H131.906V319.631H133.63V287.754Z" fill="#373B40"/>
<path d="M105.701 319.703H103.978V351.58H105.701V319.703Z" fill="#373B40"/>
<path d="M81.3629 351.651H79.6398V383.528H81.3629V351.651Z" fill="#373B40"/>
<path d="M189.845 287.754H188.122V319.631H189.845V287.754Z" fill="#373B40"/>
<path d="M246.06 287.754H244.337V319.631H246.06V287.754Z" fill="#373B40"/>
<path d="M302.276 287.754H300.553V319.631H302.276V287.754Z" fill="#373B40"/>
<path d="M358.491 287.754H356.768V319.631H358.491V287.754Z" fill="#373B40"/>
<path d="M414.707 287.754H412.984V319.631H414.707V287.754Z" fill="#373B40"/>
<path d="M159.835 319.703H158.112V351.58H159.835V319.703Z" fill="#373B40"/>
<path d="M216.05 319.703H214.327V351.58H216.05V319.703Z" fill="#373B40"/>
<path d="M272.266 319.703H270.542V351.58H272.266V319.703Z" fill="#373B40"/>
<path d="M328.481 319.703H326.758V351.58H328.481V319.703Z" fill="#373B40"/>
<path d="M384.696 319.703H382.973V351.58H384.696V319.703Z" fill="#373B40"/>
<path d="M440.912 319.703H439.189V351.58H440.912V319.703Z" fill="#373B40"/>
<path d="M133.63 351.652H131.906V383.529H133.63V351.652Z" fill="#373B40"/>
<path d="M189.845 351.651H188.122V383.528H189.845V351.651Z" fill="#373B40"/>
<path d="M246.06 351.651H244.337V383.528H246.06V351.651Z" fill="#373B40"/>
<path d="M302.276 351.651H300.553V383.528H302.276V351.651Z" fill="#373B40"/>
<path d="M358.491 351.651H356.768V383.528H358.491V351.651Z" fill="#373B40"/>
<path d="M414.706 351.651H412.983V383.528H414.706V351.651Z" fill="#373B40"/>
<path d="M142.532 401.19C142.963 399.251 143.178 397.313 143.178 395.231C143.178 382.667 135.137 371.969 123.937 367.949C125.804 364.359 126.809 360.338 126.809 356.103C126.809 346.195 121.281 337.579 113.096 333.2C113.814 331.046 114.173 328.749 114.173 326.379C114.173 315.036 105.845 305.703 94.9321 304.123C95.3629 302.615 95.5783 301.036 95.5783 299.456C95.5783 289.764 87.7526 281.938 78.0603 281.938C68.368 281.938 60.5423 289.764 60.5423 299.456C60.5423 301.323 60.8295 303.118 61.3321 304.769C51.8551 307.426 44.891 316.113 44.891 326.451C44.891 328.821 45.25 331.118 45.968 333.272C37.8551 337.651 32.2551 346.267 32.2551 356.174C32.2551 360.482 33.3321 364.503 35.1269 368.021C23.9269 372.041 15.8859 382.667 15.8859 395.303C15.8859 397.313 16.1013 399.323 16.5321 401.262C6.98338 407.795 0.665405 418.78 0.665405 431.272C0.665405 451.303 16.8911 467.6 36.9936 467.6C38.1424 467.6 39.2911 467.528 40.368 467.456H118.553C119.701 467.528 120.778 467.6 121.927 467.6C141.958 467.6 158.255 451.374 158.255 431.272C158.327 418.708 152.081 407.723 142.532 401.19Z" fill="#FFB0B4"/>
<path d="M545.517 129.877H416.573V453.672H545.517V129.877Z" fill="#D4D0BE"/>
<path d="M539.271 136.339H422.891V447.928H539.271V136.339Z" fill="#D4D0BE"/>
<path d="M539.271 136.339H422.891V276.267H539.271V136.339Z" fill="#B768B0"/>
<path d="M545.517 114.154H416.573V122.41H545.517V114.154Z" fill="#D4D0BE"/>
<path d="M536.112 310.297H425.978V311.59H536.112V310.297Z" fill="#6B8387"/>
<path d="M536.112 297.949H425.978V299.241H536.112V297.949Z" fill="#6B8387"/>
<path d="M372.778 486.41C372.778 486.41 399.055 487.703 407.814 490.144C416.573 492.585 421.814 493.518 416.717 496.39C411.619 499.333 380.819 502.492 374.214 502.708C374.214 502.708 371.845 503.856 371.342 500.051C370.768 496.174 368.901 485.333 372.778 486.41Z" fill="#373B40"/>
<path d="M266.809 465.518H242.255V182.646H406.809V465.518H369.476" fill="#78949B"/>
<path d="M152.583 37.6924C152.583 38.1949 152.153 38.6257 151.65 38.6257C151.148 38.6257 150.717 38.1949 150.717 37.6924C150.717 37.1898 151.148 36.759 151.65 36.759C152.153 36.759 152.583 37.1898 152.583 37.6924Z" fill="#373B40"/>
<path d="M120.06 65.7641C120.576 65.7641 120.994 65.3463 120.994 64.8308C120.994 64.3153 120.576 63.8975 120.06 63.8975C119.545 63.8975 119.127 64.3153 119.127 64.8308C119.127 65.3463 119.545 65.7641 120.06 65.7641Z" fill="#373B40"/>
<path d="M381.394 81.3435C381.394 81.846 380.963 82.2768 380.46 82.2768C379.958 82.2768 379.527 81.846 379.527 81.3435C379.527 80.8409 379.958 80.4102 380.46 80.4102C381.035 80.4102 381.394 80.7691 381.394 81.3435Z" fill="#373B40"/>
<path d="M341.763 47.9588C342.278 47.9588 342.696 47.541 342.696 47.0255C342.696 46.51 342.278 46.0922 341.763 46.0922C341.247 46.0922 340.83 46.51 340.83 47.0255C340.83 47.541 341.247 47.9588 341.763 47.9588Z" fill="#373B40"/>
<path d="M233.855 62.8923C233.855 63.3949 233.424 63.8257 232.922 63.8257C232.419 63.8257 231.989 63.3949 231.989 62.8923C231.989 62.3897 232.419 61.959 232.922 61.959C233.424 61.959 233.855 62.3897 233.855 62.8923Z" fill="#373B40"/>
<path d="M574.809 29.6512C575.325 29.6512 575.742 29.2334 575.742 28.7179C575.742 28.2024 575.325 27.7845 574.809 27.7845C574.294 27.7845 573.876 28.2024 573.876 28.7179C573.876 29.2334 574.294 29.6512 574.809 29.6512Z" fill="#373B40"/>
<path d="M464.532 0.933325C464.532 1.43589 464.101 1.86665 463.599 1.86665C463.096 1.86665 462.665 1.43589 462.665 0.933325C462.665 0.430761 463.096 0 463.599 0C464.101 0 464.532 0.358966 464.532 0.933325Z" fill="#373B40"/>
<path d="M558.512 73.3744C558.512 73.8769 558.081 74.3077 557.578 74.3077C557.076 74.3077 556.645 73.8769 556.645 73.3744C556.645 72.8718 557.076 72.441 557.578 72.441C558.081 72.441 558.512 72.8718 558.512 73.3744Z" fill="#373B40"/>
<path d="M611.712 63.8257C611.712 64.3282 611.281 64.759 610.778 64.759C610.276 64.759 609.845 64.3282 609.845 63.8257C609.845 63.3231 610.276 62.8923 610.778 62.8923C611.281 62.8923 611.712 63.3231 611.712 63.8257Z" fill="#373B40"/>
<path d="M608.122 128.872C608.122 129.374 607.691 129.805 607.188 129.805C606.686 129.805 606.255 129.374 606.255 128.872C606.255 128.369 606.686 127.938 607.188 127.938C607.763 127.938 608.122 128.369 608.122 128.872Z" fill="#373B40"/>
<path d="M400.347 29.6512C400.347 30.1538 399.917 30.5845 399.414 30.5845C398.912 30.5845 398.481 30.1538 398.481 29.6512C398.481 29.1487 398.912 28.7179 399.414 28.7179C399.917 28.7179 400.347 29.1487 400.347 29.6512Z" fill="#373B40"/>
<path d="M197.455 30.5845C197.971 30.5845 198.388 30.1667 198.388 29.6512C198.388 29.1358 197.971 28.7179 197.455 28.7179C196.94 28.7179 196.522 29.1358 196.522 29.6512C196.522 30.1667 196.94 30.5845 197.455 30.5845Z" fill="#373B40"/>
<path d="M183.455 73.3744C183.455 73.8769 183.024 74.3077 182.522 74.3077C182.019 74.3077 181.589 73.8769 181.589 73.3744C181.589 72.8718 182.019 72.441 182.522 72.441C183.024 72.441 183.455 72.8718 183.455 73.3744Z" fill="#373B40"/>
<path d="M92.5629 147.036C92.5629 147.539 92.1322 147.969 91.6296 147.969C91.127 147.969 90.6962 147.539 90.6962 147.036C90.6962 146.533 91.127 146.103 91.6296 146.103C92.1322 146.103 92.5629 146.533 92.5629 147.036Z" fill="#373B40"/>
<path d="M140.163 132.39C140.678 132.39 141.096 131.972 141.096 131.456C141.096 130.941 140.678 130.523 140.163 130.523C139.648 130.523 139.23 130.941 139.23 131.456C139.23 131.972 139.648 132.39 140.163 132.39Z" fill="#373B40"/>
<path d="M353.896 168.503L371.414 502.708" stroke="#E9E9E9" stroke-miterlimit="10"/>
<path d="M263.865 406.718L366.173 403.631" stroke="#E9E9E9" stroke-miterlimit="10"/>
<path d="M259.989 332.913L362.368 329.826" stroke="#E9E9E9" stroke-miterlimit="10"/>
<path d="M256.399 264.133L358.707 261.118" stroke="#E9E9E9" stroke-miterlimit="10"/>
<path d="M252.522 191.19L354.83 188.174" stroke="#E9E9E9" stroke-miterlimit="10"/>
<path d="M267.599 470.759L369.906 467.672" stroke="#E9E9E9" stroke-miterlimit="10"/>
<path d="M242.255 465.518L197.455 453.959V241.805V185.805L242.255 182.646V465.518Z" fill="#6B8387"/>
<path d="M157.824 143.302C156.532 142.369 155.383 141.149 154.522 139.785C154.522 139.785 154.522 139.785 154.45 139.785C154.45 139.785 154.45 139.785 154.378 139.785H154.306H154.235C154.235 139.785 154.163 139.784 154.163 139.856V139.928C154.163 139.928 154.163 139.928 154.163 140C154.594 141.364 155.168 142.656 155.886 143.877C154.378 142.8 153.158 141.364 152.296 139.641C152.224 139.569 152.153 139.569 152.081 139.569C152.009 139.569 151.937 139.641 152.009 139.785C152.009 139.785 152.009 139.784 152.009 139.856C152.727 141.723 153.589 143.518 154.665 145.169C153.66 144.308 152.655 143.446 151.722 142.441C151.722 142.441 151.722 142.441 151.65 142.441H151.578C151.578 142.441 151.578 142.441 151.506 142.441C151.506 142.441 151.506 142.513 151.435 142.513C151.435 142.513 151.435 142.513 151.435 142.584C152.296 145.313 154.45 147.61 157.107 148.687C156.317 148.831 155.527 148.759 154.665 148.4C154.45 148.328 154.307 148.543 154.522 148.687C156.03 149.764 157.681 150.41 159.548 150.554C159.619 150.554 159.619 150.554 159.691 150.482C160.768 149.549 161.845 148.615 162.922 147.682C162.994 147.61 162.994 147.61 162.994 147.538C162.635 145.743 160.194 141.22 157.824 143.302Z" fill="#E98870"/>
<path d="M124.799 141.005C124.799 141.005 125.66 140.143 127.024 140.574C128.388 141.005 128.604 144.523 124.799 144.451C124.799 144.451 124.296 141.866 124.799 141.005Z" fill="#E98870"/>
<path d="M191.281 173.384C183.742 159.528 167.876 148.328 167.876 148.328L166.512 149.548C164.645 147.969 163.496 147.036 163.496 147.036L158.255 151.415C159.188 152.205 160.122 153.282 161.127 154.43L160.337 155.148C167.517 163.046 176.204 181.712 176.204 181.712C161.845 175.323 142.819 170.728 142.819 170.728C141.886 174.82 154.594 197.579 158.83 200.451C162.994 203.323 196.307 210.143 198.963 205.836C201.691 201.6 198.819 187.312 191.281 173.384Z" fill="#FFB0B4"/>
<path d="M158.83 200.523C161.127 202.102 172.471 204.902 182.522 206.41C182.737 202.102 169.24 195.282 162.419 185.949C155.671 176.687 142.819 170.872 142.819 170.872C141.958 174.892 154.665 197.651 158.83 200.523Z" fill="#EC8A92"/>
<path d="M167.373 246.759L128.748 255.302L111.158 335.138L111.804 353.518C111.804 353.518 104.122 422.441 109.435 463.938L120.778 463.436C121.209 467.384 121.496 469.61 121.496 469.61L133.486 469.251C133.558 467.097 133.63 464.943 133.701 462.79L142.46 462.359C142.46 462.359 141.527 396.954 155.599 346.123C169.742 295.364 170.676 268.369 167.373 246.759Z" fill="#5835BA"/>
<path d="M149.64 274.902C149.783 268.8 149.353 262.554 148.348 256.02L116.614 249.344C116.614 249.344 103.691 259.754 104.84 282.226C104.84 282.226 105.127 285.026 104.696 290.267C104.696 290.267 101.178 315.036 84.0911 346.841C67.004 378.646 56.0911 426.82 54.4398 463.938H65.0655C64.9937 466.523 64.9219 469.179 64.9219 471.908H76.6245C76.6245 471.908 77.4142 468.964 78.7065 463.938H86.3885C86.3885 463.938 103.117 395.661 120.204 367.949C137.291 340.164 149.999 294.072 151.291 278.779C151.507 276.841 150.86 275.62 149.64 274.902Z" fill="#5835BA"/>
<path d="M119.63 164.913C119.63 164.913 104.912 165.846 99.8141 181.21C96.009 192.482 98.3783 202.892 106.85 215.6C115.322 228.236 114.173 242.667 114.245 245.395C114.317 248.195 120.348 255.446 138.081 256.595C155.814 257.672 167.732 248.41 169.312 243.815C170.891 239.22 165.435 223.354 165.794 207.272C166.081 191.19 148.491 163.405 119.63 164.913Z" fill="#FFB0B4"/>
<path d="M111.804 167.21C111.804 167.21 127.096 175.179 130.471 174.102C133.845 173.025 128.101 165.272 128.101 165.272C128.101 165.272 120.85 163.118 111.804 167.21Z" fill="#E98870"/>
<path d="M111.804 167.21C111.804 167.21 114.963 156.872 114.963 145.6H125.947C125.947 145.6 124.727 158.738 128.101 165.343C128.101 165.343 125.517 170.297 111.804 167.21Z" fill="#E98870"/>
<path d="M125.158 137.487H114.963V150.338H125.158V137.487Z" fill="#E98870"/>
<path d="M125.158 137.487C125.158 137.487 128.389 147.108 128.389 152.133C128.389 157.159 119.271 156.943 118.265 151.128C118.194 151.128 121.855 137.774 125.158 137.487Z" fill="#E98870"/>
<path d="M125.876 155.436C125.876 155.436 120.778 156.656 118.696 152.636C118.696 152.636 121.209 164.051 126.594 160.605C126.594 160.605 126.019 157.159 125.876 155.436Z" fill="#36162C"/>
<path d="M158.901 149.405L125.66 159.241C125.66 159.241 123.937 162.328 125.66 165.487L158.901 173.169" fill="#A44DA7"/>
<path d="M125.66 165.487C123.937 162.328 125.66 159.241 125.66 159.241L126.235 159.097C125.947 158.738 125.517 158.523 125.158 158.523C124.009 158.523 123.147 160.246 123.147 162.4C123.147 164.554 124.081 166.277 125.158 166.277C125.517 166.277 125.876 166.061 126.235 165.702L125.66 165.487Z" fill="#F9F7F5"/>
<path d="M143.178 173.097L135.353 170.943L135.496 170.441C136.071 168.718 135.496 166.779 135.496 166.779L135.209 165.918L146.05 168.359L144.973 169.005C143.322 170.01 143.106 172.379 143.106 172.451L143.178 173.097ZM136.645 170.297L142.317 171.805C142.46 171.087 142.819 169.866 143.681 168.861L136.645 167.282C136.789 168.072 136.932 169.149 136.645 170.297Z" fill="#8E3D94"/>
<path d="M157.178 172.738L158.901 173.169V149.477L157.178 149.979C157.178 149.907 152.655 159.456 157.178 172.738Z" fill="#8E3D94"/>
<path d="M163.496 161.251C163.496 168.143 161.917 173.743 159.978 173.743C158.04 173.743 156.46 168.143 156.46 161.251C156.46 154.359 158.04 148.759 159.978 148.759C161.917 148.759 163.496 154.359 163.496 161.251Z" fill="#502340"/>
<path d="M159.978 148.759C159.619 148.759 159.189 148.974 158.901 149.405C158.901 149.405 162.204 150.051 162.132 160.748C162.06 169.795 160.194 173.456 158.901 173.169C159.26 173.6 159.619 173.815 159.978 173.815C161.917 173.815 163.496 168.215 163.496 161.323C163.496 154.431 161.917 148.759 159.978 148.759Z" fill="#E7AA4F"/>
<path d="M156.46 151.774L135.784 157.23V157.446L156.101 153.066L156.46 151.774Z" fill="#F9F7F5"/>
<path d="M155.671 162.328H155.24C154.809 166.923 147.558 166.851 144.327 165.559C141.168 164.266 139.23 165.702 135.783 165.559C132.409 165.415 125.23 163.548 125.014 163.548C125.086 164.195 125.301 164.841 125.66 165.559L157.609 172.882L155.671 162.328Z" fill="#8E3D94"/>
<path d="M155.24 162.328C155.24 162.328 154.306 164.841 151.65 165.343C151.65 165.343 153.804 165.559 155.168 164.266C156.532 163.046 155.24 162.328 155.24 162.328Z" fill="#8E3D94"/>
<path d="M156.532 163.764C156.604 163.764 156.676 163.836 156.748 163.836C157.896 163.764 158.758 162.328 158.686 160.533C158.614 158.882 157.681 157.59 156.604 157.446C156.46 158.666 156.389 159.887 156.389 161.251C156.46 162.113 156.46 162.974 156.532 163.764Z" fill="#36162C"/>
<path d="M125.517 159.6C125.517 159.6 124.655 159.671 124.296 161.538C124.009 163.118 124.512 164.769 125.373 164.841C125.373 164.841 124.296 162.687 125.517 159.6Z" fill="#36162C"/>
<path d="M108.717 392.072C108.717 392.072 134.348 346.482 141.096 320.349C141.096 320.349 140.307 355.313 108.214 402.338L108.717 392.072Z" fill="#36162C"/>
<path d="M150.501 256.667C150.501 256.667 151.65 264.492 150.501 270.738C149.353 276.984 155.168 264.708 150.501 256.667Z" fill="#36162C"/>
<path d="M143.753 182.574L142.101 187.672C143.465 225.866 137.291 248.554 127.599 242.02C117.117 234.913 98.9526 194.061 98.9526 194.061C98.5937 193.272 98.3065 192.482 98.1629 191.62C98.2347 199.23 101.106 206.841 106.922 215.528C110.727 221.272 112.594 227.374 113.527 232.543C118.122 238.574 123.219 245.682 129.394 246.687C150.932 250.277 143.753 182.574 143.753 182.574Z" fill="#EC8A92"/>
<path d="M143.753 182.574L141.886 181.928C141.814 180.564 141.742 179.2 141.671 177.764L134.994 177.405C134.994 177.405 134.922 178.195 134.706 179.415L133.845 179.128C133.701 188.031 129.681 203.897 128.46 208.42C128.388 208.492 128.389 208.636 128.317 208.708C128.317 208.708 124.153 187.6 112.953 178.697C103.906 171.518 97.6603 180.42 97.7321 188.605C97.7321 190.544 98.0911 192.41 98.8808 194.061C98.8808 194.061 99.0962 194.492 99.3833 195.21C102.112 204.472 108.717 221.846 122.573 236.923C124.368 239.149 126.019 240.872 127.527 241.949C129.106 243.026 130.542 243.313 131.906 242.882C132.337 242.738 132.696 242.595 133.055 242.379C146.84 235.056 143.753 182.574 143.753 182.574Z" fill="#FFB0B4"/>
<path d="M120.563 188.03C120.563 188.03 128.03 200.81 128.245 208.707C128.245 208.707 133.845 189.179 133.701 180.851C133.701 180.851 130.686 195.21 129.681 197.005C128.748 198.8 124.727 189.754 120.563 188.03Z" fill="#EC8A92"/>
<path d="M64.9219 471.907H76.6245C76.6245 471.907 77.4142 468.964 78.7065 463.938H64.9937C64.9937 466.595 64.9219 469.179 64.9219 471.907Z" fill="#E98870"/>
<path d="M121.64 469.61L133.63 469.251C133.701 467.097 133.773 464.944 133.845 462.79L120.922 463.364C121.353 467.385 121.64 469.61 121.64 469.61Z" fill="#E98870"/>
<path d="M114.963 141.292C114.963 141.292 117.045 141.148 117.906 139.21C117.906 139.21 121.783 141.938 126.091 140.43L126.306 141.292C126.306 141.292 127.599 140.071 127.742 138.492C127.886 136.482 127.24 130.307 116.758 134.472C116.758 134.472 115.896 133.897 114.747 133.825C113.599 133.754 111.373 135.046 111.947 137.774C112.522 140.502 112.665 147.754 114.891 149.261C114.891 149.261 115.465 146.174 115.465 144.954L114.963 144.81V141.292Z" fill="#36162C"/>
<path d="M114.963 141.292C114.963 141.292 114.101 140.431 112.737 140.861C111.373 141.292 111.158 144.81 114.963 144.738C114.963 144.738 115.465 142.154 114.963 141.292Z" fill="#E98870"/>
<path d="M135.783 177.477C135.783 177.477 135.209 174.82 135.496 173.169C135.783 171.589 136.932 170.154 137.435 169.938C137.435 169.938 138.081 169.651 138.727 170.225C138.727 170.225 139.517 170.01 140.019 170.584C140.019 170.584 140.737 170.369 141.096 170.871C141.096 170.871 141.814 170.943 141.814 171.589C141.814 171.589 143.322 174.892 141.096 177.692L135.783 177.477Z" fill="#E98870"/>
<path d="M135.424 173.6C135.424 173.6 135.281 171.805 135.783 171.159L136.214 171.302L135.424 173.6Z" fill="#FFC1BD"/>
<path d="M64.9218 471.907C64.9218 471.907 63.7013 474.061 64.9218 476.79H73.8244C73.8244 476.79 77.1987 475.21 76.6962 471.907H64.9218Z" fill="#5A33B4"/>
<path d="M121.64 469.61L119.271 473.056V476.646L151.076 476.43L151.363 474.923L133.63 469.323L121.64 469.61Z" fill="#5A33B4"/>
<path d="M266.306 487.128C266.306 487.128 238.522 489.282 233.353 492.226C228.183 495.241 230.337 497.826 251.373 500.482C251.373 500.482 268.891 504.215 268.676 500.482C268.46 496.677 269.322 486.841 266.306 487.128Z" fill="#373B40"/>
<path d="M370.553 486.267C399.199 487.918 418.512 491.005 418.512 494.523C418.512 499.764 376.44 504 324.532 504C272.624 504 230.553 499.764 230.553 494.523C230.553 491.436 245.199 488.708 267.958 486.985" stroke="#E9E9E9" stroke-miterlimit="10"/>
<path d="M371.497 502.995C371.449 502.539 370.82 491.947 370.5 486.5C370.5 486.5 339.514 484.902 319.5 485C299.486 485.098 268 487 268 487L269 502C315.305 505.983 371.032 502.628 371.497 502.995Z" fill="#373B40"/>
<path d="M371.497 502.995C371.449 502.539 370.82 491.947 370.5 486.5C370.5 486.5 339.514 484.902 319.5 485C299.486 485.098 268 487 268 487L269 502C315.305 505.983 371.032 502.628 371.497 502.995ZM371.497 502.995C371.499 502.996 371.5 503 371.5 503C371.5 503.015 371.499 503.013 371.497 502.995Z" stroke="#E9E9E9"/>
<path d="M251.373 168.503L268.676 501.631" stroke="#E9E9E9" stroke-miterlimit="10"/>
<path d="M286.481 144.164V183.005L338.03 182.646V144.164H286.481Z" fill="#6F7FE3"/>
<path d="M286.481 144.164V183.005L338.03 182.646V144.164H286.481Z" fill="url(#paint0_linear)"/>
<path d="M286.481 144.164L256.399 146.318V182.646L286.481 183.005V144.164Z" fill="url(#paint1_linear)"/>
<path d="M542.645 118.318C542.645 119.251 541.855 120.041 540.922 120.041C539.989 120.041 539.199 119.251 539.199 118.318C539.199 117.384 539.989 116.595 540.922 116.595C541.927 116.595 542.645 117.384 542.645 118.318Z" fill="#B9B3A1"/>
<path d="M534.101 118.318C534.101 119.251 533.312 120.041 532.378 120.041C531.445 120.041 530.655 119.251 530.655 118.318C530.655 117.384 531.445 116.595 532.378 116.595C533.312 116.595 534.101 117.384 534.101 118.318Z" fill="#B9B3A1"/>
<path d="M525.486 118.318C525.486 119.251 524.696 120.041 523.763 120.041C522.83 120.041 522.04 119.251 522.04 118.318C522.04 117.384 522.83 116.595 523.763 116.595C524.768 116.595 525.486 117.384 525.486 118.318Z" fill="#FF663C"/>
<path d="M422.891 276.338H539.199" stroke="#3D1C16" stroke-miterlimit="10"/>
<path d="M426.266 276.339L433.373 229.815L441.486 276.339" stroke="#A9A9A9" stroke-miterlimit="10"/>
<path d="M445.004 276.339L452.112 203.969L460.153 276.339" stroke="#A9A9A9" stroke-miterlimit="10"/>
<path d="M464.676 276.338L471.783 179.631L479.896 276.338" stroke="#A9A9A9" stroke-miterlimit="10"/>
<path d="M483.271 276.339L490.45 203.969L498.491 276.339" stroke="#A9A9A9" stroke-miterlimit="10"/>
<path d="M501.865 276.338L509.045 227.949L517.086 276.338" stroke="#A9A9A9" stroke-miterlimit="10"/>
<path d="M521.609 276.338L528.717 191.19L536.83 276.338" stroke="#A9A9A9" stroke-miterlimit="10"/>
<path d="M178.788 465.734H171.609V424.38H219.64V465.734H208.727" fill="#78949B"/>
<path d="M430.43 94.0515H428.994V68.6361H438.543V94.0515H436.317" fill="#B768B0"/>
<path d="M453.117 94.0514H451.681V44.7283H461.23V94.0514H459.076" fill="#B768B0"/>
<path d="M475.804 94.0515H474.368V52.7694H483.917V94.0515H481.763" fill="#B768B0"/>
<path d="M498.563 94.0515H497.127V37.6925H506.604V94.0515H504.45" fill="#B768B0"/>
<path d="M521.25 94.0514H519.814V44.7283H529.363V94.0514H527.209" fill="#B768B0"/>
<path d="M59.1783 208.779C68.4963 208.779 76.05 201.226 76.05 191.908C76.05 182.59 68.4963 175.036 59.1783 175.036C49.8602 175.036 42.3065 182.59 42.3065 191.908C42.3065 201.226 49.8602 208.779 59.1783 208.779Z" fill="#78949B"/>
<path d="M137.865 94.9129C137.865 86.0821 130.758 78.9744 121.927 78.9744C119.989 78.9744 118.122 79.3334 116.399 79.9795C114.46 76.0308 110.512 73.3744 105.845 73.3744C105.773 73.3744 105.701 73.3744 105.558 73.3744C101.609 67.6308 95.0039 63.8975 87.5372 63.8975C78.8501 63.8975 71.4552 68.9231 67.9373 76.2462C66.4296 75.8154 64.7783 75.5282 63.0552 75.5282C53.2911 75.5282 45.3937 83.4257 45.3937 93.1898C45.3937 102.954 53.2911 110.851 63.0552 110.851H123.865V110.708C131.763 109.774 137.865 103.026 137.865 94.9129Z" fill="#DEDBD3"/>
<path d="M326.686 34.318H165.506V136.338H326.686V34.318Z" fill="#D4D0BE"/>
<path d="M326.614 136.339V100.728C321.086 69.7847 314.194 62.5334 309.742 62.677C298.614 63.036 295.455 104.749 283.968 103.313C272.409 101.877 268.173 54.277 254.03 55.0667C236.224 56.0719 233.783 110.277 222.44 109.415C211.096 108.554 201.188 76.8206 188.122 77.8975C175.055 78.9026 165.435 104.533 165.435 104.533V136.482H326.614V136.339Z" fill="#B768B0"/>
<path d="M502.368 252.718C499.712 251.928 497.127 251.067 494.471 250.133C494.399 250.133 494.327 250.205 494.399 250.277C496.983 251.21 499.64 252.072 502.296 252.862C502.44 252.862 502.44 252.718 502.368 252.718Z" fill="#F06567"/>
<path d="M495.907 199.661C495.978 199.661 495.978 199.518 495.907 199.518C495.835 199.518 495.835 199.661 495.907 199.661Z" fill="#F06567"/>
<path d="M508.686 250.708C508.614 250.636 508.614 250.636 508.614 250.564C507.035 249.774 505.671 248.841 504.45 247.621C504.306 247.477 504.163 247.621 504.163 247.764C504.091 248.769 504.594 249.487 504.881 250.421C502.153 249.918 499.209 249.415 496.696 248.123C496.696 248.123 496.696 248.123 496.624 248.123H496.553C496.553 248.123 496.553 248.123 496.481 248.123C496.481 248.123 496.409 248.123 496.409 248.195C496.409 248.195 496.409 248.195 496.409 248.267V248.338V248.41C497.917 249.774 499.568 250.923 501.291 251.856L495.404 249.99C495.188 249.846 494.901 249.703 494.686 249.559C494.471 249.415 494.327 249.703 494.542 249.846C496.409 251.067 498.276 252.503 500.286 253.436C498.563 253.077 496.84 252.718 495.117 252.287H495.045C495.045 252.287 494.973 252.287 494.973 252.359V252.431C494.973 252.431 494.973 252.503 495.045 252.503C496.84 253.364 498.635 254.082 500.501 254.8C499.137 254.585 497.773 254.226 496.481 253.723C496.265 253.651 496.194 253.938 496.337 254.01C498.132 255.374 500.286 256.092 502.512 256.092C504.45 256.81 506.604 256.81 508.471 255.949L508.542 255.877C508.542 254.154 508.614 252.431 508.686 250.708Z" fill="#E98870"/>
<path d="M496.84 196.933C496.84 196.789 496.625 196.718 496.553 196.861C496.122 197.651 495.763 198.369 495.691 199.231C494.83 196.718 493.322 194.492 491.168 192.841H491.096C491.096 192.841 491.096 192.841 491.024 192.841H490.953H490.881V192.913V192.984C491.599 193.918 492.173 194.923 492.604 196.072C491.742 194.779 490.737 193.702 489.445 192.769C489.373 192.697 489.301 192.769 489.301 192.769C489.301 192.769 489.301 192.841 489.301 192.913C489.301 192.913 489.301 192.913 489.301 192.984C490.235 194.205 490.953 195.497 491.455 196.861C490.737 195.856 489.876 194.995 488.942 194.205H488.871C488.871 194.205 488.871 194.205 488.799 194.205H488.727C488.727 194.205 488.727 194.205 488.655 194.277C488.655 194.277 488.655 194.277 488.655 194.348V194.42C489.373 195.784 489.876 197.22 490.45 198.656C489.589 198.225 488.799 197.651 488.153 196.933C488.153 196.933 488.153 196.933 488.081 196.933H488.009H487.937C487.937 196.933 487.937 196.933 487.865 196.933C487.865 196.933 487.865 196.933 487.794 197.005C487.794 197.005 487.794 197.005 487.794 197.077V197.148C487.794 197.148 487.794 197.148 487.794 197.22C489.373 200.092 490.737 203.466 493.394 205.477C493.394 205.477 493.394 205.477 493.466 205.477C493.466 205.548 493.537 205.548 493.609 205.548C495.045 204.974 496.481 204.4 497.773 203.538C497.773 203.538 497.773 203.466 497.845 203.466C497.845 203.466 497.845 203.466 497.845 203.395C497.845 203.395 497.845 203.395 497.845 203.323C497.271 201.241 496.983 199.087 496.84 196.933Z" fill="#E98870"/>
<path d="M552.265 180.492C552.265 180.492 554.778 191.692 553.342 197.077C551.906 202.461 550.901 205.261 553.342 208.42C555.783 211.579 563.394 209.138 563.322 203.394C563.25 197.651 557.794 179.415 554.276 178.482C550.83 177.548 552.265 180.492 552.265 180.492Z" fill="#36162C"/>
<path d="M550.183 211.508C550.183 211.508 541.496 225.005 528.429 224.215C527.712 224.143 526.563 224 525.127 223.641C517.876 221.631 510.194 215.025 504.953 209.713C503.66 207.99 502.44 206.123 501.291 203.969L500.286 204.615C499.209 203.395 498.635 202.605 498.635 202.605L492.604 205.836C492.604 205.836 493.035 206.984 493.896 208.851L492.604 209.713C492.604 209.713 504.522 238 524.624 244.318C525.271 244.533 525.917 244.677 526.563 244.82C527.999 245.179 529.506 245.395 531.014 245.466C531.23 245.466 531.445 245.467 531.732 245.538C531.876 245.538 531.947 245.538 532.091 245.538C532.163 245.538 532.235 245.538 532.306 245.538C550.758 246.184 560.091 230.461 560.091 230.461L550.183 211.508Z" fill="#FFB0B4"/>
<path d="M560.019 230.605L552.05 215.169L548.46 214.02C548.46 214.02 543.291 220.195 542.43 227.015C541.568 233.907 540.994 240.225 536.973 241.661C532.953 243.097 527.209 246.543 510.983 236.277C514.932 239.866 519.527 242.882 524.553 244.461C525.199 244.677 525.845 244.82 526.491 244.964C527.927 245.323 529.435 245.538 530.942 245.61C531.158 245.61 531.373 245.61 531.66 245.682C531.804 245.682 531.876 245.682 532.019 245.682C532.091 245.682 532.163 245.682 532.235 245.682C550.686 246.328 560.019 230.605 560.019 230.605Z" fill="#EC8A92"/>
<path d="M624.85 416.051C624.85 416.051 629.301 447.282 634.183 472.051L625.424 473.2C625.424 473.2 616.522 452.954 610.778 422.082L624.85 416.051Z" fill="#E98870"/>
<path d="M527.855 424.164C520.173 446.995 513.855 473.128 513.855 473.128H525.055C531.66 455.395 537.691 441.108 543.722 427.826C536.399 427.251 532.953 426.174 527.855 424.164Z" fill="#E98870"/>
<path d="M557.507 427.61C559.66 421.005 561.958 414.328 564.471 407.938C579.978 367.23 588.235 332.123 587.948 322.861C587.66 313.6 585.865 274.471 585.865 274.471L561.24 280.071C561.24 280.071 532.594 342.318 515.65 418.492C515.65 418.492 535.178 430.912 557.507 427.61Z" fill="#5835BA"/>
<path d="M628.296 412.892C619.322 366.441 616.019 318.338 615.804 303.979C615.301 275.979 605.25 267.148 605.25 267.148L576.604 280.502C576.604 280.502 568.922 283.661 572.655 348.779C574.091 374.266 580.912 401.118 588.594 424.307C593.045 424.523 616.953 425.241 628.296 412.892Z" fill="#5835BA"/>
<path d="M564.867 175.417L553.743 177.239L556.051 191.339L567.176 189.517L564.867 175.417Z" fill="#E98870"/>
<path d="M574.019 205.046C574.019 205.046 568.276 247.908 508.399 249.415L508.471 257.241C508.471 257.241 544.296 264.349 569.065 252.574C595.127 240.154 594.122 210.861 594.122 210.861C594.122 210.861 594.624 199.302 586.942 197.867C580.265 196.574 575.527 198.8 574.019 205.046Z" fill="#EC8A92"/>
<path d="M590.245 199.015C590.245 199.015 599.148 203.107 600.655 213.159C602.019 222.205 601.158 237.497 604.317 250.205L590.245 243.528V199.015Z" fill="#FFB0B4"/>
<path d="M604.389 250.277C604.389 250.277 606.04 262.554 607.117 264.42C608.194 266.287 601.086 274.903 597.783 276.267C594.696 277.487 603.958 259.036 603.958 259.036L604.389 250.277Z" fill="#EC8A92"/>
<path d="M600.153 232.4C599.722 223.641 597.784 202.246 590.245 199.015C583.568 196.143 580.983 196.359 557.722 205.979C557.722 205.979 548.173 208.636 545.876 221.2C544.081 230.964 549.107 239.723 552.122 247.405C552.122 247.405 552.122 247.405 552.122 247.477C552.768 249.2 553.342 250.851 553.701 252.502C556.142 260.4 560.45 274.974 560.019 278.779C561.455 280.287 563.25 281.292 565.619 281.507C580.122 282.943 601.014 279.066 604.819 268.8C608.84 258.318 600.583 241.23 600.153 232.4Z" fill="#FFB0B4"/>
<path d="M558.942 205.62C558.942 205.62 555.712 213.159 558.583 214.02C560.235 214.523 568.85 209.856 572.655 200.236L558.942 205.62Z" fill="#E98870"/>
<path d="M558.942 205.62C558.942 205.62 558.583 200.81 555.999 191.333L567.127 189.538C567.127 189.538 567.917 194.995 572.583 200.164L562.676 207.056L558.942 205.62Z" fill="#E98870"/>
<path d="M553.701 177.189C553.701 177.189 552.553 191.764 554.491 193.702C556.43 195.641 562.101 193.271 563.609 189.466C565.045 185.733 559.517 176.687 553.701 177.189Z" fill="#E98870"/>
<path d="M575.742 375.415C575.742 375.415 570.358 338.8 571.65 315.466C571.65 315.466 565.547 351.938 571.65 387.836L575.742 375.415Z" fill="#36162C"/>
<path d="M511.414 247.979L512.276 259.395C512.276 259.395 553.486 266.718 576.747 247.979L562.173 228.451C562.173 228.451 549.178 247.764 511.414 247.979Z" fill="#FFB0B4"/>
<path d="M555.424 258.03C555.424 258.03 590.317 248.984 594.265 217.538C594.265 217.538 596.491 246.041 557.291 264.277L555.424 258.03Z" fill="#EC8A92"/>
<path d="M556.788 194.42C556.788 194.42 559.373 194.061 561.455 192.338C561.455 192.338 562.245 197.077 557.578 197.866L556.788 194.42Z" fill="#36162C"/>
<path d="M564.973 177.62C564.973 177.62 562.317 180.564 556.358 177.62C556.358 177.62 555.137 179.415 553.558 178.913L553.414 181.138C553.414 181.138 550.04 179.989 550.04 176.113C550.04 172.236 555.137 169.005 561.455 170.082C567.773 171.159 568.85 175.969 568.922 178.123C568.994 180.277 571.937 187.097 578.471 189.466C585.004 191.836 584.358 200.092 580.84 201.959C577.896 203.538 571.506 206.554 568.132 199.015C564.686 191.477 564.901 182.143 565.547 180.995L564.973 177.62Z" fill="#36162C"/>
<path d="M563.537 178.195C563.537 178.195 564.399 177.333 565.763 177.764C567.127 178.195 567.342 181.713 563.537 181.641C563.537 181.641 563.106 178.984 563.537 178.195Z" fill="#E98870"/>
<path d="M513.855 473.128L497.63 476.933L497.199 479.446H526.419L527.281 475.784L525.055 473.128H513.855Z" fill="#36162C"/>
<path d="M625.424 473.128V478.512L636.624 486.984L645.671 485.692L634.183 471.979L625.424 473.128Z" fill="#36162C"/>
<path d="M295.024 134.831C293.732 131.815 290.501 127.005 286.624 127.938C286.624 127.938 286.553 127.938 286.553 128.01C286.481 128.082 286.481 128.154 286.553 128.154C286.553 128.154 286.553 128.226 286.624 128.226C287.63 128.656 288.491 129.303 289.209 130.02C288.491 130.02 287.917 130.523 287.989 131.241C287.127 131.313 286.481 131.959 286.409 132.821C285.619 133.969 287.342 136.554 288.994 137.487C288.994 137.487 288.994 137.487 289.066 137.487C289.066 137.487 289.281 137.631 289.281 137.559C291.291 136.841 293.086 135.979 294.953 134.974C295.024 135.046 295.024 134.903 295.024 134.831Z" fill="#E98870"/>
<path d="M318.142 69.2102C318.071 69.0666 317.999 68.9948 317.855 68.923L317.784 68.8512C317.425 68.6358 317.066 68.6358 317.066 68.6358C317.066 68.6358 317.066 68.6359 317.066 68.5641C316.635 67.7743 315.845 67.4871 314.983 67.7025C314.194 65.4769 312.399 63.9692 310.604 62.6051C310.46 62.5333 310.317 62.6051 310.317 62.7487C310.317 62.7487 310.317 62.7487 310.317 62.8205V62.8922C311.178 64.041 311.896 65.1897 312.471 66.5538C311.609 65.5487 310.317 64.9743 309.168 64.2564H309.096H309.024L308.953 64.3281V64.3999C308.953 64.3999 308.953 64.3999 308.953 64.4717C309.742 65.4769 310.532 66.5538 311.178 67.7025C311.466 68.2769 311.681 68.7794 311.824 69.3538C311.824 69.2102 311.609 69.1384 311.466 69.282C311.035 70.2153 310.604 71.2923 310.891 72.3692C311.178 73.4461 312.04 74.3076 312.83 75.0256H312.901H312.973C312.973 75.0256 312.973 75.0256 313.045 75.0256L318.358 74.3076C318.43 74.3076 318.43 74.3076 318.501 74.3076C318.573 74.3076 318.645 74.2358 318.645 74.164C318.717 74.164 318.717 74.0922 318.717 74.0204C318.717 72.7999 319.148 70.2871 318.142 69.2102ZM311.824 69.4974C311.968 69.9999 312.04 70.5025 312.04 71.0769C311.753 70.6461 311.681 70.0717 311.824 69.4974Z" fill="#E98870"/>
<path d="M338.532 383.815C338.532 383.815 338.676 389.056 339.106 392.646L348.009 391.497C348.009 391.497 348.296 387.548 348.799 383.456L338.532 383.815Z" fill="#E98870"/>
<path d="M300.409 315.251C300.409 315.251 302.204 320.779 303.783 324.082L312.542 323.364C312.542 323.364 310.819 316.328 310.101 312.307L300.409 315.251Z" fill="#E98870"/>
<path d="M339.106 392.646L333.147 401.764L327.26 403.128V405.21H336.378L348.799 397.097L348.009 391.497L339.106 392.646Z" fill="#36162C"/>
<path d="M303.712 324.082L292.655 330.256L292.081 331.333H295.814L298.112 330.759L315.271 328.533L314.553 325.015L312.471 323.364L303.712 324.082Z" fill="#36162C"/>
<path d="M339.824 108.841C332.573 97.9282 324.101 77.323 324.101 77.323L321.014 77.9692C319.865 75.6 319.291 74.1641 319.291 74.1641L312.183 75.0256C312.471 76.6769 312.758 78.3282 313.045 79.9077L311.25 80.3384C321.588 127.723 339.537 141.723 339.537 141.723C345.424 148.831 349.804 151.703 349.804 151.703L356.696 129.159C350.737 123.774 344.922 116.451 339.824 108.841Z" fill="#FFB0B4"/>
<path d="M352.46 124.923C345.065 124.995 342.696 130.667 335.588 128.872C328.265 126.933 322.594 115.805 322.594 115.805C331.209 135.19 339.681 141.795 339.681 141.795C345.568 148.903 349.947 151.774 349.947 151.774L356.84 129.231C355.26 127.867 353.824 126.431 352.46 124.923Z" fill="#EC8A92"/>
<path d="M355.763 198.513C355.763 198.513 317.137 178.625 286.624 185.159C256.04 191.692 279.804 291.2 288.85 318.913L322.594 308.359C322.594 308.359 310.173 254.943 308.665 223.713C308.665 223.713 331.783 244.174 358.707 244.605C385.63 245.036 395.107 228.236 394.819 220.123C393.958 196.79 382.758 193.846 382.758 193.846L355.763 198.513Z" fill="#5835BA"/>
<path d="M391.589 196.143C398.553 206.41 400.276 219.477 399.055 231.825C397.835 244.174 393.886 256.092 390.44 268.01C379.958 304.195 367.106 345.333 365.096 382.954L331.065 384.102C329.845 362.707 333.506 335.497 336.881 316.328C341.332 290.841 346.645 265.497 352.747 240.297L365.24 200.379L391.589 196.143Z" fill="#5835BA"/>
<path d="M351.814 244.102C351.814 244.102 377.517 248.195 387.353 233.836C387.353 233.836 381.322 244.964 368.614 247.907C355.835 250.779 350.522 249.631 350.522 249.631L351.814 244.102Z" fill="#36162C"/>
<path d="M344.635 131.456C344.635 131.456 331.999 159.313 326.686 158.954C321.301 158.595 295.455 134.687 295.455 134.687L288.419 138.061C288.419 138.061 308.594 169.508 319.65 179.487C330.706 189.467 346.286 176.041 350.378 164.195C354.471 152.349 344.635 131.456 344.635 131.456Z" fill="#FFB0B4"/>
<path d="M357.342 120.974C357.342 120.974 352.891 110.708 352.604 105.538L343.63 107.836C343.63 107.836 344.132 122.123 346.789 128.872C346.717 128.872 352.676 123.056 357.342 120.974Z" fill="#E98870"/>
<path d="M351.742 98.0717L341.763 99.7229L342.912 114.01L354.04 112.215L351.742 98.0717Z" fill="#E98870"/>
<path d="M341.763 99.723C341.763 99.723 339.681 113.508 341.045 115.805C342.409 118.103 347.507 117.026 349.373 112.862C351.312 108.769 341.763 99.723 341.763 99.723Z" fill="#E98870"/>
<path d="M298.542 136.339L289.927 143.733C289.927 143.733 311.394 183.292 327.906 182.933L326.686 158.882C326.686 158.954 308.594 149.549 298.542 136.339Z" fill="#EC8A92"/>
<path d="M345.855 172.308C345.855 172.308 349.732 167.784 351.312 164.697C351.312 164.697 350.666 188.39 344.707 190.615C344.778 190.615 345.855 177.979 345.855 172.308Z" fill="#FC5440"/>
<path d="M344.276 116.954C344.276 116.954 349.158 115.949 352.389 110.564C352.389 110.564 349.66 116.667 344.348 117.743L344.276 116.954Z" fill="#36162C"/>
<path d="M349.014 100.297C349.014 100.297 346.142 101.661 341.548 101.159L341.476 101.733C341.476 101.733 339.968 99.5794 341.045 97.4974C342.409 94.9127 348.799 92.2563 352.819 95.5589C355.763 97.9999 355.332 107.118 353.465 108.769C353.465 108.769 351.671 106.974 351.024 103.026C351.024 103.097 350.594 99.723 349.014 100.297Z" fill="#36162C"/>
<path d="M349.876 100.728C349.876 100.728 350.737 99.8665 352.101 100.297C353.465 100.728 353.681 104.246 349.876 104.174C349.876 104.174 349.373 101.518 349.876 100.728Z" fill="#E98870"/>
<path d="M344.563 131.672C344.348 130.81 357.271 116.595 365.024 120.472C372.778 124.348 385.701 154.287 388.932 169.579C392.163 184.872 392.809 195.354 391.948 196.215C391.086 197.077 377.732 200.307 365.24 200.307C352.748 200.307 344.778 194.061 344.778 190.615C344.778 187.169 348.44 149.118 344.563 131.672Z" fill="#FFB0B4"/>
<path d="M478.317 472.769L482.625 473.487L492.317 453.815L484.276 449.436L493.753 450.872L497.558 443.19L494.327 441.251H498.563L501.794 434.718C456.635 443.98 468.194 492.154 468.194 492.154H473.435L481.907 474.995L478.317 472.769Z" fill="#FFB0B4"/>
<path d="M450.389 430.338L452.973 441.251H456.635L453.189 442.185L456.635 456.615H462.953L457.066 458.41L458.143 463.005L462.881 462.431L458.502 464.513L462.235 480.092H463.958L462.45 481.026L465.107 492.154H471.425C471.496 492.154 480.543 443.477 450.389 430.338Z" fill="#FFB0B4"/>
<defs>
<linearGradient id="paint0_linear" x1="291.864" y1="123.641" x2="320.8" y2="180.257" gradientUnits="userSpaceOnUse">
<stop stop-color="#7D85F9" stop-opacity="0"/>
<stop offset="0.2679" stop-color="#7B83F5" stop-opacity="0.2679"/>
<stop offset="0.5162" stop-color="#757DEA" stop-opacity="0.5162"/>
<stop offset="0.7568" stop-color="#6B73D7" stop-opacity="0.7568"/>
<stop offset="0.9914" stop-color="#5E65BD" stop-opacity="0.9914"/>
<stop offset="1" stop-color="#5D64BC"/>
</linearGradient>
<linearGradient id="paint1_linear" x1="256.368" y1="163.566" x2="286.483" y2="163.566" gradientUnits="userSpaceOnUse">
<stop stop-color="#7D85F9"/>
<stop offset="1" stop-color="#5D64BC"/>
</linearGradient>
</defs>
</svg>
