<svg width="76" height="77" viewBox="0 0 76 77" fill="none" xmlns="http://www.w3.org/2000/svg">
<g filter="url(#filter0_d)">
<path d="M37 48C43.0751 48 48 43.0751 48 37C48 30.9249 43.0751 26 37 26C30.9249 26 26 30.9249 26 37C26 43.0751 30.9249 48 37 48Z" fill="url(#paint0_linear)"/>
<path d="M35.85 64C35.85 63.7348 35.9554 63.4805 36.1429 63.2929C36.3304 63.1054 36.5848 63 36.85 63C37.1152 63 37.3696 63.1054 37.5571 63.2929C37.7446 63.4805 37.85 63.7348 37.85 64C37.85 64.2653 37.7446 64.5196 37.5571 64.7071C37.3696 64.8947 37.1152 65 36.85 65C36.5848 65 36.3304 64.8947 36.1429 64.7071C35.9554 64.5196 35.85 64.2653 35.85 64ZM32.71 64.68C32.5143 64.6498 32.332 64.5622 32.1861 64.4282C32.0403 64.2942 31.9375 64.12 31.8908 63.9276C31.8441 63.7351 31.8556 63.5331 31.9238 63.3472C31.9921 63.1613 32.1139 62.9999 32.274 62.8833C32.4341 62.7668 32.6252 62.7004 32.8231 62.6925C33.0209 62.6847 33.2167 62.7358 33.3855 62.8393C33.5543 62.9429 33.6885 63.0942 33.7712 63.2741C33.8539 63.4541 33.8814 63.6545 33.85 63.85C33.8058 64.1091 33.6615 64.3404 33.4482 64.4938C33.2348 64.6473 32.9697 64.7106 32.71 64.67V64.68ZM28.71 63.75C28.4642 63.6657 28.2608 63.489 28.1431 63.2574C28.0253 63.0257 28.0023 62.7573 28.079 62.509C28.1557 62.2607 28.3261 62.052 28.554 61.9271C28.7819 61.8023 29.0495 61.771 29.3 61.84C29.5532 61.9184 29.765 62.094 29.8887 62.3284C30.0125 62.5628 30.0381 62.8368 29.96 63.09C29.9204 63.2179 29.8555 63.3366 29.7692 63.4389C29.6829 63.5413 29.5769 63.6252 29.4575 63.6859C29.3382 63.7465 29.2078 63.7825 29.0743 63.7918C28.9407 63.8011 28.8066 63.7835 28.68 63.74L28.71 63.75ZM24.85 62.22C24.6113 62.1033 24.4288 61.8966 24.3425 61.6453C24.2562 61.394 24.2733 61.1187 24.39 60.88C24.5067 60.6413 24.7134 60.4588 24.9647 60.3725C25.216 60.2862 25.4913 60.3033 25.73 60.42C25.8482 60.4778 25.9538 60.5583 26.0409 60.6569C26.128 60.7555 26.1948 60.8703 26.2375 60.9948C26.2802 61.1192 26.298 61.2508 26.2899 61.3821C26.2817 61.5134 26.2478 61.6418 26.19 61.76C26.1322 61.8782 26.0517 61.9839 25.9531 62.071C25.8545 62.158 25.7397 62.2248 25.6153 62.2676C25.4908 62.3103 25.3592 62.3281 25.2279 62.3199C25.0966 62.3118 24.9682 62.2778 24.85 62.22Z" fill="#5835BA"/>
<path d="M36.29 9.29C36.4783 9.1017 36.7337 8.99591 37 8.99591C37.2663 8.99591 37.5217 9.1017 37.71 9.29C37.8983 9.47831 38.0041 9.7337 38.0041 10C38.0041 10.2663 37.8983 10.5217 37.71 10.71C37.5217 10.8983 37.2663 11.0041 37 11.0041C36.7337 11.0041 36.4783 10.8983 36.29 10.71C36.1017 10.5217 35.9959 10.2663 35.9959 10C35.9959 9.7337 36.1017 9.47831 36.29 9.29Z" fill="#4795EA"/>
<path d="M44.68 12.15C44.5528 12.1133 44.4342 12.0517 44.331 11.9688C44.2278 11.8859 44.1421 11.7834 44.0788 11.6671C44.0156 11.5508 43.976 11.4231 43.9625 11.2915C43.949 11.1598 43.9617 11.0267 44 10.9C44.0796 10.6467 44.2565 10.4354 44.4918 10.3126C44.7272 10.1898 45.0017 10.1654 45.255 10.245C45.5083 10.3246 45.7196 10.5015 45.8424 10.7369C45.9652 10.9722 45.9896 11.2467 45.91 11.5C45.8295 11.7468 45.6561 11.9526 45.4265 12.074C45.197 12.1953 44.9293 12.2225 44.68 12.15ZM40.89 11.29C40.7599 11.2705 40.635 11.2255 40.5223 11.1576C40.4096 11.0897 40.3115 11.0002 40.2335 10.8943C40.1554 10.7884 40.0991 10.6681 40.0676 10.5404C40.0361 10.4127 40.0301 10.28 40.05 10.15C40.0898 9.88479 40.2333 9.64624 40.449 9.48684C40.6646 9.32743 40.9348 9.26023 41.2 9.30001C41.4652 9.33979 41.7038 9.4833 41.8632 9.69897C42.0226 9.91464 42.0898 10.1848 42.05 10.45C42.15 10.45 41.83 11.3 41.05 11.3H40.91L40.89 11.29Z" fill="#5835BA"/>
<path d="M48.74 13.69C48.5913 13.6917 48.444 13.6603 48.3089 13.5979C48.1739 13.5355 48.0544 13.4438 47.9593 13.3294C47.8642 13.215 47.7958 13.0808 47.7591 12.9366C47.7225 12.7924 47.7184 12.6419 47.7473 12.4959C47.7762 12.35 47.8373 12.2123 47.9261 12.093C48.0149 11.9736 48.1293 11.8756 48.2608 11.8061C48.3923 11.7365 48.5377 11.6972 48.6863 11.6909C48.835 11.6847 48.9831 11.7117 49.12 11.77C49.3312 11.8599 49.505 12.0197 49.6123 12.2226C49.7196 12.4255 49.7538 12.6591 49.7092 12.8842C49.6647 13.1093 49.544 13.3123 49.3676 13.459C49.1911 13.6057 48.9695 13.6873 48.74 13.69Z" fill="#5835BA"/>
<path d="M60.94 49.51C60.7618 49.427 60.6119 49.2934 60.5093 49.1257C60.4066 48.9581 60.3556 48.7639 60.3626 48.5674C60.3697 48.371 60.4346 48.1809 60.549 48.0211C60.6635 47.8613 60.8226 47.7387 61.0063 47.6688C61.19 47.5989 61.3903 47.5847 61.5821 47.6279C61.7739 47.6712 61.9486 47.77 62.0845 47.9121C62.2204 48.0541 62.3115 48.2331 62.3462 48.4266C62.381 48.6201 62.358 48.8195 62.28 49C62.227 49.1227 62.1499 49.2335 62.0533 49.3259C61.9568 49.4184 61.8426 49.4905 61.7177 49.538C61.5928 49.5856 61.4596 49.6076 61.326 49.6028C61.1924 49.5979 61.0612 49.5664 60.94 49.51ZM62.54 45.84C62.3016 45.7511 62.1061 45.5746 61.9933 45.3465C61.8804 45.1185 61.8588 44.856 61.9327 44.6125C62.0066 44.3691 62.1706 44.1629 62.3912 44.0361C62.6118 43.9093 62.8724 43.8714 63.12 43.93C63.2463 43.9678 63.3638 44.0301 63.4659 44.1134C63.568 44.1968 63.6527 44.2995 63.7149 44.4157C63.7772 44.5318 63.8159 44.6592 63.8288 44.7903C63.8416 44.9215 63.8285 45.0539 63.79 45.18C63.7116 45.4332 63.536 45.645 63.3016 45.7687C63.0672 45.8925 62.7933 45.9181 62.54 45.84ZM63.54 41.98C63.3449 41.9505 63.1629 41.8639 63.0169 41.7311C62.8709 41.5984 62.7675 41.4254 62.7196 41.234C62.6717 41.0426 62.6815 40.8413 62.7477 40.6555C62.814 40.4696 62.9337 40.3075 63.0919 40.1896C63.2501 40.0716 63.4396 40.0031 63.6367 39.9927C63.8337 39.9822 64.0294 40.0303 64.1992 40.1308C64.369 40.2314 64.5052 40.3799 64.5908 40.5577C64.6763 40.7355 64.7074 40.9346 64.68 41.13C64.62 41.63 64.29 42 63.56 42L63.54 41.98ZM63 37C63 36.7348 63.1054 36.4804 63.2929 36.2929C63.4804 36.1054 63.7348 36 64 36C64.2652 36 64.5196 36.1054 64.7071 36.2929C64.8946 36.4804 65 36.7348 65 37C65 37.2652 64.8946 37.5196 64.7071 37.7071C64.5196 37.8946 64.2652 38 64 38C63.7348 38 63.4804 37.8946 63.2929 37.7071C63.1054 37.5196 63 37.2652 63 37Z" fill="#5835BA"/>
<path d="M10 37.85C9.73478 37.85 9.48043 37.7446 9.29289 37.5571C9.10536 37.3696 9 37.1152 9 36.85C9 36.5848 9.10536 36.3304 9.29289 36.1429C9.48043 35.9553 9.73478 35.85 10 35.85C10.2652 35.85 10.5196 35.9553 10.7071 36.1429C10.8946 36.3304 11 36.5848 11 36.85C11.1 36.85 10.88 37.85 10 37.85ZM10.17 33.85C9.90911 33.8082 9.67538 33.6648 9.51986 33.4512C9.36434 33.2376 9.29968 32.9711 9.34 32.71C9.36987 32.5146 9.45697 32.3324 9.59032 32.1865C9.72366 32.0406 9.89726 31.9374 10.0892 31.8901C10.2811 31.8428 10.4828 31.8535 10.6686 31.9207C10.8545 31.9879 11.0163 32.1087 11.1336 32.2679C11.2508 32.427 11.3183 32.6173 11.3274 32.8148C11.3366 33.0122 11.287 33.208 11.185 33.3773C11.0829 33.5466 10.933 33.6818 10.7541 33.766C10.5753 33.8501 10.3755 33.8793 10.18 33.85H10.17ZM10.93 29.93C10.741 29.8717 10.5735 29.7586 10.4487 29.6051C10.3239 29.4516 10.2475 29.2645 10.229 29.0676C10.2106 28.8706 10.251 28.6726 10.3451 28.4986C10.4392 28.3246 10.5828 28.1825 10.7578 28.0901C10.9327 27.9977 11.1311 27.9593 11.3279 27.9797C11.5246 28.0001 11.7109 28.0785 11.8632 28.2048C12.0154 28.3311 12.1268 28.4997 12.1832 28.6893C12.2396 28.8789 12.2385 29.081 12.18 29.27C12.1413 29.3965 12.0778 29.514 11.9933 29.6159C11.9089 29.7177 11.805 29.8017 11.6878 29.8631C11.5706 29.9245 11.4424 29.962 11.3106 29.9735C11.1788 29.985 11.046 29.9702 10.92 29.93H10.93ZM12.26 26.16C12.0826 26.0729 11.935 25.9351 11.8358 25.7642C11.7367 25.5932 11.6904 25.3967 11.7028 25.1995C11.7152 25.0023 11.7858 24.8131 11.9057 24.656C12.0255 24.4988 12.1892 24.3807 12.3761 24.3166C12.5631 24.2524 12.7648 24.2451 12.9559 24.2955C13.147 24.3459 13.3189 24.4518 13.4498 24.5998C13.5808 24.7478 13.6649 24.9313 13.6916 25.1271C13.7184 25.3229 13.6865 25.5223 13.6 25.7C13.5424 25.8196 13.4616 25.9266 13.3623 26.0147C13.263 26.1027 13.1471 26.1701 13.0214 26.213C12.8958 26.2558 12.7628 26.2731 12.6304 26.264C12.4979 26.255 12.3686 26.2196 12.25 26.16H12.26Z" fill="#5835BA"/>
<path d="M37 39C35.9391 39 34.9217 38.5786 34.1716 37.8284C33.4214 37.0783 33 36.0609 33 35V33C33 31.9391 33.4214 30.9217 34.1716 30.1716C34.9217 29.4214 35.9391 29 37 29C38.0609 29 39.0783 29.4214 39.8284 30.1716C40.5786 30.9217 41 31.9391 41 33V35C41 36.0609 40.5786 37.0783 39.8284 37.8284C39.0783 38.5786 38.0609 39 37 39Z" fill="#E2E8EF"/>
<path d="M44.48 46.39C42.3517 48.094 39.7065 49.0225 36.98 49.0225C34.2536 49.0225 31.6084 48.094 29.48 46.39L29.78 44.88C31.36 37.04 42.59 37.1 44.14 44.88L44.48 46.39Z" fill="#E2E8EF"/>
<path d="M37 24C24.73 24 19.32 39.52 28.9 47.17C31.2017 49.0035 34.0573 50.0019 37 50.0019C39.9427 50.0019 42.7984 49.0035 45.1 47.17C54.69 39.52 49.26 24 37 24ZM43.85 45.61C41.9023 47.162 39.4855 48.0072 36.995 48.0072C34.5045 48.0072 32.0878 47.162 30.14 45.61C22 39.1 26.64 26 37 26C47.36 26 52 39.12 43.85 45.61Z" fill="#E2E8EF"/>
<path d="M37 55C33.4399 55 29.9598 53.9443 26.9997 51.9665C24.0397 49.9886 21.7326 47.1774 20.3702 43.8883C19.0078 40.5992 18.6513 36.98 19.3459 33.4884C20.0404 29.9967 21.7547 26.7894 24.2721 24.2721C26.7894 21.7547 29.9967 20.0404 33.4884 19.3459C36.98 18.6513 40.5992 19.0078 43.8883 20.3702C47.1774 21.7326 49.9886 24.0397 51.9665 26.9997C53.9443 29.9598 55 33.4399 55 37C55 41.7739 53.1036 46.3523 49.7279 49.7279C46.3523 53.1036 41.7739 55 37 55ZM37 21C22 21 15.2 40.06 27 49.52C29.8329 51.777 33.3479 53.0061 36.97 53.0061C40.5921 53.0061 44.1071 51.777 46.94 49.52C58.8 40.06 52 21 37 21Z" fill="#F0F7FC"/>
<path d="M37 65C36.7348 65 36.4804 64.8946 36.2929 64.7071C36.1054 64.5195 36 64.2652 36 64C36 63.7348 36.1054 63.4804 36.2929 63.2929C36.4804 63.1053 36.7348 63 37 63C42.2344 63.0113 47.3481 61.4276 51.66 58.46C51.8777 58.3249 52.139 58.2785 52.3899 58.3304C52.6408 58.3823 52.8622 58.5285 53.0084 58.7389C53.1547 58.9492 53.2146 59.2077 53.1758 59.461C53.137 59.7143 53.0025 59.943 52.8 60.1C48.1551 63.3039 42.6427 65.0135 37 65Z" fill="#5835BA"/>
<path d="M21.77 15.72C21.5574 15.7195 21.3505 15.6513 21.1794 15.5252C21.0082 15.3991 20.8816 15.2218 20.8181 15.0189C20.7546 14.816 20.7573 14.5982 20.826 14.397C20.8947 14.1958 21.0257 14.0217 21.2 13.9C25.845 10.6961 31.3573 8.98653 37 9.00002C37.2653 9.00002 37.5196 9.10538 37.7071 9.29291C37.8947 9.48045 38 9.7348 38 10C38 10.2652 37.8947 10.5196 37.7071 10.7071C37.5196 10.8947 37.2653 11 37 11C27.48 11 22.74 15.72 21.77 15.72Z" fill="#5835BA"/>
<path d="M63 37C63.0113 31.7656 61.4277 26.6519 58.46 22.34C58.3249 22.1223 58.2785 21.8611 58.3304 21.6102C58.3823 21.3592 58.5285 21.1378 58.7389 20.9916C58.9493 20.8453 59.2078 20.7854 59.4611 20.8242C59.7143 20.863 59.9431 20.9975 60.1 21.2C63.304 25.8449 65.0135 31.3573 65 37C65 37.2652 64.8947 37.5196 64.7071 37.7071C64.5196 37.8947 64.2653 38 64 38C63.7348 38 63.4805 37.8947 63.2929 37.7071C63.1054 37.5196 63 37.2652 63 37Z" fill="#5835BA"/>
<path d="M13.9 52.8C10.6961 48.1551 8.98653 42.6427 9.00002 37C9.00002 36.7348 9.10538 36.4804 9.29291 36.2929C9.48045 36.1054 9.7348 36 10 36C10.2652 36 10.5196 36.1054 10.7071 36.2929C10.8947 36.4804 11 36.7348 11 37C10.9887 42.2344 12.5724 47.3481 15.54 51.66C15.6751 51.8777 15.7215 52.139 15.6696 52.3899C15.6177 52.6408 15.4715 52.8622 15.2611 53.0084C15.0507 53.1547 14.7923 53.2146 14.539 53.1758C14.2857 53.137 14.057 53.0025 13.9 52.8Z" fill="#5835BA"/>
<path d="M36 25V18C36 17.7348 36.1054 17.4804 36.2929 17.2929C36.4804 17.1054 36.7348 17 37 17C37.2652 17 37.5196 17.1054 37.7071 17.2929C37.8946 17.4804 38 17.7348 38 18V25C38 25.2652 37.8946 25.5196 37.7071 25.7071C37.5196 25.8946 37.2652 26 37 26C36.7348 26 36.4804 25.8946 36.2929 25.7071C36.1054 25.5196 36 25.2652 36 25Z" fill="#231F20"/>
<path d="M36 25V18C36 17.7348 36.1054 17.4804 36.2929 17.2929C36.4804 17.1054 36.7348 17 37 17C37.2652 17 37.5196 17.1054 37.7071 17.2929C37.8946 17.4804 38 17.7348 38 18V25C38 25.2652 37.8946 25.5196 37.7071 25.7071C37.5196 25.8946 37.2652 26 37 26C36.7348 26 36.4804 25.8946 36.2929 25.7071C36.1054 25.5196 36 25.2652 36 25Z" fill="#F0F7FC"/>
<path d="M36 56V49C36 48.7348 36.1054 48.4804 36.2929 48.2929C36.4804 48.1054 36.7348 48 37 48C37.2652 48 37.5196 48.1054 37.7071 48.2929C37.8946 48.4804 38 48.7348 38 49V56C38 56.2652 37.8946 56.5196 37.7071 56.7071C37.5196 56.8946 37.2652 57 37 57C36.7348 57 36.4804 56.8946 36.2929 56.7071C36.1054 56.5196 36 56.2652 36 56Z" fill="#F0F7FC"/>
<path d="M18 37H25" stroke="#231F20" stroke-width="2" stroke-linecap="round" stroke-linejoin="round"/>
<path d="M25 38H18C17.7348 38 17.4804 37.8946 17.2929 37.7071C17.1054 37.5196 17 37.2652 17 37C17 36.7348 17.1054 36.4804 17.2929 36.2929C17.4804 36.1054 17.7348 36 18 36H25C25.2652 36 25.5196 36.1054 25.7071 36.2929C25.8946 36.4804 26 36.7348 26 37C26 37.2652 25.8946 37.5196 25.7071 37.7071C25.5196 37.8946 25.2652 38 25 38Z" fill="#F0F7FC"/>
<path d="M56 38H49C48.7348 38 48.4804 37.8946 48.2929 37.7071C48.1054 37.5196 48 37.2652 48 37C48 36.7348 48.1054 36.4804 48.2929 36.2929C48.4804 36.1054 48.7348 36 49 36H56C56.2652 36 56.5196 36.1054 56.7071 36.2929C56.8946 36.4804 57 36.7348 57 37C57 37.2652 56.8946 37.5196 56.7071 37.7071C56.5196 37.8946 56.2652 38 56 38Z" fill="#F0F7FC"/>
<path d="M56 23C58.7614 23 61 20.7614 61 18C61 15.2386 58.7614 13 56 13C53.2386 13 51 15.2386 51 18C51 20.7614 53.2386 23 56 23Z" fill="#5835BA"/>
<path d="M56 61C58.7614 61 61 58.7614 61 56C61 53.2386 58.7614 51 56 51C53.2386 51 51 53.2386 51 56C51 58.7614 53.2386 61 56 61Z" fill="#5835BA"/>
<path d="M18 61C20.7614 61 23 58.7614 23 56C23 53.2386 20.7614 51 18 51C15.2386 51 13 53.2386 13 56C13 58.7614 15.2386 61 18 61Z" fill="#5835BA"/>
<path d="M18 23C20.7614 23 23 20.7614 23 18C23 15.2386 20.7614 13 18 13C15.2386 13 13 15.2386 13 18C13 20.7614 15.2386 23 18 23Z" fill="#5835BA"/>
</g>
<defs>
<filter id="filter0_d" x="-4" y="-3" width="84" height="84" filterUnits="userSpaceOnUse" color-interpolation-filters="sRGB">
<feFlood flood-opacity="0" result="BackgroundImageFix"/>
<feColorMatrix in="SourceAlpha" type="matrix" values="0 0 0 0 0 0 0 0 0 0 0 0 0 0 0 0 0 0 127 0"/>
<feOffset dx="1" dy="2"/>
<feGaussianBlur stdDeviation="5"/>
<feColorMatrix type="matrix" values="0 0 0 0 0.560784 0 0 0 0 0.431373 0 0 0 0 0.713726 0 0 0 0.2 0"/>
<feBlend mode="normal" in2="BackgroundImageFix" result="effect1_dropShadow"/>
<feBlend mode="normal" in="SourceGraphic" in2="effect1_dropShadow" result="shape"/>
</filter>
<linearGradient id="paint0_linear" x1="26" y1="37" x2="48" y2="37" gradientUnits="userSpaceOnUse">
<stop stop-color="#5835BA"/>
<stop offset="1" stop-color="#75196B"/>
</linearGradient>
</defs>
</svg>
