<svg width="78" height="70" viewBox="0 0 78 70" fill="none" xmlns="http://www.w3.org/2000/svg">
<g filter="url(#filter0_d)">
<path d="M67 38V40C67 42.6522 65.9464 45.1957 64.0711 47.0711C62.1957 48.9464 59.6522 50 57 50H19C16.3478 50 13.8043 48.9464 11.9289 47.0711C10.0536 45.1957 9 42.6522 9 40V38C9 35.3478 10.0536 32.8043 11.9289 30.9289C13.8043 29.0536 16.3478 28 19 28H35L38 23L41 28H57C59.6522 28 62.1957 29.0536 64.0711 30.9289C65.9464 32.8043 67 35.3478 67 38Z" fill="#E2E8EF"/>
<path d="M38 46C41.866 46 45 42.866 45 39C45 35.134 41.866 32 38 32C34.134 32 31 35.134 31 39C31 42.866 34.134 46 38 46Z" fill="#FE9661"/>
<path d="M20 46C23.866 46 27 42.866 27 39C27 35.134 23.866 32 20 32C16.134 32 13 35.134 13 39C13 42.866 16.134 46 20 46Z" fill="#E0633D"/>
<path d="M34 39V38C34 37.7348 34.1054 37.4804 34.2929 37.2929C34.4804 37.1054 34.7348 37 35 37C35.2652 37 35.5196 37.1054 35.7071 37.2929C35.8946 37.4804 36 37.7348 36 38V39C36 39.2652 35.8946 39.5196 35.7071 39.7071C35.5196 39.8946 35.2652 40 35 40C34.7348 40 34.4804 39.8946 34.2929 39.7071C34.1054 39.5196 34 39.2652 34 39Z" fill="#E0633D"/>
<path d="M40 39V38C40 37.7348 40.1054 37.4804 40.2929 37.2929C40.4804 37.1054 40.7348 37 41 37C41.2652 37 41.5196 37.1054 41.7071 37.2929C41.8946 37.4804 42 37.7348 42 38V39C42 39.2652 41.8946 39.5196 41.7071 39.7071C41.5196 39.8946 41.2652 40 41 40C40.7348 40 40.4804 39.8946 40.2929 39.7071C40.1054 39.5196 40 39.2652 40 39Z" fill="#E0633D"/>
<path d="M16 39V38C16 37.7348 16.1054 37.4804 16.2929 37.2929C16.4804 37.1054 16.7348 37 17 37C17.2652 37 17.5196 37.1054 17.7071 37.2929C17.8946 37.4804 18 37.7348 18 38V39C18 39.2652 17.8946 39.5196 17.7071 39.7071C17.5196 39.8946 17.2652 40 17 40C16.7348 40 16.4804 39.8946 16.2929 39.7071C16.1054 39.5196 16 39.2652 16 39Z" fill="#FFB369"/>
<path d="M22 39V38C22 37.7348 22.1054 37.4804 22.2929 37.2929C22.4804 37.1054 22.7348 37 23 37C23.2652 37 23.5196 37.1054 23.7071 37.2929C23.8946 37.4804 24 37.7348 24 38V39C24 39.2652 23.8946 39.5196 23.7071 39.7071C23.5196 39.8946 23.2652 40 23 40C22.7348 40 22.4804 39.8946 22.2929 39.7071C22.1054 39.5196 22 39.2652 22 39Z" fill="#FFB369"/>
<path d="M39 43H37C36.7348 43 36.4804 42.8946 36.2929 42.7071C36.1054 42.5196 36 42.2652 36 42C36 41.7348 36.1054 41.4804 36.2929 41.2929C36.4804 41.1054 36.7348 41 37 41H39C39.2652 41 39.5196 41.1054 39.7071 41.2929C39.8946 41.4804 40 41.7348 40 42C40 42.2652 39.8946 42.5196 39.7071 42.7071C39.5196 42.8946 39.2652 43 39 43Z" fill="#E0633D"/>
<path d="M20.79 43.21C20.5789 43.0036 20.2953 42.888 20 42.888C19.7047 42.888 19.4211 43.0036 19.21 43.21C19.0217 43.3983 18.7663 43.5041 18.5 43.5041C18.2337 43.5041 17.9783 43.3983 17.79 43.21C17.6017 43.0217 17.4959 42.7663 17.4959 42.5C17.4959 42.2337 17.6017 41.9783 17.79 41.79C19.88 39.7 23.63 41.79 22.21 43.21C22.117 43.3037 22.0064 43.3781 21.8846 43.4289C21.7627 43.4797 21.632 43.5058 21.5 43.5058C21.368 43.5058 21.2373 43.4797 21.1154 43.4289C20.9936 43.3781 20.883 43.3037 20.79 43.21Z" fill="#FFB369"/>
<path d="M56 46C59.866 46 63 42.866 63 39C63 35.134 59.866 32 56 32C52.134 32 49 35.134 49 39C49 42.866 52.134 46 56 46Z" fill="#FFB369"/>
<path d="M52 39V38C52 37.7348 52.1054 37.4804 52.2929 37.2929C52.4804 37.1054 52.7348 37 53 37C53.2652 37 53.5196 37.1054 53.7071 37.2929C53.8946 37.4804 54 37.7348 54 38V39C54 39.2652 53.8946 39.5196 53.7071 39.7071C53.5196 39.8946 53.2652 40 53 40C52.7348 40 52.4804 39.8946 52.2929 39.7071C52.1054 39.5196 52 39.2652 52 39Z" fill="#E0633D"/>
<path d="M58 39V38C58 37.7348 58.1054 37.4804 58.2929 37.2929C58.4804 37.1054 58.7348 37 59 37C59.2652 37 59.5196 37.1054 59.7071 37.2929C59.8946 37.4804 60 37.7348 60 38V39C60 39.2652 59.8946 39.5196 59.7071 39.7071C59.5196 39.8946 59.2652 40 59 40C58.7348 40 58.4804 39.8946 58.2929 39.7071C58.1054 39.5196 58 39.2652 58 39Z" fill="#E0633D"/>
<path d="M53.79 41.17C53.883 41.0763 53.9936 41.0019 54.1154 40.9511C54.2373 40.9003 54.368 40.8742 54.5 40.8742C54.632 40.8742 54.7627 40.9003 54.8846 40.9511C55.0064 41.0019 55.117 41.0763 55.21 41.17C55.4235 41.3718 55.7062 41.4843 56 41.4843C56.2938 41.4843 56.5765 41.3718 56.79 41.17C56.8832 41.0768 56.9939 41.0028 57.1157 40.9523C57.2376 40.9019 57.3681 40.8759 57.5 40.8759C57.6319 40.8759 57.7624 40.9019 57.8842 40.9523C58.0061 41.0028 58.1168 41.0768 58.21 41.17C58.3032 41.2632 58.3772 41.3739 58.4277 41.4958C58.4781 41.6176 58.5041 41.7481 58.5041 41.88C58.5041 42.0119 58.4781 42.1424 58.4277 42.2643C58.3772 42.3861 58.3032 42.4968 58.21 42.59C56.05 44.74 52.41 42.56 53.79 41.17Z" fill="#E0633D"/>
<path d="M54 50V52C54 53.5913 53.3679 55.1174 52.2426 56.2426C51.1174 57.3679 49.5913 58 48 58H28C26.4087 58 24.8826 57.3679 23.7574 56.2426C22.6321 55.1174 22 53.5913 22 52V50H26C26 51.63 25.71 53.21 27.22 53.84C27.77 54.07 26.12 54 48 54C48.3984 53.9973 48.7874 53.8792 49.12 53.66C50.24 52.86 50 51.84 50 50H54Z" fill="url(#paint0_linear)"/>
<path d="M54 14V28H50C50 10.14 51.39 12 44 12C42.72 14.51 43.31 14 34.24 14C32.83 14 32.41 12.81 32 12H28C27.4696 12 26.9609 12.2107 26.5858 12.5858C26.2107 12.9609 26 13.4696 26 14V28H22V14C22 12.4087 22.6321 10.8826 23.7574 9.75736C24.8826 8.63214 26.4087 8 28 8H48C49.5913 8 51.1174 8.63214 52.2426 9.75736C53.3679 10.8826 54 12.4087 54 14Z" fill="url(#paint1_linear)"/>
<path d="M50 14V28H41L38 23L35 28H26V14C26 13.4696 26.2107 12.9609 26.5858 12.5858C26.9609 12.2107 27.4696 12 28 12H32C32.47 12.91 32.87 14 34.24 14C43.29 14 42.72 14.51 44 12C48.31 12 48.26 11.94 48.78 12.16C49.1415 12.3131 49.4499 12.5692 49.6669 12.8964C49.8838 13.2236 49.9997 13.6074 50 14Z" fill="#F0F7FC"/>
<path d="M50 50C50 51.63 50.29 53.21 48.78 53.84C48.23 54.07 49.88 54 28 54C27.6016 53.9973 27.2126 53.8792 26.88 53.66C25.76 52.86 26 51.84 26 50H50Z" fill="#F0F7FC"/>
</g>
<defs>
<filter id="filter0_d" x="-3" y="-7" width="84" height="84" filterUnits="userSpaceOnUse" color-interpolation-filters="sRGB">
<feFlood flood-opacity="0" result="BackgroundImageFix"/>
<feColorMatrix in="SourceAlpha" type="matrix" values="0 0 0 0 0 0 0 0 0 0 0 0 0 0 0 0 0 0 127 0"/>
<feOffset dx="1" dy="2"/>
<feGaussianBlur stdDeviation="5"/>
<feColorMatrix type="matrix" values="0 0 0 0 0.560784 0 0 0 0 0.431373 0 0 0 0 0.713726 0 0 0 0.2 0"/>
<feBlend mode="normal" in2="BackgroundImageFix" result="effect1_dropShadow"/>
<feBlend mode="normal" in="SourceGraphic" in2="effect1_dropShadow" result="shape"/>
</filter>
<linearGradient id="paint0_linear" x1="22" y1="54" x2="54" y2="54" gradientUnits="userSpaceOnUse">
<stop stop-color="#5835BA"/>
<stop offset="1" stop-color="#75196B"/>
</linearGradient>
<linearGradient id="paint1_linear" x1="22" y1="18" x2="54" y2="18" gradientUnits="userSpaceOnUse">
<stop stop-color="#5835BA"/>
<stop offset="1" stop-color="#75196B"/>
</linearGradient>
</defs>
</svg>
