<svg width="72" height="74" viewBox="0 0 72 74" fill="none" xmlns="http://www.w3.org/2000/svg">
<g filter="url(#filter0_d)">
<path d="M34 56V50C34 49.7348 34.1054 49.4804 34.2929 49.2929C34.4804 49.1054 34.7348 49 35 49C35.2652 49 35.5196 49.1054 35.7071 49.2929C35.8946 49.4804 36 49.7348 36 50V56C36 56.2652 35.8946 56.5196 35.7071 56.7071C35.5196 56.8946 35.2652 57 35 57C34.7348 57 34.4804 56.8946 34.2929 56.7071C34.1054 56.5196 34 56.2652 34 56Z" fill="#939496"/>
<path d="M34 20V14C34 13.7348 34.1054 13.4804 34.2929 13.2929C34.4804 13.1054 34.7348 13 35 13C35.2652 13 35.5196 13.1054 35.7071 13.2929C35.8946 13.4804 36 13.7348 36 14V20C36 20.2652 35.8946 20.5196 35.7071 20.7071C35.5196 20.8946 35.2652 21 35 21C34.7348 21 34.4804 20.8946 34.2929 20.7071C34.1054 20.5196 34 20.2652 34 20Z" fill="#939496"/>
<path d="M22.49 23.4901C21.9 23.4901 22.03 23.4901 17.41 18.8301C17.2217 18.6418 17.1159 18.3864 17.1159 18.1201C17.1159 17.8538 17.2217 17.5984 17.41 17.4101C17.5983 17.2218 17.8537 17.116 18.12 17.116C18.3863 17.116 18.6417 17.2218 18.83 17.4101L23.2 21.7801C23.341 21.9199 23.4372 22.0986 23.4763 22.2934C23.5153 22.4881 23.4955 22.6901 23.4194 22.8735C23.3432 23.057 23.2141 23.2136 23.0486 23.3234C22.8831 23.4332 22.6886 23.4912 22.49 23.4901Z" fill="#939496"/>
<path d="M51.88 52.88C51.29 52.88 51.42 52.83 46.8 48.22C46.6117 48.0316 46.5059 47.7763 46.5059 47.5099C46.5059 47.2436 46.6117 46.9883 46.8 46.7999C46.9883 46.6116 47.2437 46.5059 47.51 46.5059C47.7763 46.5059 48.0317 46.6116 48.22 46.7999L52.59 51.1699C52.731 51.3098 52.8272 51.4885 52.8663 51.6833C52.9054 51.878 52.8856 52.08 52.8094 52.2634C52.7332 52.4469 52.6041 52.6035 52.4386 52.7133C52.2731 52.8231 52.0786 52.8811 51.88 52.88Z" fill="#939496"/>
<path d="M18.12 52.88C17.9214 52.8811 17.7269 52.8231 17.5614 52.7133C17.3958 52.6035 17.2668 52.4469 17.1906 52.2634C17.1144 52.08 17.0946 51.878 17.1337 51.6833C17.1728 51.4885 17.269 51.3098 17.41 51.1699L21.78 46.7999C21.9683 46.6116 22.2237 46.5059 22.49 46.5059C22.7563 46.5059 23.0117 46.6116 23.2 46.7999C23.3883 46.9883 23.4941 47.2436 23.4941 47.5099C23.4941 47.7763 23.3883 48.0316 23.2 48.22C18.61 52.81 18.71 52.88 18.12 52.88Z" fill="#939496"/>
<path d="M47.51 23.4901C47.3114 23.4912 47.1169 23.4332 46.9514 23.3234C46.7859 23.2136 46.6568 23.057 46.5806 22.8735C46.5045 22.6901 46.4846 22.4881 46.5237 22.2934C46.5628 22.0986 46.659 21.9199 46.8 21.7801L51.17 17.4101C51.2632 17.3168 51.3739 17.2429 51.4957 17.1924C51.6176 17.1419 51.7481 17.116 51.88 17.116C52.0119 17.116 52.1424 17.1419 52.2642 17.1924C52.3861 17.2429 52.4968 17.3168 52.59 17.4101C52.6832 17.5033 52.7572 17.614 52.8077 17.7358C52.8581 17.8576 52.8841 17.9882 52.8841 18.1201C52.8841 18.2519 52.8581 18.3825 52.8077 18.5043C52.7572 18.6261 52.6832 18.7368 52.59 18.8301C48 23.4201 48.1 23.4901 47.51 23.4901Z" fill="#939496"/>
<path d="M35 47.33C48.8955 47.33 60.16 41.8097 60.16 35C60.16 28.1904 48.8955 22.67 35 22.67C21.1045 22.67 9.84 28.1904 9.84 35C9.84 41.8097 21.1045 47.33 35 47.33Z" fill="#F0F7FC"/>
<path d="M35 47C41.6274 47 47 41.6274 47 35C47 28.3726 41.6274 23 35 23C28.3726 23 23 28.3726 23 35C23 41.6274 28.3726 47 35 47Z" fill="url(#paint0_linear)"/>
<path d="M38.61 28.5799C38.1148 29.325 37.4429 29.9359 36.6542 30.3582C35.8656 30.7805 34.9846 31.0009 34.09 30.9999H33V36.9999H34.09C34.9846 36.999 35.8656 37.2194 36.6542 37.6417C37.4429 38.0639 38.1148 38.6749 38.61 39.4199C38.7672 39.649 38.9932 39.8222 39.2553 39.9145C39.5174 40.0067 39.802 40.0132 40.068 39.9331C40.3341 39.8529 40.5677 39.6903 40.7353 39.4686C40.9028 39.2469 40.9955 38.9778 41 38.6999V29.2999C40.9955 29.0221 40.9028 28.7529 40.7353 28.5313C40.5677 28.3096 40.3341 28.1469 40.068 28.0668C39.802 27.9866 39.5174 27.9932 39.2553 28.0854C38.9932 28.1776 38.7672 28.3508 38.61 28.5799Z" fill="#E2E8EF"/>
<path d="M33 37H31C30.2044 37 29.4413 36.6839 28.8787 36.1213C28.3161 35.5587 28 34.7956 28 34C28 33.2044 28.3161 32.4413 28.8787 31.8787C29.4413 31.3161 30.2044 31 31 31H33V37Z" fill="#E2E8EF"/>
<path d="M33 42C32.11 42 32.19 41.67 30.07 36.37C30.0214 36.2479 29.9973 36.1174 29.9992 35.986C30.001 35.8546 30.0287 35.7248 30.0807 35.6041C30.1327 35.4833 30.208 35.3741 30.3023 35.2824C30.3965 35.1908 30.5079 35.1186 30.63 35.07C30.7521 35.0215 30.8826 34.9974 31.014 34.9992C31.1455 35.0011 31.2752 35.0288 31.396 35.0808C31.5167 35.1328 31.626 35.2081 31.7176 35.3023C31.8092 35.3966 31.8814 35.5079 31.93 35.63L33.93 40.63C33.9904 40.7818 34.0128 40.9461 33.9951 41.1085C33.9773 41.2709 33.9201 41.4265 33.8283 41.5617C33.7366 41.6969 33.6131 41.8075 33.4687 41.8839C33.3243 41.9603 33.1634 42.0002 33 42Z" fill="#E2E8EF"/>
<path d="M16 57C17.6569 57 19 55.6569 19 54C19 52.3431 17.6569 51 16 51C14.3431 51 13 52.3431 13 54C13 55.6569 14.3431 57 16 57Z" fill="#5835BA"/>
<path d="M54 57C55.6569 57 57 55.6569 57 54C57 52.3431 55.6569 51 54 51C52.3431 51 51 52.3431 51 54C51 55.6569 52.3431 57 54 57Z" fill="#5835BA"/>
<path d="M16 19C17.6569 19 19 17.6569 19 16C19 14.3431 17.6569 13 16 13C14.3431 13 13 14.3431 13 16C13 17.6569 14.3431 19 16 19Z" fill="#5835BA"/>
<path d="M54 19C55.6569 19 57 17.6569 57 16C57 14.3431 55.6569 13 54 13C52.3431 13 51 14.3431 51 16C51 17.6569 52.3431 19 54 19Z" fill="#5835BA"/>
<path d="M35 62C36.6569 62 38 60.6569 38 59C38 57.3431 36.6569 56 35 56C33.3431 56 32 57.3431 32 59C32 60.6569 33.3431 62 35 62Z" fill="#5835BA"/>
<path d="M35 14C36.6569 14 38 12.6569 38 11C38 9.34315 36.6569 8 35 8C33.3431 8 32 9.34315 32 11C32 12.6569 33.3431 14 35 14Z" fill="#5835BA"/>
</g>
<defs>
<filter id="filter0_d" x="-6" y="-5" width="84" height="84" filterUnits="userSpaceOnUse" color-interpolation-filters="sRGB">
<feFlood flood-opacity="0" result="BackgroundImageFix"/>
<feColorMatrix in="SourceAlpha" type="matrix" values="0 0 0 0 0 0 0 0 0 0 0 0 0 0 0 0 0 0 127 0"/>
<feOffset dx="1" dy="2"/>
<feGaussianBlur stdDeviation="5"/>
<feColorMatrix type="matrix" values="0 0 0 0 0.560784 0 0 0 0 0.431373 0 0 0 0 0.713726 0 0 0 0.2 0"/>
<feBlend mode="normal" in2="BackgroundImageFix" result="effect1_dropShadow"/>
<feBlend mode="normal" in="SourceGraphic" in2="effect1_dropShadow" result="shape"/>
</filter>
<linearGradient id="paint0_linear" x1="23" y1="35" x2="47" y2="35" gradientUnits="userSpaceOnUse">
<stop stop-color="#5835BA"/>
<stop offset="1" stop-color="#75196B"/>
</linearGradient>
</defs>
</svg>
