<svg width="500" height="488" viewBox="0 0 500 488" fill="none" xmlns="http://www.w3.org/2000/svg">
<path d="M94.9489 177.768C95.026 177.768 95.026 177.614 94.9489 177.614C94.8718 177.614 94.8718 177.768 94.9489 177.768Z" fill="#F06567"/>
<path d="M147.613 232.776C147.69 232.698 147.69 232.698 147.69 232.621C149.392 231.77 150.862 230.764 152.177 229.449C152.332 229.294 152.487 229.449 152.487 229.604C152.564 230.687 152.023 231.46 151.713 232.466C154.653 231.925 157.825 231.383 160.533 229.99C160.533 229.99 160.533 229.99 160.61 229.99H160.687C160.687 229.99 160.687 229.99 160.765 229.99C160.765 229.99 160.842 229.99 160.842 230.068C160.842 230.068 160.842 230.068 160.842 230.145V230.223V230.3C159.218 231.77 157.438 233.008 155.581 234.013L161.925 232.002C162.157 231.847 162.467 231.692 162.699 231.538C162.931 231.383 163.086 231.692 162.854 231.847C160.842 233.162 158.831 234.71 156.664 235.715C158.521 235.329 160.378 234.942 162.235 234.478H162.312C162.312 234.478 162.39 234.478 162.39 234.555V234.632C162.39 234.632 162.39 234.71 162.312 234.71C160.378 235.638 158.444 236.412 156.432 237.185C157.902 236.953 159.372 236.566 160.765 236.025C160.997 235.948 161.074 236.257 160.92 236.334C158.985 237.804 156.664 238.578 154.266 238.578C152.177 239.352 149.856 239.352 147.845 238.423L147.767 238.346C147.767 236.489 147.69 234.632 147.613 232.776Z" fill="#E98870"/>
<path d="M160.378 174.829C160.378 174.674 160.61 174.597 160.687 174.752C161.152 175.603 161.538 176.376 161.616 177.305C162.544 174.597 164.169 172.199 166.49 170.419H166.567C166.567 170.419 166.567 170.419 166.645 170.419H166.722H166.799V170.497V170.574C166.026 171.58 165.407 172.663 164.943 173.901C165.871 172.508 166.954 171.348 168.347 170.342C168.424 170.265 168.501 170.342 168.501 170.342C168.501 170.342 168.501 170.419 168.501 170.497C168.501 170.497 168.501 170.497 168.501 170.574C167.496 171.889 166.722 173.282 166.18 174.752C166.954 173.669 167.882 172.74 168.888 171.889H168.966C168.966 171.889 168.966 171.889 169.043 171.889H169.12C169.12 171.889 169.12 171.889 169.198 171.967C169.198 171.967 169.198 171.967 169.198 172.044V172.121C168.424 173.591 167.882 175.139 167.263 176.686C168.192 176.222 169.043 175.603 169.739 174.829C169.739 174.829 169.739 174.829 169.817 174.829H169.894H169.971C169.971 174.829 169.971 174.829 170.049 174.829C170.049 174.829 170.049 174.829 170.126 174.907C170.126 174.907 170.126 174.907 170.126 174.984V175.061C170.126 175.061 170.126 175.061 170.126 175.139C168.424 178.233 166.954 181.869 164.092 184.036C164.092 184.036 164.092 184.036 164.014 184.036C164.014 184.113 163.937 184.113 163.859 184.113C162.312 183.494 160.765 182.875 159.372 181.947C159.372 181.947 159.372 181.869 159.295 181.869C159.295 181.869 159.295 181.869 159.295 181.792C159.295 181.792 159.295 181.792 159.295 181.715C159.914 179.471 160.223 177.15 160.378 174.829Z" fill="#E98870"/>
<path d="M100.652 157.112C100.652 157.112 97.9443 169.181 99.4916 174.984C101.039 180.786 102.122 183.803 99.4916 187.207C96.8612 190.611 88.6604 187.981 88.7378 181.792C88.8152 175.603 94.695 155.952 98.4859 154.946C102.199 153.94 100.652 157.112 100.652 157.112Z" fill="#36162C"/>
<path d="M102.896 190.534C102.896 190.534 112.257 205.079 126.337 204.228C127.111 204.15 128.349 203.996 129.896 203.609C137.71 201.443 145.988 194.325 151.636 188.6C153.028 186.743 154.343 184.732 155.581 182.411L156.664 183.107C157.825 181.792 158.444 180.941 158.444 180.941L164.942 184.422C164.942 184.422 164.478 185.66 163.55 187.672L164.942 188.6C164.942 188.6 152.1 219.082 130.438 225.89C129.741 226.122 129.045 226.277 128.349 226.432C126.801 226.818 125.177 227.051 123.552 227.128C123.32 227.128 123.088 227.128 122.778 227.205C122.624 227.205 122.546 227.205 122.392 227.205C122.314 227.205 122.237 227.205 122.16 227.205C102.277 227.902 92.2192 210.959 92.2192 210.959L102.896 190.534Z" fill="#FFB0B4"/>
<path d="M92.2965 211.114L100.884 194.481L104.752 193.243C104.752 193.243 110.323 199.896 111.251 207.246C112.179 214.673 112.798 221.481 117.131 223.028C121.463 224.576 127.652 228.289 145.137 217.226C140.882 221.094 135.93 224.344 130.515 226.046C129.819 226.278 129.122 226.432 128.426 226.587C126.879 226.974 125.254 227.206 123.629 227.283C123.397 227.283 123.165 227.283 122.856 227.361C122.701 227.361 122.624 227.361 122.469 227.361C122.392 227.361 122.314 227.361 122.237 227.361C102.354 228.057 92.2965 211.114 92.2965 211.114Z" fill="#EC8A92"/>
<path d="M22.4358 410.948C22.4358 410.948 17.6392 444.602 12.3783 471.293L21.8168 472.531C21.8168 472.531 31.4101 450.714 37.5994 417.447L22.4358 410.948Z" fill="#E98870"/>
<path d="M126.956 419.69C135.234 444.292 142.042 472.453 142.042 472.453H129.973C122.856 453.344 116.357 437.948 109.858 423.636C117.75 423.017 121.463 421.856 126.956 419.69Z" fill="#E98870"/>
<path d="M95.0043 423.404C92.6833 416.286 90.2076 409.091 87.4998 402.206C70.7889 358.34 61.892 320.508 62.2014 310.528C62.5109 300.548 64.445 258.384 64.445 258.384L90.9812 264.418C90.9812 264.418 121.85 331.494 140.108 413.578C140.108 413.578 119.065 426.963 95.0043 423.404Z" fill="#5835BA"/>
<path d="M18.7221 407.544C28.3928 357.488 31.9516 305.654 32.1837 290.181C32.7253 260.008 43.5564 250.492 43.5564 250.492L74.4251 264.882C74.4251 264.882 82.7031 268.286 78.6802 338.456C77.1329 365.921 69.7832 394.856 61.5051 419.845C56.7085 420.077 30.9458 420.85 18.7221 407.544Z" fill="#5835BA"/>
<path d="M87.0729 151.644L99.0601 153.607L96.5722 168.801L84.585 166.838L87.0729 151.644Z" fill="#E98870"/>
<path d="M77.2104 183.571C77.2104 183.571 83.3995 229.758 147.922 231.383L147.845 239.816C147.845 239.816 109.24 247.475 82.5485 234.787C54.465 221.403 55.5481 189.838 55.5481 189.838C55.5481 189.838 55.0066 177.382 63.2847 175.835C70.4796 174.442 75.5857 176.841 77.2104 183.571Z" fill="#EC8A92"/>
<path d="M59.7258 177.073C59.7258 177.073 50.1325 181.483 48.5079 192.314C47.0379 202.062 47.9663 218.54 44.5623 232.234L59.7258 225.039V177.073Z" fill="#FFB0B4"/>
<path d="M44.4848 232.312C44.4848 232.312 42.7054 245.541 41.5449 247.552C40.3844 249.564 48.0436 258.848 51.6024 260.318C54.9291 261.633 44.949 241.75 44.949 241.75L44.4848 232.312Z" fill="#EC8A92"/>
<path d="M49.0494 213.048C49.5136 203.609 51.6024 180.554 59.7258 177.073C66.9207 173.978 69.7059 174.21 94.7722 184.577C94.7722 184.577 105.062 187.44 107.537 200.979C109.472 211.5 104.056 220.939 100.807 229.217C100.807 229.217 100.807 229.217 100.807 229.294C100.11 231.151 99.4915 232.931 99.1047 234.71C96.4743 243.22 91.8324 258.925 92.2966 263.026C90.7493 264.65 88.8151 265.733 86.2621 265.965C70.6343 267.513 48.121 263.335 44.0207 252.272C39.6882 240.977 48.5852 222.564 49.0494 213.048Z" fill="#FFB0B4"/>
<path d="M93.4571 184.19C93.4571 184.19 96.9386 192.313 93.8439 193.241C92.0645 193.783 82.7806 188.754 78.6803 178.387L93.4571 184.19Z" fill="#E98870"/>
<path d="M93.457 184.19C93.457 184.19 93.8438 179.007 96.6289 168.794L84.6373 166.86C84.6373 166.86 83.7863 172.74 78.7576 178.31L89.4339 185.737L93.457 184.19Z" fill="#E98870"/>
<path d="M99.1048 153.553C99.1048 153.553 100.343 169.259 98.2538 171.347C96.1649 173.436 90.0531 170.883 88.4284 166.783C86.8811 162.76 92.8382 153.012 99.1048 153.553Z" fill="#E98870"/>
<path d="M75.3538 367.159C75.3538 367.159 81.1561 327.703 79.7635 302.559C79.7635 302.559 86.3396 341.861 79.7635 380.543L75.3538 367.159Z" fill="#36162C"/>
<path d="M144.673 229.836L143.745 242.137C143.745 242.137 99.3368 250.028 74.2705 229.836L89.9757 208.792C89.9757 208.792 103.979 229.604 144.673 229.836Z" fill="#FFB0B4"/>
<path d="M97.248 240.667C97.248 240.667 59.6485 230.919 55.3934 197.033C55.3934 197.033 52.9951 227.747 95.2365 247.397L97.248 240.667Z" fill="#EC8A92"/>
<path d="M95.7781 172.122C95.7781 172.122 92.9929 171.735 90.7493 169.878C90.7493 169.878 89.8982 174.984 94.927 175.835L95.7781 172.122Z" fill="#36162C"/>
<path d="M86.9584 154.018C86.9584 154.018 89.8209 157.19 96.2422 154.018C96.2422 154.018 97.5574 155.952 99.2595 155.41L99.4142 157.809C99.4142 157.809 103.05 156.571 103.05 152.393C103.05 148.215 97.5574 144.734 90.7493 145.894C83.9412 147.055 82.7807 152.238 82.7033 154.559C82.6259 156.88 79.4539 164.23 72.4137 166.783C65.3735 169.336 66.0698 178.233 69.8607 180.245C73.0327 181.947 79.9181 185.196 83.5543 177.073C87.2678 168.949 87.0357 158.892 86.3394 157.654L86.9584 154.018Z" fill="#36162C"/>
<path d="M88.5058 154.636C88.5058 154.636 87.5774 153.708 86.1075 154.172C84.6375 154.636 84.4054 158.427 88.5058 158.35C88.5058 158.35 88.97 155.487 88.5058 154.636Z" fill="#E98870"/>
<path d="M142.042 472.453L159.527 476.554L159.991 479.261H128.503L127.575 475.316L129.973 472.453H142.042Z" fill="#5835BA"/>
<path d="M21.8168 472.453V478.255L9.74788 487.384L-0.000116348 485.992L12.3783 471.215L21.8168 472.453Z" fill="#5835BA"/>
<path d="M400.944 449.706H187.051C184.106 449.706 181.778 447.38 181.778 444.438V35.0982C181.778 32.1563 184.106 29.8301 187.051 29.8301H400.944C403.889 29.8301 406.218 32.1563 406.218 35.0982V444.369C406.218 447.311 403.821 449.706 400.944 449.706Z" fill="#CFD4DD"/>
<path d="M387.999 383.273H199.996C197.667 383.273 195.749 381.357 195.749 379.031V60.2072C195.749 57.881 197.667 55.9653 199.996 55.9653H387.999C390.328 55.9653 392.246 57.881 392.246 60.2072V379.031C392.177 381.425 390.328 383.273 387.999 383.273Z" fill="#E2E8EF"/>
<path d="M321.222 275.311H266.636V277.021H321.222V275.311Z" fill="#36162C"/>
<path d="M365.535 290.43H222.46V292.141H365.535V290.43Z" fill="#36162C"/>
<path d="M365.535 305.619H222.46V307.33H365.535V305.619Z" fill="#36162C"/>
<path d="M365.535 320.808H222.46V322.518H365.535V320.808Z" fill="#36162C"/>
<path d="M312.461 419.455C313.919 409.282 306.844 399.853 296.66 398.397C286.475 396.941 277.037 404.008 275.579 414.182C274.121 424.355 281.196 433.784 291.38 435.24C301.565 436.696 311.003 429.629 312.461 419.455Z" fill="#DDE4EF"/>
<path d="M293.963 254.374C315.94 254.374 333.756 236.577 333.756 214.624C333.756 192.67 315.94 174.874 293.963 174.874C271.986 174.874 254.171 192.67 254.171 214.624C254.171 236.577 271.986 254.374 293.963 254.374Z" fill="#B768B0"/>
<path d="M371.425 44.1978C371.425 45.8398 370.124 47.1397 368.48 47.1397C366.836 47.1397 365.535 45.8398 365.535 44.1978C365.535 42.5558 366.836 41.2559 368.48 41.2559C370.124 41.2559 371.425 42.5558 371.425 44.1978Z" fill="#36162C"/>
<path d="M369.643 44.1972C369.643 44.8811 369.095 45.3598 368.479 45.3598C367.795 45.3598 367.316 44.8127 367.316 44.1972C367.316 43.5818 367.863 43.0347 368.479 43.0347C369.095 43.0347 369.643 43.5134 369.643 44.1972Z" fill="#E2E8EF"/>
<path d="M317.866 46.5919H270.129C269.65 46.5919 269.307 46.2498 269.307 45.7709V42.6237C269.307 42.1448 269.65 41.8027 270.129 41.8027H317.866C318.346 41.8027 318.688 42.1448 318.688 42.6237V45.7025C318.688 46.1814 318.346 46.5919 317.866 46.5919Z" fill="#DDE4EF"/>
<path d="M149.93 14.3679L135.684 10.3313C135.273 10.1944 134.999 9.78393 135.136 9.30501L135.958 6.49993C136.095 6.08943 136.506 5.81575 136.986 5.95259L151.231 9.98918C151.642 10.126 151.916 10.5365 151.779 11.0154L150.957 13.8205C150.82 14.231 150.409 14.5047 149.93 14.3679Z" fill="#DDE4EF"/>
<path d="M143.903 44.9504L129.109 44.6767C128.63 44.6767 128.287 44.2662 128.287 43.8557L128.356 40.9138C128.356 40.4349 128.767 40.0928 129.178 40.0928L143.971 40.3665C144.451 40.3665 144.793 40.7769 144.793 41.1875L144.725 44.1294C144.725 44.6083 144.382 44.9504 143.903 44.9504Z" fill="#DDE4EF"/>
<path d="M151.848 75.806L137.807 80.5267C137.396 80.6636 136.917 80.4583 136.78 79.9794L135.821 77.2427C135.684 76.8322 135.889 76.3533 136.369 76.2165L150.409 71.4957C150.82 71.3589 151.3 71.5641 151.437 72.043L152.396 74.7797C152.532 75.1902 152.259 75.6007 151.848 75.806Z" fill="#DDE4EF"/>
<path d="M437.928 277.842H419.642V449.637H437.928V277.842Z" fill="#EEF3FF"/>
<path d="M352.453 443.958H316.496V479.877H352.453V443.958Z" fill="#EEF3FF"/>
<path d="M368.411 408.04H332.454V443.959H368.411V408.04Z" fill="#EEF3FF"/>
<path d="M388.41 443.958H352.453V479.877H388.41V443.958Z" fill="#EEF3FF"/>
<path d="M469.16 326.499H450.873V449.445H469.16V326.499Z" fill="#EEF3FF"/>
<path d="M500 371.451H482.255V449.527H500V371.451Z" fill="#EEF3FF"/>
<path d="M471.351 65.3384H260.198V235.56H471.351V65.3384Z" fill="#EEF3FF"/>
<path d="M322.934 82.2368H274.307V128.076H322.934V82.2368Z" fill="#B768B0"/>
<path d="M322.934 139.365H274.307V141.076H322.934V139.365Z" fill="#B768B0"/>
<path d="M322.934 155.512H274.307V157.222H322.934V155.512Z" fill="#B768B0"/>
<path d="M322.934 171.589H274.307V173.3H322.934V171.589Z" fill="#B768B0"/>
<path d="M322.934 187.736H274.307V189.447H322.934V187.736Z" fill="#B768B0"/>
<path d="M455.188 202.309H274.307V204.02H455.188V202.309Z" fill="#B768B0"/>
<path d="M455.188 216.951H274.307V218.661H455.188V216.951Z" fill="#B768B0"/>
<path d="M455.188 82.2368H341.495V189.446H455.188V82.2368Z" fill="#B768B0"/>
<path d="M298.62 105.157L302.182 87.8479C301.018 87.6427 299.853 87.5059 298.62 87.5059C288.826 87.5059 280.95 95.4423 280.95 105.157C280.95 114.941 288.895 122.809 298.62 122.809C308.414 122.809 316.291 114.873 316.291 105.157C316.291 104.61 316.291 103.994 316.222 103.447L298.62 105.157Z" fill="white"/>
<path d="M245.336 36.603C245.336 36.603 249.651 38.5871 253.623 39.1344C253.623 39.1344 258.486 52.1337 253.623 60.9595C253.623 60.9595 247.527 60.9595 245.336 61.9173V36.603Z" fill="#B768B0"/>
<path d="M245.336 61.9857C246.089 61.6436 247.322 61.4384 248.623 61.3016C255.404 52.8178 250.541 38.5187 250.541 38.5187C247.733 37.6977 245.404 36.6714 245.404 36.6714V61.9857H245.336Z" fill="#36162C"/>
<path d="M195.339 5.5415C195.339 5.5415 235.542 32.0189 247.322 35.7819C247.322 35.7819 254.856 50.9704 246.637 63.3539C246.637 63.3539 206.16 76.2848 192.051 88.0525L195.339 5.5415Z" fill="#B768B0"/>
<path d="M183.969 90.721C197.095 90.721 207.735 70.4124 207.735 45.3605C207.735 20.3086 197.095 0 183.969 0C170.844 0 160.203 20.3086 160.203 45.3605C160.203 70.4124 170.844 90.721 183.969 90.721Z" fill="#EEF3FF"/>
<path d="M183.969 85.179C194.22 85.179 202.53 67.3516 202.53 45.3603C202.53 23.369 194.22 5.5415 183.969 5.5415C173.718 5.5415 165.409 23.369 165.409 45.3603C165.409 67.3516 173.718 85.179 183.969 85.179Z" fill="#36162C"/>
<path d="M207.119 18.2676C207.119 18.2676 227.46 33.3194 242.322 37.1508V37.5613C242.322 37.5613 222.529 33.0457 207.735 21.7569C207.735 21.7569 205.886 19.0886 207.119 18.2676Z" fill="#36162C"/>
<path d="M216.091 74.8479V84.2895H219.447V73.4111L216.091 74.8479Z" fill="#36162C"/>
<path d="M216.091 84.2901L230.679 76.6274H232.186L219.447 84.2901H216.091Z" fill="#36162C"/>
<path d="M230.679 76.627V68.9643L232.186 68.417V76.627C232.186 76.627 230.679 77.2427 230.679 76.627Z" fill="#36162C"/>
<path d="M189.311 57.1966C192.736 46.6604 190.339 37.8346 188.216 32.977C187.531 32.7033 186.846 32.498 186.092 32.498C181.572 32.498 177.942 38.2451 177.942 45.3604C177.942 52.4758 181.572 58.2228 186.092 58.2228C187.257 58.2228 188.353 57.8808 189.311 57.1966Z" fill="#EEF3FF"/>
</svg>
