<svg width="66" height="78" viewBox="0 0 66 78" fill="none" xmlns="http://www.w3.org/2000/svg">
<g filter="url(#filter0_d)">
<path d="M55 16V41C55 41.7956 54.6839 42.5587 54.1213 43.1213C53.5587 43.6839 52.7957 44 52 44H12C11.2044 44 10.4413 43.6839 9.87868 43.1213C9.31607 42.5587 9 41.7956 9 41V16H55Z" fill="#F0F7FC"/>
<path d="M47 21H17C14.7909 21 13 22.7909 13 25V31C13 33.2091 14.7909 35 17 35H47C49.2091 35 51 33.2091 51 31V25C51 22.7909 49.2091 21 47 21Z" fill="#F0F7FC"/>
<path d="M55 11V16H9V11C9 10.2044 9.31607 9.44129 9.87868 8.87868C10.4413 8.31607 11.2044 8 12 8H52C52.7957 8 53.5587 8.31607 54.1213 8.87868C54.6839 9.44129 55 10.2044 55 11Z" fill="#5835BA"/>
<path d="M15 12C15 12.2652 14.8946 12.5196 14.7071 12.7071C14.5196 12.8946 14.2652 13 14 13C13.7348 13 13.4804 12.8946 13.2929 12.7071C13.1054 12.5196 13 12.2652 13 12C13 11.7348 13.1054 11.4804 13.2929 11.2929C13.4804 11.1054 13.7348 11 14 11C14.2652 11 14.5196 11.1054 14.7071 11.2929C14.8946 11.4804 15 11.7348 15 12Z" fill="#0668CB"/>
<path d="M20 12C20 12.2652 19.8946 12.5196 19.7071 12.7071C19.5196 12.8946 19.2652 13 19 13C18.7348 13 18.4804 12.8946 18.2929 12.7071C18.1054 12.5196 18 12.2652 18 12C18 11.7348 18.1054 11.4804 18.2929 11.2929C18.4804 11.1054 18.7348 11 19 11C19.2652 11 19.5196 11.1054 19.7071 11.2929C19.8946 11.4804 20 11.7348 20 12Z" fill="#EC8A92"/>
<path d="M25 12C25 12.2652 24.8946 12.5196 24.7071 12.7071C24.5196 12.8946 24.2652 13 24 13C23.7348 13 23.4804 12.8946 23.2929 12.7071C23.1054 12.5196 23 12.2652 23 12C23 11.7348 23.1054 11.4804 23.2929 11.2929C23.4804 11.1054 23.7348 11 24 11C24.2652 11 24.5196 11.1054 24.7071 11.2929C24.8946 11.4804 25 11.7348 25 12Z" fill="#F0F7FC"/>
<path d="M32 23.89L33.24 26.39L36 26.79L34 28.74L34.47 31.5L32 30.2L29.53 31.5L30 28.74L28 26.79L30.76 26.39L32 23.89Z" fill="url(#paint0_linear)"/>
<path d="M19 23.89L20.24 26.39L23 26.79L21 28.74L21.47 31.5L19 30.2L16.53 31.5L17 28.74L15 26.79L17.76 26.39L19 23.89Z" fill="#5835BA"/>
<path d="M45 23.89L46.24 26.39L49 26.79L47 28.74L47.47 31.5L45 30.2L42.53 31.5L43 28.74L41 26.79L43.76 26.39L45 23.89Z" fill="#BB6CB0"/>
<path d="M49 49.64V54.79C48.9993 57.0079 48.4513 59.1914 47.4047 61.1469C46.3581 63.1023 44.8451 64.7693 43 66H29C27.1549 64.7693 25.6419 63.1023 24.5953 61.1469C23.5487 59.1914 23.0007 57.0079 23 54.79V46C23 42.59 29 43.74 29 48V37.64C28.9841 37.0017 29.2036 36.3798 29.6167 35.8929C30.0298 35.4061 30.6076 35.0882 31.24 35C31.5895 34.9635 31.9427 35.001 32.2767 35.1102C32.6107 35.2193 32.9179 35.3977 33.1784 35.6336C33.4388 35.8695 33.6466 36.1576 33.7881 36.4792C33.9297 36.8008 34.0019 37.1486 34 37.5V46.5C33.9981 46.1486 34.0703 45.8008 34.2119 45.4792C34.3534 45.1576 34.5612 44.8695 34.8216 44.6336C35.0821 44.3977 35.3893 44.2193 35.7233 44.1102C36.0573 44.001 36.4105 43.9635 36.76 44C37.3924 44.0882 37.9702 44.4061 38.3833 44.8929C38.7964 45.3798 39.0159 46.0017 39 46.64V47.5C38.9981 47.1486 39.0703 46.8008 39.2119 46.4792C39.3534 46.1576 39.5612 45.8695 39.8216 45.6336C40.0821 45.3977 40.3893 45.2193 40.7233 45.1102C41.0573 45.001 41.4105 44.9635 41.76 45C42.3924 45.0882 42.9702 45.4061 43.3833 45.8929C43.7964 46.3798 44.0159 47.0017 44 47.64V49.5C43.9981 49.1486 44.0703 48.8008 44.2119 48.4792C44.3534 48.1576 44.5612 47.8695 44.8216 47.6336C45.0821 47.3977 45.3893 47.2193 45.7233 47.1102C46.0573 47.001 46.4105 46.9635 46.76 47C47.3924 47.0882 47.9702 47.4061 48.3833 47.8929C48.7964 48.3798 49.0159 49.0017 49 49.64Z" fill="url(#paint1_linear)"/>
<path d="M29 48V55C28.4696 55 27.9609 54.7893 27.5858 54.4142C27.2107 54.0392 27 53.5305 27 53V44.53C27.6089 44.8816 28.1145 45.3875 28.4656 45.9967C28.8167 46.6059 29.001 47.2969 29 48Z" fill="#EB7F58"/>
</g>
<defs>
<filter id="filter0_d" x="-9" y="-3" width="84" height="84" filterUnits="userSpaceOnUse" color-interpolation-filters="sRGB">
<feFlood flood-opacity="0" result="BackgroundImageFix"/>
<feColorMatrix in="SourceAlpha" type="matrix" values="0 0 0 0 0 0 0 0 0 0 0 0 0 0 0 0 0 0 127 0"/>
<feOffset dx="1" dy="2"/>
<feGaussianBlur stdDeviation="5"/>
<feColorMatrix type="matrix" values="0 0 0 0 0.560784 0 0 0 0 0.431373 0 0 0 0 0.713726 0 0 0 0.2 0"/>
<feBlend mode="normal" in2="BackgroundImageFix" result="effect1_dropShadow"/>
<feBlend mode="normal" in="SourceGraphic" in2="effect1_dropShadow" result="shape"/>
</filter>
<linearGradient id="paint0_linear" x1="28" y1="27.695" x2="36" y2="27.695" gradientUnits="userSpaceOnUse">
<stop stop-color="#5835BA"/>
<stop offset="1" stop-color="#75196B"/>
</linearGradient>
<linearGradient id="paint1_linear" x1="23" y1="50.5" x2="49" y2="50.5" gradientUnits="userSpaceOnUse">
<stop stop-color="#FE9661"/>
<stop offset="1" stop-color="#FFB369"/>
</linearGradient>
</defs>
</svg>
